<svg xmlns="http://www.w3.org/2000/svg" width="202.885" height="40" viewBox="0 0 202.885 40">
  <g id="Group_37881" data-name="Group 37881" transform="translate(-685.115 -2610)">
    <g id="Group_37868" data-name="Group 37868" transform="translate(-121 2240)">
      <g id="Group_37867" data-name="Group 37867" transform="translate(0 1)">
        <text id="you_feel_would_be_useful" data-name="you feel would be useful" transform="translate(864 405)" fill="#010c12" font-size="12" font-family="Poppins-Regular, Poppins" opacity="0.44"><tspan x="0" y="0">you feel would be useful</tspan></text>
        <text id="Attach_any_files" data-name="Attach any files" transform="translate(864 386)" fill="#010c12" font-size="16" font-family="Poppins-Regular, Poppins" opacity="0.44"><tspan x="0" y="0">Attach any files</tspan></text>
      </g>
    </g>
    <path id="Icon_metro-attachment" data-name="Icon metro-attachment" d="M26.286,13.667l-2.331-2.33L12.3,22.994a4.946,4.946,0,0,0,6.995,6.994L33.281,16A8.243,8.243,0,0,0,21.623,4.343L6.934,19.03l-.031.03a11.5,11.5,0,0,0,16.26,16.257l.029-.031h0L33.22,25.262l-2.333-2.33L20.861,32.956l-.03.03a8.2,8.2,0,0,1-11.6-11.593l.032-.03,0,0L23.955,6.674a4.946,4.946,0,0,1,7,6.994L16.959,27.656a1.648,1.648,0,0,1-2.332-2.33L26.286,13.667Z" transform="translate(681.58 2610.072)" fill="#f75308"/>
  </g>
</svg>
