<svg xmlns="http://www.w3.org/2000/svg" xmlns:xlink="http://www.w3.org/1999/xlink" width="23.207" height="18.05" viewBox="0 0 23.207 18.05">
  <defs>
    <linearGradient id="linear-gradient" x1="0.549" y1="0.096" x2="0.545" y2="0.923" gradientUnits="objectBoundingBox">
      <stop offset="0" stop-color="#fe6d2d"/>
      <stop offset="0.459" stop-color="#f75308"/>
      <stop offset="1" stop-color="#f6250a"/>
    </linearGradient>
  </defs>
  <path id="Icon_awesome-address-card" data-name="Icon awesome-address-card" d="M21.273,2.25H1.934A1.934,1.934,0,0,0,0,4.184V18.366A1.934,1.934,0,0,0,1.934,20.3H21.273a1.934,1.934,0,0,0,1.934-1.934V4.184A1.934,1.934,0,0,0,21.273,2.25ZM7.091,6.118A2.579,2.579,0,1,1,4.512,8.7,2.581,2.581,0,0,1,7.091,6.118ZM11.6,15.659a.845.845,0,0,1-.9.774H3.481a.845.845,0,0,1-.9-.774v-.774a2.537,2.537,0,0,1,2.708-2.321h.2a4.15,4.15,0,0,0,3.207,0h.2A2.537,2.537,0,0,1,11.6,14.885Zm9.025-2.127a.323.323,0,0,1-.322.322H14.5a.323.323,0,0,1-.322-.322v-.645a.323.323,0,0,1,.322-.322h5.8a.323.323,0,0,1,.322.322Zm0-2.579a.323.323,0,0,1-.322.322H14.5a.323.323,0,0,1-.322-.322v-.645a.323.323,0,0,1,.322-.322h5.8a.323.323,0,0,1,.322.322Zm0-2.579a.323.323,0,0,1-.322.322H14.5a.323.323,0,0,1-.322-.322V7.729a.323.323,0,0,1,.322-.322h5.8a.323.323,0,0,1,.322.322Z" transform="translate(0 -2.25)" fill="url(#linear-gradient)"/>
</svg>
