<svg xmlns="http://www.w3.org/2000/svg" width="48.587" height="58.318" viewBox="0 0 48.587 58.318">
  <g id="android" transform="translate(-42.727)">
    <g id="Group_15" data-name="Group 15" transform="translate(42.727 0)">
      <path id="Path_47" data-name="Path 47" d="M46.371,170.787a3.644,3.644,0,0,0-3.644,3.644v17.005a3.644,3.644,0,0,0,7.288,0V174.431A3.644,3.644,0,0,0,46.371,170.787Z" transform="translate(-42.727 -151.339)" fill="#4caf50"/>
      <path id="Path_48" data-name="Path 48" d="M409.037,170.787a3.644,3.644,0,0,0-3.644,3.644v17.005a3.644,3.644,0,1,0,7.288,0V174.431A3.644,3.644,0,0,0,409.037,170.787Z" transform="translate(-364.094 -151.339)" fill="#4caf50"/>
      <path id="Path_49" data-name="Path 49" d="M156,170.787H129.275A1.215,1.215,0,0,0,128.06,172v19.435a6.073,6.073,0,0,0,4.859,5.952v8.624a3.644,3.644,0,1,0,7.288,0v-8.5h4.859v8.5a3.644,3.644,0,1,0,7.288,0v-8.624a6.073,6.073,0,0,0,4.859-5.952V172A1.215,1.215,0,0,0,156,170.787Z" transform="translate(-118.343 -151.339)" fill="#4caf50"/>
      <path id="Path_50" data-name="Path 50" d="M151.465,5.047l2.961-2.959A1.215,1.215,0,0,0,152.739.341l-.03.03-3.45,3.45a16.624,16.624,0,0,0-13.247,0L132.563.368a1.215,1.215,0,0,0-1.718,1.717L133.8,5.047A12.819,12.819,0,0,0,128.059,15.8a1.215,1.215,0,0,0,1.215,1.215H156a1.215,1.215,0,0,0,1.215-1.215A12.82,12.82,0,0,0,151.465,5.047Z" transform="translate(-118.341 0)" fill="#4caf50"/>
    </g>
    <g id="Group_16" data-name="Group 16" transform="translate(59.732 9.731)">
      <circle id="Ellipse_1" data-name="Ellipse 1" cx="1.215" cy="1.215" r="1.215" fill="#4caf50"/>
      <circle id="Ellipse_2" data-name="Ellipse 2" cx="1.215" cy="1.215" r="1.215" transform="translate(12.147)" fill="#4caf50"/>
    </g>
  </g>
</svg>
