<svg xmlns="http://www.w3.org/2000/svg" width="136.533" height="120" viewBox="0 0 136.533 120">
  <g id="phone_1_" data-name="phone (1)" transform="translate(0 -31)">
    <path id="Path_119" data-name="Path 119" d="M240.267,31h-32a27.982,27.982,0,0,0-4,55.715V99a4,4,0,0,0,6.828,2.828l13.172-13.172L225.923,87h14.344a28,28,0,1,0,0-56Z" transform="translate(-132 0)" fill="#fed843"/>
    <path id="Path_120" data-name="Path 120" d="M362,87a28,28,0,1,0,0-56H346V88.656L347.656,87Z" transform="translate(-253.733 0)" fill="#fabe2c"/>
    <path id="Path_121" data-name="Path 121" d="M101.867,173.6v16a11.971,11.971,0,0,1-11.944,12c-23.043,0-45.523-10.893-62.243-27.547S0,134.987,0,111.944A11.965,11.965,0,0,1,12,100H28a3.993,3.993,0,0,1,3.792,2.733l8,23.944a4,4,0,0,1-.464,3.485l-6.784,10.179c2.571,5.392,7.12,11.285,12.373,16.475s11.216,9.669,16.608,12.24L71.7,162.272a4.005,4.005,0,0,1,3.485-.464l24,8a3.943,3.943,0,0,1,2.677,3.792Z" transform="translate(0 -50.6)" fill="#ff641a"/>
    <path id="Path_122" data-name="Path 122" d="M177.987,329.844v16a11.971,11.971,0,0,1-11.944,12c-23.043,0-45.523-10.893-62.243-27.547l17.237-17.237c5.256,5.187,11.216,9.669,16.608,12.24l10.179-6.784a4.005,4.005,0,0,1,3.485-.464l24,8A3.943,3.943,0,0,1,177.987,329.844Z" transform="translate(-76.12 -206.844)" fill="#f03800"/>
    <circle id="Ellipse_33" data-name="Ellipse 33" cx="4" cy="4" r="4" transform="translate(72.266 55)" fill="#613d5c"/>
    <circle id="Ellipse_34" data-name="Ellipse 34" cx="4" cy="4" r="4" transform="translate(88.267 54.999)" fill="#613d5c"/>
    <g id="Group_225" data-name="Group 225" transform="translate(92.267 54.999)">
      <path id="Path_123" data-name="Path 123" d="M350,125a4,4,0,0,0-4-4v8A4,4,0,0,0,350,125Z" transform="translate(-346 -120.998)" fill="#4b2746"/>
      <circle id="Ellipse_35" data-name="Ellipse 35" cx="4" cy="4" r="4" transform="translate(12 0)" fill="#4b2746"/>
    </g>
  </g>
</svg>
