<svg xmlns="http://www.w3.org/2000/svg" width="23.43" height="23.43" viewBox="0 0 23.43 23.43">
  <path id="Icon_awesome-check-square" data-name="Icon awesome-check-square" d="M20.919,25.68H2.51A2.51,2.51,0,0,1,0,23.169V4.76A2.51,2.51,0,0,1,2.51,2.25H20.919a2.51,2.51,0,0,1,2.51,2.51V23.169A2.51,2.51,0,0,1,20.919,25.68Zm-10.7-5.128,9.623-9.623a.837.837,0,0,0,0-1.183L18.654,8.562a.837.837,0,0,0-1.183,0L9.623,16.41,5.959,12.746a.837.837,0,0,0-1.183,0L3.592,13.929a.837.837,0,0,0,0,1.183l5.439,5.439a.837.837,0,0,0,1.183,0Z" transform="translate(0 -2.25)" fill="#f75308"/>
</svg>
