<svg xmlns="http://www.w3.org/2000/svg" xmlns:xlink="http://www.w3.org/1999/xlink" width="52.466" height="61.288" viewBox="0 0 52.466 61.288">
  <defs>
    <linearGradient id="linear-gradient" x1="0.928" y1="0.5" x2="0.052" y2="0.5" gradientUnits="objectBoundingBox">
      <stop offset="0" stop-color="#fe6d2d"/>
      <stop offset="0.459" stop-color="#f75308"/>
      <stop offset="1" stop-color="#f6250a"/>
    </linearGradient>
  </defs>
  <g id="reuse" transform="translate(-36.837 0.259)">
    <g id="Group_38859" data-name="Group 38859" transform="translate(63.07 14.415)">
      <g id="Group_38858" data-name="Group 38858">
        <g id="Group_38857" data-name="Group 38857">
          <path id="Path_6155" data-name="Path 6155" d="M270.55,122.873l-.07.07a4.871,4.871,0,0,0-.673,6.011A16.2,16.2,0,0,1,256,153.624v9.782a25.988,25.988,0,0,0,22.1-39.656A4.848,4.848,0,0,0,270.55,122.873Z" transform="translate(-256 -121.454)" stroke="#fff" stroke-width="0.5" fill="url(#linear-gradient)"/>
        </g>
      </g>
    </g>
    <g id="Group_38865" data-name="Group 38865" transform="translate(37.087 4.402)">
      <g id="Group_38864" data-name="Group 38864" transform="translate(0)">
        <g id="Group_38863" data-name="Group 38863">
          <path id="Path_6157" data-name="Path 6157" d="M48.59,77.549a4.871,4.871,0,0,0,.673-6.011A16.2,16.2,0,0,1,63.07,46.869V37.087a25.988,25.988,0,0,0-22.1,39.656,4.848,4.848,0,0,0,7.548.877Z" transform="translate(-37.087 -37.087)" stroke="#fff" stroke-width="0.5" fill="url(#linear-gradient)"/>
        </g>
      </g>
    </g>
    <g id="Group_38871" data-name="Group 38871" transform="translate(59.262 0.02)">
      <g id="Group_38870" data-name="Group 38870">
        <g id="Group_38869" data-name="Group 38869">
          <path id="Path_6159" data-name="Path 6159" d="M227.821.649l9.351,6.908a2.445,2.445,0,0,1,0,3.934L227.821,18.4a2.445,2.445,0,0,1-3.9-1.967V2.616a2.446,2.446,0,0,1,3.9-1.967Z" transform="translate(-223.922 -0.166)" stroke="#fff" stroke-width="0.5" fill="url(#linear-gradient)"/>
        </g>
      </g>
    </g>
    <g id="Group_38877" data-name="Group 38877" transform="translate(52.635 42.033)">
      <g id="Group_38876" data-name="Group 38876" transform="translate(0)">
        <g id="Group_38875" data-name="Group 38875">
          <path id="Path_6161" data-name="Path 6161" d="M178.431,372.376l-9.351-6.908a2.446,2.446,0,0,1,0-3.934l9.351-6.908a2.445,2.445,0,0,1,3.9,1.967V370.41A2.445,2.445,0,0,1,178.431,372.376Z" transform="translate(-168.088 -354.143)" stroke="#fff" stroke-width="0.5" fill="url(#linear-gradient)"/>
        </g>
      </g>
    </g>
  </g>
</svg>
