<svg xmlns="http://www.w3.org/2000/svg" xmlns:xlink="http://www.w3.org/1999/xlink" width="717.891" height="409.757" viewBox="0 0 717.891 409.757">
  <defs>
    <linearGradient id="linear-gradient" x1="0.821" y1="0.715" x2="0.434" y2="0.179" gradientUnits="objectBoundingBox">
      <stop offset="0" stop-color="#cd490f"/>
      <stop offset="1" stop-color="#fccb5c"/>
    </linearGradient>
    <linearGradient id="linear-gradient-5" x1="0.549" y1="0.096" x2="0.545" y2="0.923" gradientUnits="objectBoundingBox">
      <stop offset="0" stop-color="#fe6d2d"/>
      <stop offset="0.459" stop-color="#f75308"/>
      <stop offset="1" stop-color="#f6250a"/>
    </linearGradient>
    <clipPath id="clip-path">
      <rect id="Rectangle_198" data-name="Rectangle 198" width="206.767" height="136.523" rx="14.222" fill="none"/>
    </clipPath>
    <linearGradient id="linear-gradient-9" x1="0.5" y1="0.181" x2="0.5" y2="1" gradientUnits="objectBoundingBox">
      <stop offset="0" stop-color="#033b5c"/>
      <stop offset="0.489" stop-color="#04466d"/>
      <stop offset="1" stop-color="#086094"/>
    </linearGradient>
    <radialGradient id="radial-gradient" cx="0.109" cy="0.359" r="0.627" gradientTransform="translate(0.159) scale(0.683 1)" gradientUnits="objectBoundingBox">
      <stop offset="0" stop-color="#fff"/>
      <stop offset="1" stop-color="#fff" stop-opacity="0"/>
    </radialGradient>
    <linearGradient id="linear-gradient-10" x1="0.5" x2="0.5" y2="1" gradientUnits="objectBoundingBox">
      <stop offset="0" stop-color="#ffd71d"/>
      <stop offset="1" stop-color="#feb200"/>
    </linearGradient>
    <linearGradient id="linear-gradient-12" x1="-0.692" y1="0.5" x2="0.308" y2="0.5" gradientUnits="objectBoundingBox">
      <stop offset="0" stop-color="#343a44"/>
      <stop offset="0.301" stop-color="#232c3d"/>
      <stop offset="0.639" stop-color="#172339"/>
      <stop offset="1" stop-color="#142138"/>
    </linearGradient>
    <linearGradient id="linear-gradient-13" x1="0.15" y1="0.5" x2="1.15" y2="0.5" xlink:href="#linear-gradient-12"/>
  </defs>
  <g id="Group_38186" data-name="Group 38186" transform="translate(-99.548 -58.644)">
    <g id="Group_38185" data-name="Group 38185" transform="translate(70.247 58.644)">
      <path id="Path_5417" data-name="Path 5417" d="M147.726,312.027c-39.2,24.65-59.73,80.2-28,154.226H744.044c10.594-26.82,16.938-62.054,18.929-83.025,4.344-45.755-11.212-93.28-38.628-118.371-69.38-63.5-127.065,24.7-163.537-12.584C539.755,230.75,541.75,170.341,525.276,142.3,488.914,80.4,420.45,49.885,352.952,60.838c-44.918,7.29-85.431,31.063-110.145,71.279-33.851,55.083-9.211,94.545-24.152,132.615C202,307.175,173.913,295.559,147.726,312.027Z" transform="translate(-60.954 -58.644)" fill="#192225"/>
      <g id="Group_38157" data-name="Group 38157" transform="translate(135.779 128.216)">
        <g id="Group_38151" data-name="Group 38151" transform="translate(0)">
          <path id="Path_5418" data-name="Path 5418" d="M182.014,187.345c-.088.355,5.7-3.241,5.7-3.241l2.446-3.794s2.394-1.545,4.107-2.379,4.868-5.961,4.868-5.961l-1.247-1.566a21.422,21.422,0,0,1-2.39,2.552,3.062,3.062,0,0,1-1.8.059,32.215,32.215,0,0,1,1.381-3.869,36.053,36.053,0,0,1,3.882-5.955l-1.1-1.15a31.512,31.512,0,0,0-2.39,2.5c-.633.837-1.849,2.6-1.849,2.6a34.648,34.648,0,0,1,2.045-4.25c.782-1.155,1.631-2.72,1.631-2.72l-1.27-.882a28.66,28.66,0,0,0-2.25,3.205c-.766,1.372-2.18,3.649-2.18,3.649a45.169,45.169,0,0,1,1.609-4.5,16.057,16.057,0,0,0,.731-1.522l-1.506-.515a12.094,12.094,0,0,0-1.78,3.18,16.856,16.856,0,0,1-1.147,2.628,18.084,18.084,0,0,1,.943-3.814,3.312,3.312,0,0,0,.515-1.22l-1.22-.231s-2.345,4.317-3.575,6.994-2.194,6.293-2.889,8.252a75.663,75.663,0,0,0-1.6,8.625Z" transform="translate(-175.494 -159.287)" fill="#f5c5b3"/>
          <path id="Path_5419" data-name="Path 5419" d="M219.463,208.486l-29.677-5.111a98.929,98.929,0,0,1-.322-15.209c.524-8.883,1.612-11.356,1.612-11.356l-7.964-1.1s-1.572,6.994-2.7,12.021c-2.5,11.147-4.786,21.589-2.878,23.916,2.772,3.377,27.468,10.252,35.918,16.59C218.538,232.048,218.241,219.837,219.463,208.486Z" transform="translate(-176.826 -154.788)" fill="#fef1e1"/>
        </g>
        <path id="Path_5420" data-name="Path 5420" d="M243.647,269.62l-1.5,10.265,3.1,7.035,2.266-3.063.522-5.735,3.349.5,1.644-2.063-.143-4.3-.551-11.7Z" transform="translate(-158.931 -131.539)" fill="#fec4ad"/>
        <path id="Path_5421" data-name="Path 5421" d="M243.8,206.359c-2.287-.845-9.748-.293-9.748-.293s-.7,7.967,2.326,14.121,10.545,28.57,11.5,30.675-1.992,33.739-1.992,33.739l10.9-2.235s5.254-24.4,5.213-30.6-5.842-29.413-9.966-36.813S249.351,208.409,243.8,206.359Z" transform="translate(-161.167 -146.519)" fill="#fef1e1"/>
        <path id="Path_5422" data-name="Path 5422" d="M231.455,188.346s-2.4,10.519-.522,12.965c1.1,1.435,5.761,6.543,5.761,6.543s-15.443,8.153-19.982,8.153-2.949-9.106-2.949-9.106,4.951-3.914,5.688-5.891,1.149-7.7,1.149-7.7Z" transform="translate(-166.781 -151.326)" fill="#fec4ad"/>
        <g id="Group_38155" data-name="Group 38155" transform="translate(44.469 15.227)">
          <g id="Group_38152" data-name="Group 38152" transform="translate(21.707 18.45)">
            <path id="Path_5423" data-name="Path 5423" d="M229.075,189.456s-.176-3.831,3.033-3.733c2.049.062,2.208,1.94.612,4.363-.673,1.019-.74,3.326-1.575,4.068-1.014.9-1.863-.489-2.171-1.124C228.464,191.982,229.075,189.456,229.075,189.456Z" transform="translate(-228.771 -185.722)" fill="#f5c5b3"/>
          </g>
          <g id="Group_38153" data-name="Group 38153" transform="translate(0 18.45)">
            <path id="Path_5424" data-name="Path 5424" d="M216.453,189.456s.177-3.831-3.033-3.733c-2.049.062-2.208,1.94-.612,4.363.673,1.019.74,3.326,1.575,4.068,1.014.9,1.863-.489,2.171-1.124C217.065,191.982,216.453,189.456,216.453,189.456Z" transform="translate(-211.732 -185.722)" fill="#f5c5b3"/>
          </g>
          <path id="Path_5425" data-name="Path 5425" d="M236.662,183.343a36.406,36.406,0,0,1-.648,3.9c-.076.445-.159.953-.243,1.543-.664,4.6-1.5,10.85-1.868,11.783-.6,1.547-3.884,4.053-5.444,4.969s-5.483.73-7.043-.187-5.088-3.235-5.688-4.781c-.368-.95-1.24-7.383-1.907-12.058-.076-.533-.15-.992-.222-1.4a35.214,35.214,0,0,1-.633-3.766c-.238-3.884,4.134-9.534,11.849-9.534C233.941,173.809,236.9,179.459,236.662,183.343Z" transform="translate(-211.397 -170.535)" fill="#f5c5b3"/>
          <path id="Path_5426" data-name="Path 5426" d="M216,178.149a18.452,18.452,0,0,1,14.131.517l2.722-1.734a22.33,22.33,0,0,0-9.672-2.035C217.476,174.94,216,178.149,216,178.149Z" transform="translate(-210.563 -170.237)" fill="#e8d4e5" style="mix-blend-mode: multiply;isolation: isolate"/>
          <g id="Group_38154" data-name="Group 38154" transform="translate(2.203 15.634)">
            <path id="Path_5427" data-name="Path 5427" d="M235.875,184.582c-.075.445-.159.953-.243,1.543-.664,4.6-1.5,10.85-1.868,11.783-.6,1.547-3.884,4.052-5.444,4.969s-5.483.73-7.043-.187-5.09-3.235-5.688-4.781c-.368-.95-1.24-7.383-1.908-12.058-.076-.533-.149-.992-.22-1.4l.629-.94s1.136,6.667,2.877,8.737,2.07,2.164,2.07,2.164l3.56-.879c.1-.025.19-.048.284-.071a8.361,8.361,0,0,1,4.152.033c.075.018.149.038.225.061l.259.076,2.7.78s.628-.1,2.368-2.164,2.579-8.737,2.579-8.737Z" transform="translate(-213.461 -183.511)" fill="#7b2b1a"/>
          </g>
          <path id="Path_5428" data-name="Path 5428" d="M232.763,180.367c-.025.127-.652,4.669-.908,5.388-.395,1.1-.7,1.9-.7,1.9l-.468-1.015a15.113,15.113,0,0,1-1.38-6l-.083-3.895,1.3-1.145C233.077,175.977,233.351,177.456,232.763,180.367Z" transform="translate(-206.939 -170.045)" fill="#7b2b1a"/>
          <path id="Path_5429" data-name="Path 5429" d="M217.178,176.888l0,.018-.622,4.007a15.137,15.137,0,0,1-1.863,5.273l-.054.092-.707,1.219s-.208-.708-.5-1.715c-.214-.741-.741-4.539-.869-5.076-.041-.168-.076-.33-.107-.488-.544-2.85-.013-4.044,2.515-4.423Z" transform="translate(-211.586 -169.991)" fill="#7b2b1a"/>
          <path id="Path_5430" data-name="Path 5430" d="M234.887,176.79l-1.3,1.145-2.468.887a19.586,19.586,0,0,0-8.694-1.562c-4.946.381-5.621,1.8-5.692,1.892l0,.005-.511-.111-2.429-.531-.5-.11a15.394,15.394,0,0,1,.968-2.748c1.947-2.933,7.239-4.83,12.047-4.342.163.015.324.033.483.056,4.492.591,6.552,2.708,6.552,2.708Z" transform="translate(-211.303 -171.239)" fill="#7b2b1a"/>
        </g>
        <path id="Path_5431" data-name="Path 5431" d="M243.675,371.488v9.633H225.163s.7-3.487,9.475-5.1l1.292-4.537Z" transform="translate(-163.583 -101.15)" fill="#133a50"/>
        <path id="Path_5432" data-name="Path 5432" d="M221.574,371.488v9.633H203.062s.7-3.487,9.475-5.1l1.291-4.537Z" transform="translate(-169.638 -101.15)" fill="#133a50"/>
        <path id="Path_5433" data-name="Path 5433" d="M244.583,258.934s2.591,31.028,2.682,56.329,1.6,89.267,1.6,89.267H238.645s-10.534-61.435-14.365-77.7-13.787-67.589-13.787-67.589Z" transform="translate(-167.603 -131.987)" fill="#133a50"/>
        <path id="Path_5434" data-name="Path 5434" d="M225.053,292.227s-1.915,38.552-2.3,46.142,0,66.1,0,66.1-9.574.257-9.574,0-9.027-62.3-10.2-81.008-.484-40.877-2.037-43.464,4.191-20.962,4.191-20.962l13.553,3.614Z" transform="translate(-170.291 -131.96)" fill="#133a50"/>
        <path id="Path_5435" data-name="Path 5435" d="M220.1,200.3s-4.247,9.629,2.143,10.692c10.156,1.691,13.249-11.3,13.249-11.3l11.2,5.766s-.205,69.71,4.2,90.991c2.554,12.356-39.971,6.467-46.209-4.5-5.4-9.492,10.2-88.373,10.2-88.373Z" transform="translate(-169.507 -148.218)" fill="#b3b3b3"/>
        <path id="Path_5436" data-name="Path 5436" d="M233.114,200.635c-.308.427-15.326,44.39-10.217,85.764,1.191,9.649,18.783,1.666,22.98,1.666,0,0,2-30.88,2.484-42.363s-4.985-15.258-4.5-20.878,6.6-15.637,6.6-15.637Z" transform="translate(-164.494 -147.959)" fill="#fef1e1"/>
        <g id="Group_38156" data-name="Group 38156" transform="translate(29.774 53.095)">
          <path id="Path_5437" data-name="Path 5437" d="M213.934,290.69c1.717-28.764,2.421-88.972,2.421-88.972l-10.148-.754s-5.077,50.5-5.151,56.239c-.031,2.282.683,30.013-.859,35.2C203.62,292.921,213.728,294.155,213.934,290.69Z" transform="translate(-200.197 -200.964)" fill="#fef1e1"/>
        </g>
      </g>
      <path id="Path_5438" data-name="Path 5438" d="M304.423,188.343c-7.967,2.733-16.158,5.591-22.484,11.152s-10.4,14.556-7.738,22.547,13.77,12.642,20.19,7.19c2.307-1.958,3.731-5.321,2.493-8.082-2.45-5.459-10.982-2.9-14.982,1.552-4.744,5.278-7.761,12.5-6.586,19.5S282.6,255.486,289.7,255.48s17.21-10.713,11.135-14.382c-7.714-4.659-17.629,6.436-21.423,14.611s-1.424,19.243,6.33,23.836,25.948-1.215,21.182-8.864c-5.037-8.085-19.921,3.572-21.9,12.89S290.34,303.1,299.8,304.248s25.837-9.62,19.292-16.54c-9.459-10-25.227,15.462-20.675,28.453s23.361,18.159,33.913,9.322c1.976-1.656,3.759-4.022,3.393-6.575-.61-4.251-6.43-5.449-10.5-4.087-10.629,3.551-15.429,18.424-8.882,27.518s22.177,9.26,28.915.307c1.313-1.744,2.334-3.935,1.856-6.067-.666-2.975-4.191-4.655-7.188-4.092s-5.417,2.821-7.124,5.348c-6.063,8.981-4.017,22.475,4.437,29.254s22.07,5.848,29.52-2.022c1.942-2.051,3.548-4.794,3.033-7.571-.594-3.212-4.021-5.363-7.286-5.286s-6.259,1.949-8.523,4.3c-9.515,9.881-5.449,29,7.264,34.159s37.927-9.04,29-19.456c-5.961-6.957-17.722,8.09-16.218,17.127s11.9,15.2,20.759,12.867,20.529-15.037,13.684-21.124c-4.844-4.309-12.681,4.8-14.177,11.108a14.888,14.888,0,0,0,7.678,16.292c6.263,3.08,13.931,1.226,19.954-2.3s11.02-8.559,16.82-12.44a52.623,52.623,0,0,1,40.193-7.532" transform="translate(-14.596 -23.111)" fill="none" stroke="#fff" stroke-miterlimit="10" stroke-width="2"/>
      <g id="Group_38162" data-name="Group 38162" transform="translate(497.776 206.25)">
        <path id="Path_5439" data-name="Path 5439" d="M639.937,221.031C627.033,212.794,512,309.765,516.22,386.377c0,0,22.393-30.24,41.911-44.979s21.423-30.166,21.385-45.445,29.152-8.969,32.44-25.916C617.774,240.047,651.55,228.444,639.937,221.031Z" transform="translate(-445.869 -220.539)" fill="url(#linear-gradient)"/>
        <g id="Group_38159" data-name="Group 38159" transform="translate(66.979 19.157)">
          <g id="Group_38158" data-name="Group 38158" transform="translate(2.257)">
            <path id="Path_5440" data-name="Path 5440" d="M647.71,288.288c-18.583,11.257-13.113,26.26-24.07,35.025-7.967,6.375-21.265,3.038-27.894,11.718-7.471,9.783,1.024,23.245,1.652,35.034.868,16.284-13.656,28.494-28.416,33.44-17.138,5.743-39.319,3.947-48.7-13.094-11.073-20.113-2.784-50.438,16.643-59.886,4.719-2.294,10.712-2.917,14.567-7.562,6.507-7.841,2.33-19.12,5.344-29.092,2.937-9.719,12.547-16.557,21.4-19.586s17.871-3.644,26.523-7.157c11.782-4.785,22.1-15.3,31.909-22.393,8.751-6.327,39.473-18.2,44.469,2.548C685.692,266.184,663.32,278.833,647.71,288.288Z" transform="translate(-515.32 -235.577)" fill="#fef1e1"/>
          </g>
          <path id="Path_5441" data-name="Path 5441" d="M650.111,253.219s-75.958,38.172-136.562,161.342" transform="translate(-513.549 -230.743)" fill="none" stroke="#194459" stroke-miterlimit="10" stroke-width="1"/>
        </g>
        <path id="Path_5442" data-name="Path 5442" d="M695.206,298.379s-97.668-1.093-178.824,92" transform="translate(-445.794 -199.214)" fill="none" stroke="#fff" stroke-miterlimit="10" stroke-width="1"/>
        <g id="Group_38161" data-name="Group 38161" transform="translate(74.332 117.877)">
          <g id="Group_38160" data-name="Group 38160" transform="translate(15.067)">
            <path id="Path_5443" data-name="Path 5443" d="M642.727,337.906c-9.308,3.724-11.833,19.417-21.856,21.409-7.291,1.449-15.072-5.008-22.2-1.657-8.03,3.775-6.616,15.1-9.9,22.786-4.533,10.625-18.006,13.64-29.357,11.966-13.179-1.943-27.341-10.319-28.221-24.2-1.038-16.385,13.981-32.937,29.843-32.6,3.851.082,8.026,1.642,12.042-.051,6.781-2.856,7.548-11.382,12.679-16.731,5-5.214,13.526-6.422,20.354-5.456s13.007,3.515,19.854,4.106c9.323.805,19.473-2.507,28.21-3.81,7.8-1.163,39.636-.549,28.723,16.125C675.345,341.335,655.132,332.941,642.727,337.906Z" transform="translate(-531.148 -313.066)" fill="url(#linear-gradient)"/>
          </g>
          <path id="Path_5444" data-name="Path 5444" d="M666.051,320.494s-67.844,5.775-146.73,64.222" transform="translate(-519.321 -311.031)" fill="none" stroke="#194459" stroke-miterlimit="10" stroke-width="1"/>
        </g>
        <path id="Path_5445" data-name="Path 5445" d="M460.974,388.98s15.438-27.029,17.955-29.815c15.88-17.578,36.946-17.772,58.392-13.333,6.206,1.285,22.633,9.915,28.594,8.723,4.644-.93,10.216-18.576,25.077-17.647s15.755,18.576,15.755,18.576,9.32-20.5,24.181-18.611,14.861,15.734,3.715,26c0,0,23.684-7.1,46.671,3.9s12.007,25.44,12.007,25.44Z" transform="translate(-460.974 -188.701)" fill="#fef1e1"/>
      </g>
      <g id="Group_38167" data-name="Group 38167" transform="translate(29.307 206.25)">
        <path id="Path_5446" data-name="Path 5446" d="M137.212,221.031c12.9-8.236,127.932,88.735,123.717,165.346,0,0-22.394-30.24-41.911-44.979s-21.423-30.166-21.385-45.445-29.152-8.969-32.44-25.916C159.375,240.047,125.6,228.444,137.212,221.031Z" transform="translate(-81.868 -220.539)" fill="url(#linear-gradient)"/>
        <g id="Group_38164" data-name="Group 38164" transform="translate(13.758 19.157)">
          <g id="Group_38163" data-name="Group 38163">
            <path id="Path_5447" data-name="Path 5447" d="M138.079,288.288c18.583,11.257,13.113,26.26,24.07,35.025,7.967,6.375,21.265,3.038,27.894,11.718,7.471,9.783-1.024,23.245-1.652,35.034-.868,16.284,13.656,28.494,28.416,33.44,17.137,5.743,39.319,3.947,48.7-13.094,11.073-20.113,2.784-50.438-16.643-59.886-4.719-2.294-10.712-2.917-14.567-7.562-6.507-7.841-2.33-19.12-5.344-29.092-2.936-9.719-12.547-16.557-21.4-19.586s-17.871-3.644-26.523-7.157c-11.782-4.785-22.1-15.3-31.909-22.393-8.751-6.327-39.473-18.2-44.469,2.548C100.1,266.184,122.469,278.833,138.079,288.288Z" transform="translate(-104.05 -235.577)" fill="#fef1e1"/>
          </g>
          <path id="Path_5448" data-name="Path 5448" d="M129.257,253.219s75.958,38.172,136.562,161.342" transform="translate(-97.144 -230.743)" fill="none" stroke="#194459" stroke-miterlimit="10" stroke-width="1"/>
        </g>
        <path id="Path_5449" data-name="Path 5449" d="M93.251,298.379s97.668-1.093,178.824,92" transform="translate(-93.251 -199.214)" fill="none" stroke="#fff" stroke-miterlimit="10" stroke-width="1"/>
        <g id="Group_38166" data-name="Group 38166" transform="translate(6.004 117.877)">
          <g id="Group_38165" data-name="Group 38165">
            <path id="Path_5450" data-name="Path 5450" d="M140.392,337.906c9.308,3.724,11.833,19.417,21.856,21.409,7.291,1.449,15.072-5.008,22.2-1.657,8.03,3.775,6.616,15.1,9.9,22.786,4.534,10.625,18.008,13.64,29.359,11.966,13.179-1.943,27.341-10.319,28.221-24.2,1.038-16.385-13.981-32.937-29.843-32.6-3.851.082-8.026,1.642-12.042-.051-6.783-2.856-7.548-11.382-12.679-16.731-5-5.214-13.526-6.422-20.354-5.456S164,316.885,157.15,317.476c-9.323.805-19.473-2.507-28.21-3.81-7.8-1.163-39.636-.549-28.723,16.125C107.775,341.335,127.988,332.941,140.392,337.906Z" transform="translate(-97.964 -313.066)" fill="url(#linear-gradient)"/>
          </g>
          <path id="Path_5451" data-name="Path 5451" d="M115.5,320.494s67.844,5.775,146.73,64.222" transform="translate(-93.158 -311.031)" fill="none" stroke="#194459" stroke-miterlimit="10" stroke-width="1"/>
        </g>
        <path id="Path_5452" data-name="Path 5452" d="M339.557,388.98s-15.439-27.029-17.957-29.815c-15.879-17.578-36.945-17.772-58.391-13.333-6.206,1.285-22.633,9.915-28.594,8.723-4.644-.93-10.216-18.576-25.077-17.647s-15.755,18.576-15.755,18.576-9.322-20.5-24.181-18.611-14.861,15.734-3.715,26c0,0-23.684-7.1-46.671,3.9s-12.007,25.44-12.007,25.44Z" transform="translate(-90.145 -188.701)" fill="#fef1e1"/>
      </g>
      <g id="Group_38174" data-name="Group 38174" transform="translate(398.05 240.891)">
        <g id="Group_38168" data-name="Group 38168" transform="translate(16.367 144.349)">
          <path id="Path_5453" data-name="Path 5453" d="M426.22,384.681H402.195a5.1,5.1,0,0,1-5.079-4.675l-1.573-18.968h37.331L431.3,380.005A5.1,5.1,0,0,1,426.22,384.681Z" transform="translate(-395.542 -361.037)" fill="#21295b"/>
          <path id="Path_5454" data-name="Path 5454" d="M537.572,384.681H513.548a5.1,5.1,0,0,1-5.079-4.675l-1.575-18.968h37.331l-1.573,18.968A5.1,5.1,0,0,1,537.572,384.681Z" transform="translate(-365.035 -361.037)" fill="#21295b"/>
        </g>
        <path id="Path_5455" data-name="Path 5455" d="M571.709,363.446H397.5l12.318-89.812a14.152,14.152,0,0,1,14.02-12.228H545.371a14.149,14.149,0,0,1,14.019,12.228Z" transform="translate(-378.64 -243.984)" fill="url(#linear-gradient-5)"/>
        <path id="Path_5456" data-name="Path 5456" d="M543.142,349.771H415.951l9.035-90.227a13.121,13.121,0,0,1,13.056-11.813h83.009a13.121,13.121,0,0,1,13.054,11.813Z" transform="translate(-373.584 -247.731)" fill="url(#linear-gradient-5)"/>
        <path id="Path_5457" data-name="Path 5457" d="M400.292,325.5l-2.8,20.389H571.709l-2.8-20.389Z" transform="translate(-378.64 -226.425)" fill="#cfcfcf" style="mix-blend-mode: multiply;isolation: isolate"/>
        <path id="Path_5458" data-name="Path 5458" d="M594.62,378.753H382.695l3.923-46.042H590.7Z" transform="translate(-382.695 -224.449)" fill="url(#linear-gradient-5)"/>
        <g id="Group_38173" data-name="Group 38173" transform="translate(52.314 2.497)">
          <circle id="Ellipse_89" data-name="Ellipse 89" cx="38.773" cy="38.773" r="38.773" transform="translate(0 42.309) rotate(-33.065)" fill="#cfcfcf" style="mix-blend-mode: multiply;isolation: isolate"/>
          <circle id="Ellipse_90" data-name="Ellipse 90" cx="33.525" cy="33.525" r="33.525" transform="translate(19.348 20.916) rotate(-1.34)" fill="#fff"/>
          <g id="Group_38172" data-name="Group 38172" transform="translate(24.489 24.494)">
            <g id="Group_38169" data-name="Group 38169" transform="translate(34.165 48.025)">
              <path id="Path_5459" data-name="Path 5459" d="M474.164,315.316a4.379,4.379,0,0,1-3.084-1.269,3.532,3.532,0,0,1-.535-.671,4.293,4.293,0,0,1-.41-.747,6.094,6.094,0,0,1-.248-.808,5.032,5.032,0,0,1-.087-.859,4.366,4.366,0,0,1,5.209-4.265,4.675,4.675,0,0,1,.809.25,4.868,4.868,0,0,1,.759.4,4.546,4.546,0,0,1,.657.548,4.376,4.376,0,0,1,1.282,3.07,5.034,5.034,0,0,1-.088.859,5.913,5.913,0,0,1-.247.808,5.429,5.429,0,0,1-.4.747,4.116,4.116,0,0,1-.548.671,4.547,4.547,0,0,1-.657.535,3.42,3.42,0,0,1-.759.4,3.854,3.854,0,0,1-.809.25A4.051,4.051,0,0,1,474.164,315.316Z" transform="translate(-469.799 -306.616)" fill="#b3b3b3"/>
            </g>
            <g id="Group_38170" data-name="Group 38170">
              <path id="Path_5460" data-name="Path 5460" d="M468.018,327.173h0a4.352,4.352,0,0,1-3.693-4.924h0a4.353,4.353,0,0,1,4.924-3.693h0a4.367,4.367,0,0,1,3.695,4.925h0a4.359,4.359,0,0,1-4.316,3.742h0A3.374,3.374,0,0,1,468.018,327.173Zm-13.989-5.943h0a4.366,4.366,0,0,1-.747-6.119h0a4.351,4.351,0,0,1,6.106-.745h0a4.351,4.351,0,0,1,.747,6.1h0a4.327,4.327,0,0,1-3.433,1.679h0A4.33,4.33,0,0,1,454.029,321.23Zm-9.14-12.163a4.337,4.337,0,0,1,2.4-5.658h0a4.356,4.356,0,0,1,5.67,2.4h0a4.373,4.373,0,0,1-2.413,5.67h0a4.4,4.4,0,0,1-1.629.311h0A4.32,4.32,0,0,1,444.889,309.067ZM446.73,298.9a4.36,4.36,0,0,1-3.706-4.924h0a4.355,4.355,0,0,1,4.924-3.693h0a4.355,4.355,0,0,1,3.706,4.911h0a4.359,4.359,0,0,1-4.315,3.743h0A4.887,4.887,0,0,1,446.73,298.9Zm3-12.809a4.352,4.352,0,0,1-.759-6.1h0a4.343,4.343,0,0,1,6.106-.759h0a4.342,4.342,0,0,1,.758,6.106h0a4.324,4.324,0,0,1-3.432,1.679h0A4.331,4.331,0,0,1,449.727,286.087Zm35.141-4.328a4.342,4.342,0,0,1-.759-6.1h0a4.354,4.354,0,0,1,6.106-.771h0a4.367,4.367,0,0,1,.759,6.118h0a4.367,4.367,0,0,1-3.433,1.679h0A4.378,4.378,0,0,1,484.868,281.76Zm-26.151-5.272a4.337,4.337,0,0,1,2.4-5.658h0a4.355,4.355,0,0,1,5.672,2.4h0a4.361,4.361,0,0,1-2.413,5.67h0a4.359,4.359,0,0,1-1.628.311h0A4.337,4.337,0,0,1,458.717,276.488Zm16.278,1.094a4.352,4.352,0,0,1-3.693-4.924h0a4.34,4.34,0,0,1,4.912-3.694h0a4.341,4.341,0,0,1,3.7,4.912h0a4.356,4.356,0,0,1-4.3,3.743h0A5.081,5.081,0,0,1,474.995,277.582Z" transform="translate(-442.981 -268.918)" fill="#b3b3b3"/>
            </g>
            <g id="Group_38171" data-name="Group 38171" transform="translate(48.03 15.444)">
              <path id="Path_5461" data-name="Path 5461" d="M485.034,289.742a4.747,4.747,0,0,1-.845-.087,4.481,4.481,0,0,1-.822-.248,5.226,5.226,0,0,1-.745-.4,4.745,4.745,0,0,1-.671-.547,4.369,4.369,0,0,1-1.269-3.072,4.091,4.091,0,0,1,.087-.859,3.79,3.79,0,0,1,.25-.808,4.292,4.292,0,0,1,.4-.758,4.485,4.485,0,0,1,.535-.66,5.042,5.042,0,0,1,1.417-.945,4.453,4.453,0,0,1,.822-.236,4.377,4.377,0,0,1,3.916,1.181,3.86,3.86,0,0,1,.547.66,4.394,4.394,0,0,1,.4.758,3.864,3.864,0,0,1,.25.808,4.09,4.09,0,0,1,.085.859,4.372,4.372,0,0,1-4.352,4.352Z" transform="translate(-480.682 -281.041)" fill="#b3b3b3"/>
            </g>
          </g>
        </g>
      </g>
      <g id="Group_38175" data-name="Group 38175" transform="translate(273.651 92.751)">
        <path id="Path_5462" data-name="Path 5462" d="M426.9,185.13a18.6,18.6,0,0,1,3.734-19.448s31.528,20.428,66.768,14.665c0,0,3.864,10.627-6.969,20.47C490.434,200.817,452.713,207.969,426.9,185.13Z" transform="translate(-246.532 -122.07)" fill="#d6313b"/>
        <path id="Path_5463" data-name="Path 5463" d="M519.387,149.287c-22.687-19.131-65.664-21.821-120.064-13.062-46.776,7.53-94.418,25.2-110.32,50.155-7.243,11.366-2.324,42.934-2.324,42.934,43.091,2.692,58.874-34.354,58.874-34.354s-2.882-10.512,6.772-15.156c33.781-16.256,86.155-21.809,105.638-17.009a14.433,14.433,0,0,1,11.187,12.266s26.615,30.22,66.682,14.139C535.833,189.2,529.69,157.976,519.387,149.287Z" transform="translate(-285.048 -131.449)" fill="url(#linear-gradient-5)"/>
        <path id="Path_5464" data-name="Path 5464" d="M354.171,198.312a18.6,18.6,0,0,0-9.65-17.293S321,210.31,285.731,215.9c0,0-.334,11.3,13.042,17.247C298.773,233.146,336.831,228.1,354.171,198.312Z" transform="translate(-284.861 -117.868)" fill="#d6313b"/>
      </g>
      <g id="Group_38177" data-name="Group 38177" transform="translate(145.688 272.149)">
        <g id="Group_38176" data-name="Group 38176" clip-path="url(#clip-path)">
          <rect id="Rectangle_197" data-name="Rectangle 197" width="206.767" height="136.523" rx="14.222" fill="url(#linear-gradient-9)"/>
          <path id="Path_5465" data-name="Path 5465" d="M391.371,290.385a18.12,18.12,0,0,0-18.12-18.118H202.722A18.119,18.119,0,0,0,184.6,290.385l93.759,76.009a15.109,15.109,0,0,0,19.017.01Z" transform="translate(-184.604 -272.267)" fill="#ffd71d" style="mix-blend-mode: multiply;isolation: isolate"/>
          <path id="Path_5466" data-name="Path 5466" d="M196.672,394.7V294.415A18.118,18.118,0,0,1,214.791,276.3H384.514a17.947,17.947,0,0,0-11.263-4.03H202.722A18.118,18.118,0,0,0,184.6,290.385V390.671a18.118,18.118,0,0,0,18.118,18.118h.805A18.008,18.008,0,0,1,196.672,394.7Z" transform="translate(-184.604 -272.267)" opacity="0.7" fill="url(#radial-gradient)" style="mix-blend-mode: overlay;isolation: isolate"/>
          <path id="Path_5467" data-name="Path 5467" d="M276.561,353.181,184.6,272.267H391.371l-91.957,80.914A17.3,17.3,0,0,1,276.561,353.181Z" transform="translate(-184.604 -272.267)" fill="url(#linear-gradient-10)"/>
          <path id="Path_5468" data-name="Path 5468" d="M276.561,353.181,184.6,272.267H391.371l-91.957,80.914A17.3,17.3,0,0,1,276.561,353.181Z" transform="translate(-184.604 -272.267)" fill="url(#linear-gradient-9)"/>
        </g>
      </g>
      <g id="Group_38180" data-name="Group 38180" transform="translate(353.044 115.62)">
        <g id="Group_38178" data-name="Group 38178" transform="translate(43.497)">
          <path id="Path_5469" data-name="Path 5469" d="M397.681,223.341s5.885-16.982,6.3-18.851c2.438-11.035,3.1-34.959,2.948-40.047s-.627-9.553-.726-10.239-3.258-4.083-3.269-4.035a6.9,6.9,0,0,1-.981.1l-.037.638-1.364-1.175-1.136-.064-.121.533-1.622-.778-1.563-.028s1.009,3.23,1.584,5.193-.026,2.126-.026,2.126a4.28,4.28,0,0,1-1.752.325,12.2,12.2,0,0,0-2.221-.1s4.752,6.181,4.97,6.755a11.188,11.188,0,0,1,1.912,8.942c-1.814,9.95-6.769,24.725-6.769,24.725.148-.347-6.394,18.329-6.394,18.329Z" transform="translate(-379.893 -149.4)" fill="#fec4ad"/>
          <path id="Path_5470" data-name="Path 5470" d="M396.136,233.078c1.822-14.293,9.136-30.983,9.136-30.983s-11.177-2.213-14.065-6.188c0,0-3.851,9.407-6.068,14.085-2.451,5.179-5.89,10.816-1.568,13.891C387.742,226.852,395.5,238.056,396.136,233.078Z" transform="translate(-381.51 -136.658)" fill="#fef1e1"/>
        </g>
        <path id="Path_5471" data-name="Path 5471" d="M359.364,372.337v9.188h17.659s-.664-3.325-9.038-4.86l-1.232-4.328Z" transform="translate(-344.081 -88.322)" fill="#133a50"/>
        <path id="Path_5472" data-name="Path 5472" d="M380.446,372.337v9.188h17.66s-.664-3.325-9.039-4.86l-1.231-4.328Z" transform="translate(-338.305 -88.322)" fill="#133a50"/>
        <path id="Path_5473" data-name="Path 5473" d="M362.571,264.971s-2.471,25.676-2.558,49.811-1.524,89.074-1.524,89.074h9.747s10.049-62.524,13.7-78.04,13.151-60.554,13.151-60.554Z" transform="translate(-344.321 -117.737)" fill="#133a50"/>
        <path id="Path_5474" data-name="Path 5474" d="M375.285,198.129s-.631,4.912-1.148,7.413a20.011,20.011,0,0,1-1.33,4.58c-.845,1.693-6.03,6.848-6.03,6.848s16.16,8.532,20.911,8.532,3.086-9.529,3.086-9.529-5.181-4.095-5.952-6.163-1.2-8.06-1.2-8.06Z" transform="translate(-342.05 -136.05)" fill="#fec4ad"/>
        <path id="Path_5475" data-name="Path 5475" d="M378.33,292.91s1.826,40.694,2.191,47.936,0,63.05,0,63.05,9.133.247,9.133,0,8.611-63.353,9.727-81.194.462-38.994,1.944-41.46-4-16.076-4-16.076l-12.927-.473Z" transform="translate(-338.885 -117.813)" fill="#133a50"/>
        <path id="Path_5476" data-name="Path 5476" d="M372.951,209.74s-13.643-5.476-15.9-.981c-1.7,3.4-.238,25.227.52,31.328.66,5.306,4.333,49.949,4.333,49.949s5.1,7.9,29.641,4.756c9.464-1.214,14.117-5.826,14.117-5.826s-2.654-53.269-3.384-58.613a115.309,115.309,0,0,0-3.256-13.685l-7.306-4.811s2.329,5.143-4.263,6.608C374.166,221.417,372.951,209.74,372.951,209.74Z" transform="translate(-344.932 -133.623)" fill="#fef1e1"/>
        <path id="Path_5477" data-name="Path 5477" d="M387.439,183.55c1.547.62,4.251,2.015,4.553,3.306a51.285,51.285,0,0,1,1.542,7.3c.143,2.268.467,6.556.465,9.229s-1.618,8.08-2.227,8.652-5.1,1.5-6.616,1.068-10.424-5.04-10.982-10.68c0,0-1.58.831-4.482-3.875-.758-1.227,1.855-10.345,2.205-11.969.852-3.949,10.592-.838,12.777-1.461A4.742,4.742,0,0,0,387.439,183.55Z" transform="translate(-341.289 -140.044)" fill="#fec4ad"/>
        <path id="Path_5478" data-name="Path 5478" d="M392.994,187.819s-6.823,4.272-9.485,4.492-6.571,3.878-6.5,5.013a2.465,2.465,0,0,1-1.122,1.913s-1.657-2.64-3.014-2.364c-2.689.544-1.11,3.86.35,4.589a22.546,22.546,0,0,0,2.878,1.178,13.919,13.919,0,0,1,.127,2.843,13.049,13.049,0,0,1-1.138,3.331s-3.149-6.631-5.974-9.105c-6.713-5.883-1.854-16.815,4.761-18.869,2.67-.829,10-1.38,13.574.22A9.725,9.725,0,0,1,392.994,187.819Z" transform="translate(-342.291 -141.007)" fill="#133a50"/>
        <path id="Path_5479" data-name="Path 5479" d="M376.976,194.4c.1.268.8.316.927.373.279.122.158.164,1.386,2.045.907,1.386,2.426,1.835,5.264.885,2.167-.725,1.865-2.587,2.018-3.475s.341-1.037.687-1.1.534.022.98.8.654,2.8,2.917,2.46c1.561-.234,1.972-.665,2.184-1.9a12.854,12.854,0,0,0,.178-2.99c-.061-.818-.079-1.316-.494-1.359a7.6,7.6,0,0,0-1.859.2,7.5,7.5,0,0,0-3.055.795c-.733.53-.652.855-1.037.927s-.461-.262-1.33-.512-4.469.382-5.819.619-3.205.744-3.168,1.255A3.822,3.822,0,0,0,376.976,194.4Zm11.671-2.012c.069-.662.12-.59,1.79-.971s1.845-.308,2.181-.042a3.558,3.558,0,0,1,.414,2.694A1.846,1.846,0,0,1,391.421,196c-1.47.259-1.813-.47-2.229-1.489A6.34,6.34,0,0,1,388.647,192.385Zm-9.729,1.087c.225-.364,2.487-.673,4.186-.882s2.266-.28,2.557.318a6.3,6.3,0,0,1,.213,2.185c-.043,1.1-.259,2.063-2.908,2.54-1.87.338-2.776-.182-3.547-1.58A3.1,3.1,0,0,1,378.918,193.471Zm-5.672,1.688,3.73-.763,1.26-1.841s-1.432.2-3.8.73a7.259,7.259,0,0,0-2.246,1.059A3.664,3.664,0,0,1,373.246,195.159Z" transform="translate(-340.567 -138.241)" fill="#21295b"/>
        <g id="Group_38179" data-name="Group 38179" transform="translate(0 13.304)">
          <path id="Path_5480" data-name="Path 5480" d="M350.631,222.041s-3.228-20.449-3.259-22.362c-.185-11.3,5.543-26.482,6.71-31.437s1.943-4.171,2.177-4.822,8.441-1.907,8.441-1.907a21.884,21.884,0,0,1,2.721-.972c.516-.051,2.682-.7,2.682-.7l-1.26,2.264s-5.116,3.892-5.445,4.409a11.186,11.186,0,0,0-3.659,8.381c-.21,10.11-.178,21.064-.178,21.064-.075-.369,4.841,20.939,4.841,20.939Z" transform="translate(-347.368 -159.843)" fill="#fec4ad"/>
          <path id="Path_5481" data-name="Path 5481" d="M359.743,242.2c-3.473-9.855-11.416-36.322-11.416-36.322s11.811-2.973,15.142-6.584c0,0,3.985,11.834,5.641,16.74,1.832,5.428,4.59,11.429-.06,13.979C364.561,232.472,361.411,246.929,359.743,242.2Z" transform="translate(-347.105 -149.036)" fill="#fef1e1"/>
        </g>
      </g>
      <g id="Group_38184" data-name="Group 38184" transform="translate(511.473 124.755)">
        <g id="Group_38181" data-name="Group 38181" transform="translate(7.839 87.929)">
          <path id="Path_5482" data-name="Path 5482" d="M544.262,246.932c3.066,2.854,5.235,1.9,9.839,17.66,2.942,10.071,13.671,60.859,13.671,60.859l-6.409,2.781c-8.667-24.277-8.655-24.253-18.782-43.957a87.623,87.623,0,0,1-6.964-18.971L516.9,264.18c-11.7-4.809-7.692-21.892-7.692-21.892S541.194,244.078,544.262,246.932Z" transform="translate(-469.479 -221.015)" fill="url(#linear-gradient-12)"/>
          <path id="Path_5483" data-name="Path 5483" d="M481.749,236.407l16.89-10.817,16.34,12.693,20.352,6.574-.11.062c8.185,2.84,17.532,6.983,20.4,9.652,3.066,2.854,9.11,6.9,4.236,22.585-3.114,10.018-16.688,60.77-16.688,60.77l-6.879-1.224s2.443-29.407,4.892-51.406c1.186-10.664,1.589-13.639,1.589-13.639s-45.441,4.954-60.082-2.777C472.444,263.465,481.749,244.607,481.749,236.407Z" transform="translate(-477.879 -225.59)" fill="url(#linear-gradient-13)"/>
          <path id="Path_5484" data-name="Path 5484" d="M531.4,310.881s-.2,1.847-3.16,2.68a5.036,5.036,0,0,1-4.974-1.612l-.656,6.035,9.452,6.663h7.852l-4.247-4.714Z" transform="translate(-465.625 -202.223)" fill="#133a50"/>
          <path id="Path_5485" data-name="Path 5485" d="M555.614,304.318a3.244,3.244,0,0,1-1.172,4.282,5.034,5.034,0,0,1-5.228-.02l1.213,5.947,22.32-6.981Z" transform="translate(-458.336 -204.021)" fill="#133a50"/>
        </g>
        <g id="Group_38183" data-name="Group 38183">
          <path id="Path_5486" data-name="Path 5486" d="M536.1,192.21c-.036.321-3.719-4.426-3.719-4.426l-.857-3.886s-1.5-2.01-2.665-3.224-2.194-6.418-2.194-6.418l1.511-.911a18.879,18.879,0,0,0,1.192,2.841,2.7,2.7,0,0,0,1.465.6,28.33,28.33,0,0,0,.046-3.621,31.693,31.693,0,0,0-1.381-6.11l1.26-.614a27.725,27.725,0,0,1,1.208,2.8c.266.887.731,2.712.731,2.712a30.566,30.566,0,0,0-.386-4.139c-.293-1.195-.513-2.748-.513-2.748l1.32-.339a25.3,25.3,0,0,1,.876,3.339c.211,1.368.682,3.683.682,3.683a40.034,40.034,0,0,0,.051-4.212,13.743,13.743,0,0,1-.138-1.482l1.4.036a10.676,10.676,0,0,1,.5,3.173,14.782,14.782,0,0,0,.141,2.522,15.935,15.935,0,0,0,.391-3.44,2.927,2.927,0,0,1-.052-1.167l1.08.183s.613,4.287.809,6.876-.118,5.873-.143,7.7-.07,3.261-.07,3.261Z" transform="translate(-456.675 -154.335)" fill="#fec4ad"/>
          <path id="Path_5487" data-name="Path 5487" d="M513.946,192.825a170.041,170.041,0,0,0,17.42,12.444s3.241-8.128,4.785-13.886c1.845-6.876,2.386-10.044,2.386-10.044l6.571-.538s-2.082,17.585-4.668,29.513c-2.514,11.6-5.673,9.523-8.452,8.955s-28.932-14.621-28.932-14.621l2.8-14.934S507.717,187.71,513.946,192.825Z" transform="translate(-463.142 -149.931)" fill="#fec4ad"/>
          <path id="Path_5488" data-name="Path 5488" d="M489.911,157.234c1.4-.8,8.152-1.353,12.382,1.252,8.09,4.981,4.207,18.629,3.7,21.772s2.4,8.807,2.348,12.561-.943,5.114-3.745,8.748a6.959,6.959,0,0,0-1.045,2.9,26.788,26.788,0,0,1-3.765-11.092c-.662-6.458-2.034-4.952-5.264-12.044s-3.372-17.772-3.372-17.772Z" transform="translate(-466.744 -156.57)" fill="#471a16"/>
          <path id="Path_5489" data-name="Path 5489" d="M500.277,161.727l-6.728-4.627a9.837,9.837,0,0,0-9.085,4.344c-3.336,5.112-4.5,12.515-5.25,18.078s-2.71,16.018-2.576,20.166,5.174,4.714,5.174,4.714l16.9-7.313a50.167,50.167,0,0,1-.157-18.359A91.1,91.1,0,0,0,500.277,161.727Z" transform="translate(-470.382 -156.436)" fill="#471a16"/>
          <path id="Path_5490" data-name="Path 5490" d="M503.384,162.428c.352,2.1,1.981,8.282,2.144,12.245s-.31,10.492-2.934,12.3-7.555.363-11.162-1.13-4.479-4.023-5.184-6.349-.456-8.5.368-12.931,3.635-6.209,6.891-6.821S503.384,162.428,503.384,162.428Z" transform="translate(-467.86 -155.723)" fill="#fec4ad"/>
          <path id="Path_5491" data-name="Path 5491" d="M489.839,173.409s.922,9.85-1.149,14.486c-1.429,3.2-7.221,4.556-7.221,4.556a32.658,32.658,0,0,0,5.594,17.414c5.812,8.553,23.986,11.718,23.986,11.718a79.3,79.3,0,0,0,5.426-15.142c1.875-8-3.2-14.186-3.2-14.186s-4.914-1.608-7.272-2.5c-5.727-2.157-5.056-11.259-5.056-11.259Z" transform="translate(-469.057 -151.957)" fill="#fec4ad"/>
          <path id="Path_5492" data-name="Path 5492" d="M502.927,192.586s-11.75-2.985-15.28-5.277L476,194.234s-6.845,6.533,4.836,23.7c0,0,4.433,15.637-2.763,43.186,0,0,1.945,7.1,12.859,3.317,9.394-3.251,9.606-5.793,17.836-7.881,12.151-3.082,15.348-4.977,15.348-4.977-6.383-9.59-5.248-24.57-5.248-24.57s7.236-6.927,4.134-14c-4.477-10.219-5.977-24.678-5.977-24.678l-6.236-1.581a47,47,0,0,1-4.982,5.306A2.669,2.669,0,0,1,502.927,192.586Z" transform="translate(-471.102 -148.303)" fill="#fef1e1"/>
          <path id="Path_5493" data-name="Path 5493" d="M501.827,186.243s-1.431,5.324-5.12,6.481c0,0,1.443,7.293,4.9,6.026,4.849-1.778,2.959-11.866,2.959-11.866Z" transform="translate(-464.882 -148.44)" fill="#fff"/>
          <path id="Path_5494" data-name="Path 5494" d="M483.61,186.838s2.3,11.14,8.457,12.042,8.229-5.868,8.229-5.868-13.047-3.827-14.322-7.818Z" transform="translate(-468.47 -148.728)" fill="#fff"/>
          <path id="Path_5495" data-name="Path 5495" d="M496.025,159.672c-1.135.074-1.972,5.442-2.087,8.438s-4.6,5.358-2.621,11.949,1.712,12.952,4.365,20.173-.651,9.867-2.084,12.354c0,0-5.679-6.221-7.6-9.338a7.5,7.5,0,0,0-8.119-3.638s8.669-16.838,8.376-21.379-1.094-11.473,2.52-15.618S496.025,159.672,496.025,159.672Z" transform="translate(-470.04 -155.765)" fill="#471a16"/>
          <path id="Path_5496" data-name="Path 5496" d="M489.683,170.682s-2.41-2.64-4-2.237-1.692,2.789-.48,4.744,5.7,3.058,5.7,3.058Z" transform="translate(-468.259 -153.328)" fill="#fec4ad"/>
          <path id="Path_5497" data-name="Path 5497" d="M493.776,168.294c2.186.2,3.428-.12,6.841-.5,4.371-.48,6.213.641,6.213.641l-1.652-7.267s-5.1-2.836-8.716-2.81c-4.6.031-8.626,1.791-6.347,3.278C492.527,163.215,493.776,168.294,493.776,168.294Z" transform="translate(-466.868 -156.079)" fill="#471a16"/>
          <g id="Group_38182" data-name="Group 38182" transform="translate(0 45.374)">
            <path id="Path_5498" data-name="Path 5498" d="M486.51,200.887c-.781,9.118-3.463,35.1-3.463,35.1,8.3,7.259,20.041,19.329,20.041,19.329s-3.343,6.592-4.772,5.473c-11.431-8.936-24.5-14.225-25.431-20.446-1.533-10.217-2.06-35.926,1.7-44.288C477.488,189.61,487.337,191.215,486.51,200.887Z" transform="translate(-471.726 -192.186)" fill="#fec4ad"/>
            <path id="Path_5499" data-name="Path 5499" d="M502.559,242.708c3.474,1.3,5.66,2.584,5.453,3.879-.143.893-3.107-.739-4.882-.682a9.851,9.851,0,0,0,4.222,4.143c2.294,1.13,3.579,2.7,2.35,4.026s-3.493,3.186-4.971,2.506-6.723-4.343-8.7-5.357-2.765-3.5-3.781-4.179,1.861-5.9,1.861-5.9c.547.152,3.41.763,3.41.763a18.222,18.222,0,0,0,2.84.237A6.931,6.931,0,0,1,502.559,242.708Z" transform="translate(-466.162 -178.774)" fill="#fec4ad"/>
          </g>
        </g>
      </g>
    </g>
  </g>
</svg>
