<svg xmlns="http://www.w3.org/2000/svg" width="20.787" height="18.474" viewBox="0 0 20.787 18.474">
  <path id="Icon_awesome-edit" data-name="Icon awesome-edit" d="M14.529,3.006l3.255,3.255a.353.353,0,0,1,0,.5L9.9,14.641l-3.349.372a.7.7,0,0,1-.776-.776l.372-3.349,7.882-7.882A.353.353,0,0,1,14.529,3.006Zm5.846-.826L18.614.418a1.411,1.411,0,0,0-1.992,0L15.345,1.7a.353.353,0,0,0,0,.5L18.6,5.449a.353.353,0,0,0,.5,0l1.278-1.278a1.411,1.411,0,0,0,0-1.992ZM13.858,12.5v3.674H2.31V4.623H10.6A.444.444,0,0,0,10.91,4.5l1.444-1.444a.433.433,0,0,0-.307-.74H1.732A1.733,1.733,0,0,0,0,4.045v12.7a1.733,1.733,0,0,0,1.732,1.732h12.7a1.733,1.733,0,0,0,1.732-1.732V11.054a.434.434,0,0,0-.74-.307L13.984,12.19A.444.444,0,0,0,13.858,12.5Z" transform="translate(0 -0.007)" fill="#f75308"/>
</svg>
