<svg id="email" xmlns="http://www.w3.org/2000/svg" width="119.657" height="120" viewBox="0 0 119.657 120">
  <g id="Group_228" data-name="Group 228">
    <path id="Path_124" data-name="Path 124" d="M0,44.933,57.615,81.646a3.736,3.736,0,0,0,4.427,0l57.615-36.713L62.072.755a3.743,3.743,0,0,0-4.487,0Z" transform="translate(0 -0.006)" fill="#64b5f6"/>
    <path id="Path_125" data-name="Path 125" d="M146.186,0H71.471A7.5,7.5,0,0,0,64,7.5V90a3.744,3.744,0,0,0,3.736,3.75h82.186A3.744,3.744,0,0,0,153.657,90V7.5A7.493,7.493,0,0,0,146.186,0Z" transform="translate(-49)" fill="#eceff1"/>
  </g>
  <g id="Group_227" data-name="Group 227" transform="translate(0 15)">
    <g id="Group_226" data-name="Group 226" transform="translate(29.828)">
      <path id="Path_126" data-name="Path 126" d="M131.75,71.5h52.5a3.75,3.75,0,0,0,0-7.5h-52.5a3.75,3.75,0,0,0,0,7.5Z" transform="translate(-128 -64)" fill="#90a4ae"/>
      <path id="Path_127" data-name="Path 127" d="M184.25,128h-52.5a3.75,3.75,0,0,0,0,7.5h52.5a3.75,3.75,0,0,0,0-7.5Z" transform="translate(-128 -113)" fill="#90a4ae"/>
      <path id="Path_128" data-name="Path 128" d="M161.75,192h-30a3.75,3.75,0,0,0,0,7.5h30a3.75,3.75,0,0,0,0-7.5Z" transform="translate(-128 -162)" fill="#90a4ae"/>
    </g>
    <path id="Path_129" data-name="Path 129" d="M62.042,228.773a3.732,3.732,0,0,1-4.427,0L0,192v67.5A7.492,7.492,0,0,0,7.479,267h104.7a7.492,7.492,0,0,0,7.479-7.5V192Z" transform="translate(0 -162)" fill="#1e88e5"/>
    <path id="Path_130" data-name="Path 130" d="M112.178,352.75H7.479A7.407,7.407,0,0,1,0,345.25a3.759,3.759,0,0,1,1.526-3.023l56.089-37.5a3.732,3.732,0,0,1,4.427,0l56.089,37.5a3.758,3.758,0,0,1,1.526,3.023A7.407,7.407,0,0,1,112.178,352.75Z" transform="translate(0 -247.75)" fill="#2196f3"/>
  </g>
</svg>
