<svg xmlns="http://www.w3.org/2000/svg" width="24" height="32" viewBox="0 0 24 32">
  <path id="Icon_awesome-file-excel" data-name="Icon awesome-file-excel" d="M14,8.5V0H1.5A1.5,1.5,0,0,0,0,1.5v29A1.5,1.5,0,0,0,1.5,32h21A1.5,1.5,0,0,0,24,30.5V10H15.5A1.5,1.5,0,0,1,14,8.5Zm3.756,6.656L14,21l3.756,5.844A.751.751,0,0,1,17.125,28H14.944a.753.753,0,0,1-.662-.394C13.056,25.344,12,23.313,12,23.313c-.4.925-.625,1.25-2.288,4.3a.743.743,0,0,1-.656.394H6.875a.751.751,0,0,1-.631-1.156l3.769-5.844L6.244,15.162a.749.749,0,0,1,.631-1.156H9.05a.753.753,0,0,1,.663.394c1.631,3.05,1.25,2.1,2.288,4.281,0,0,.381-.731,2.288-4.281a.753.753,0,0,1,.662-.394h2.175A.745.745,0,0,1,17.756,15.156ZM24,7.619V8H16V0h.381a1.5,1.5,0,0,1,1.063.438l6.119,6.125A1.5,1.5,0,0,1,24,7.619Z" fill="#fff"/>
</svg>
