<svg xmlns="http://www.w3.org/2000/svg" xmlns:xlink="http://www.w3.org/1999/xlink" width="626.022" height="613.844" viewBox="0 0 626.022 613.844">
  <defs>
    <linearGradient id="linear-gradient" x1="0.549" y1="0.096" x2="0.545" y2="0.923" gradientUnits="objectBoundingBox">
      <stop offset="0" stop-color="#fe6d2d"/>
      <stop offset="0.459" stop-color="#f75308"/>
      <stop offset="1" stop-color="#f6250a"/>
    </linearGradient>
    <linearGradient id="linear-gradient-8" x1="0.635" y1="0.787" x2="0.625" y2="0.072" gradientUnits="objectBoundingBox">
      <stop offset="0" stop-color="#033b5c"/>
      <stop offset="0.489" stop-color="#04466d"/>
      <stop offset="1" stop-color="#086094"/>
    </linearGradient>
    <linearGradient id="linear-gradient-9" x1="0.5" y1="0.181" x2="0.5" y2="1" xlink:href="#linear-gradient-8"/>
    <linearGradient id="linear-gradient-11" x1="0.084" y1="0.66" x2="0.623" y2="0.228" gradientUnits="objectBoundingBox">
      <stop offset="0" stop-color="#1c3226"/>
      <stop offset="0.489" stop-color="#2e4337"/>
      <stop offset="1" stop-color="#496054"/>
    </linearGradient>
    <linearGradient id="linear-gradient-12" x1="0.5" y1="0.181" x2="0.5" y2="1" xlink:href="#linear-gradient-11"/>
    <linearGradient id="linear-gradient-13" x1="0.41" y1="0.253" x2="0.754" y2="0.676" gradientUnits="objectBoundingBox">
      <stop offset="0" stop-color="#fb6420"/>
      <stop offset="0.545" stop-color="#f6290a"/>
      <stop offset="1" stop-color="#f62e0a"/>
    </linearGradient>
  </defs>
  <g id="Group_38148" data-name="Group 38148" transform="translate(-15.54 -25.011)">
    <g id="Plants" transform="translate(15.54 284.247)">
      <g id="Plants-2" data-name="Plants" transform="translate(0 0)">
        <g id="Group_38090" data-name="Group 38090" transform="translate(18.388)">
          <g id="Group_38087" data-name="Group 38087">
            <path id="Path_5303" data-name="Path 5303" d="M63.587,329.573,75.136,322.1s5.6-29.776,1.44-56.106c-5.845-37.017-31.049-49.786-40.2-46.107S25.067,234.534,41.6,255.922C51.354,268.541,63.9,295.219,63.587,329.573Z" transform="translate(-29.319 -219.28)" fill="#fff4e1"/>
          </g>
          <g id="Group_38088" data-name="Group 38088" opacity="0.3">
            <path id="Path_5304" data-name="Path 5304" d="M63.587,329.573,75.136,322.1s5.6-29.776,1.44-56.106c-5.845-37.017-31.049-49.786-40.2-46.107S25.067,234.534,41.6,255.922C51.354,268.541,63.9,295.219,63.587,329.573Z" transform="translate(-29.319 -219.28)" fill="#fff"/>
          </g>
          <g id="Group_38089" data-name="Group 38089" transform="translate(12.592 5.308)">
            <path id="Path_5305" data-name="Path 5305" d="M64.63,313.542a.812.812,0,0,1-.113-.009.825.825,0,0,1-.706-.93C68.6,277.945,54.664,239.976,39,224.674a.826.826,0,1,1,1.156-1.181c15.945,15.581,30.148,54.168,25.287,89.335A.828.828,0,0,1,64.63,313.542Z" transform="translate(-38.756 -223.258)" fill="#1c272b"/>
          </g>
        </g>
        <g id="Group_38095" data-name="Group 38095" transform="translate(0 35.653)">
          <g id="Group_38091" data-name="Group 38091">
            <path id="Path_5306" data-name="Path 5306" d="M39.127,339.432c-1.731.994-6.661-2.812-8.028-3.73a16.523,16.523,0,0,1-5.5-6.308,15.484,15.484,0,0,1-1.376-9.3,36.79,36.79,0,0,1,1.177-4.945q.689-2.4,1.38-4.8a12.169,12.169,0,0,0,.7-4.841c-.42-3.284-3.335-5.583-5.984-7.567-2.929-2.194-5.981-5.089-5.964-9.042.013-3.049,1.592-5.881,3.481-8.275s4.134-4.508,5.841-7.035a9.7,9.7,0,0,0,1.99-6.141,10.122,10.122,0,0,0-1.337-3.836c-1.4-2.574-3.237-4.931-4.2-7.7s-.826-6.2,1.332-8.181c1.771-1.624,4.4-1.851,6.8-1.693a15.609,15.609,0,0,1,6.326,2.227c6.274,3.49,9.855,10.921,16.513,13.606,2.569,1.036,5.382,1.262,8.06,1.97s5.406,2.075,6.645,4.552c2.445,4.881-2.091,10.9-.372,16.08,1.52,4.586,5.976,6.341,8.479,10.474a9.809,9.809,0,0,1,1.17,6A28.787,28.787,0,0,1,73.738,311.1a90.615,90.615,0,0,1-5.543,9.542S39.393,339.28,39.127,339.432Z" transform="translate(-15.54 -245.999)" fill="#fff4e1"/>
          </g>
          <g id="Group_38092" data-name="Group 38092" opacity="0.65">
            <path id="Path_5307" data-name="Path 5307" d="M39.127,339.432c-1.731.994-6.661-2.812-8.028-3.73a16.523,16.523,0,0,1-5.5-6.308,15.484,15.484,0,0,1-1.376-9.3,36.79,36.79,0,0,1,1.177-4.945q.689-2.4,1.38-4.8a12.169,12.169,0,0,0,.7-4.841c-.42-3.284-3.335-5.583-5.984-7.567-2.929-2.194-5.981-5.089-5.964-9.042.013-3.049,1.592-5.881,3.481-8.275s4.134-4.508,5.841-7.035a9.7,9.7,0,0,0,1.99-6.141,10.122,10.122,0,0,0-1.337-3.836c-1.4-2.574-3.237-4.931-4.2-7.7s-.826-6.2,1.332-8.181c1.771-1.624,4.4-1.851,6.8-1.693a15.609,15.609,0,0,1,6.326,2.227c6.274,3.49,9.855,10.921,16.513,13.606,2.569,1.036,5.382,1.262,8.06,1.97s5.406,2.075,6.645,4.552c2.445,4.881-2.091,10.9-.372,16.08,1.52,4.586,5.976,6.341,8.479,10.474a9.809,9.809,0,0,1,1.17,6A28.787,28.787,0,0,1,73.738,311.1a90.615,90.615,0,0,1-5.543,9.542S39.393,339.28,39.127,339.432Z" transform="translate(-15.54 -245.999)" fill="#fff"/>
          </g>
          <g id="Group_38093" data-name="Group 38093" transform="translate(15.373 6.213)">
            <path id="Path_5308" data-name="Path 5308" d="M52.042,328.033H52.02a.785.785,0,0,1-.761-.813c1.292-31.02-13.324-65.265-23.953-75.214a.782.782,0,0,1,1.069-1.141c10.842,10.148,25.754,44.963,24.447,76.419A.781.781,0,0,1,52.042,328.033Z" transform="translate(-27.06 -250.655)" fill="#1c272b"/>
          </g>
          <g id="Group_38094" data-name="Group 38094" transform="translate(11.876 40.449)">
            <path id="Path_5309" data-name="Path 5309" d="M47.931,281.538a.762.762,0,0,1-.231-.035c-9.967-3.081-22.388-3.624-22.512-3.63a.782.782,0,0,1-.749-.813.76.76,0,0,1,.814-.75c.125.007,12.744.558,22.907,3.7a.781.781,0,0,1-.23,1.528Z" transform="translate(-24.44 -276.31)" fill="#1c272b"/>
          </g>
        </g>
      </g>
    </g>
    <g id="Floor" transform="translate(25.076 282.931)">
      <ellipse id="Floor-2" data-name="Floor" cx="308.243" cy="177.962" rx="308.243" ry="177.962" transform="translate(0 0)" fill="#192225"/>
    </g>
    <g id="Shadows" transform="translate(120.548 356.768)">
      <path id="Shadow" d="M143.2,301.9c65.285-37.692,171.13-37.692,236.413,0,55.338,31.951,63.746,80.723,25.267,117.8l143.65,81.885c8.757,5.056,8.757,13.251,0,18.307l-12.908,7.453c-8.755,5.055-22.71,4.665-31.171-.871l-125.477-87.73c-65.332,37.33-170.7,37.221-235.775-.351C77.912,400.7,77.911,339.587,143.2,301.9Z" transform="translate(-94.232 -273.627)" fill="#192225"/>
    </g>
    <g id="Clouds" transform="translate(38.423 32.077)">
      <path id="Cloud" d="M167.411,48.05l-11.328,6.54a13.681,13.681,0,0,0,.1-1.5V49.809c0-5.839-4.1-8.207-9.157-5.287a17.74,17.74,0,0,0-5.458,5.248c-.829-7.342-6.589-10.078-13.587-6.038-7.566,4.369-13.7,14.992-13.7,23.729V72.37a12.917,12.917,0,0,0,1.16,5.687l-9.409,5.432a11.227,11.227,0,0,0-5.079,8.8c0,3.24,2.274,4.553,5.079,2.933l61.382-35.438a11.229,11.229,0,0,0,5.079-8.8C172.489,47.745,170.216,46.432,167.411,48.05Z" transform="translate(-9.86 -26.441)" fill="#f6eae8"/>
      <path id="Cloud-2" data-name="Cloud" d="M40.975,81.347l6.385-4.916V62.365c0-11.15,8.894-24.094,18.551-29.671h0c9.656-5.575,17.485-1.056,17.485,10.1v2.042a24.95,24.95,0,0,1,8.115-8.119h0c6.948-4.011,12.582-.759,12.582,7.265v.929l8.9-5.14c4.577-2.642,8.287-.5,8.287,4.784s-3.71,11.71-8.287,14.352l-72.02,41.58c-4.577,2.642-8.287.5-8.287-4.783S36.4,83.991,40.975,81.347Z" transform="translate(-32.688 -30.306)" fill="#f6eae8"/>
    </g>
    <g id="Glass" transform="translate(141.366 323.426)">
      <g id="Glass-2" data-name="Glass" transform="translate(0 0)">
        <g id="Group_38099" data-name="Group 38099">
          <g id="Group_38096" data-name="Group 38096">
            <path id="Path_5310" data-name="Path 5310" d="M109.834,334.778v40.608c0,22.045,14.565,44.09,43.7,60.909,58.265,33.639,152.731,33.639,211,0,29.133-16.819,43.7-38.865,43.7-60.909V334.778h0c0-22.045-14.566-44.089-43.7-60.908-58.266-33.639-152.733-33.639-211,0-29.133,16.819-43.7,38.865-43.7,60.909Zm283.965,0c0,17.636-12.959,34.828-36.484,48.411-26.022,15.024-60.927,23.3-98.284,23.3s-72.265-8.273-98.284-23.3c-23.526-13.583-36.484-30.776-36.484-48.411s12.956-34.832,36.484-48.415c26.018-15.023,60.924-23.3,98.284-23.3s72.265,8.275,98.284,23.3C380.843,299.948,393.8,317.144,393.8,334.781Z" transform="translate(-109.833 -248.64)" fill="#e3dacb"/>
            <path id="Path_5311" data-name="Path 5311" d="M109.834,334.778v40.608c0,22.045,14.565,44.09,43.7,60.909,58.265,33.639,152.731,33.639,211,0,29.133-16.819,43.7-38.865,43.7-60.909V334.778h0c0-22.045-14.566-44.089-43.7-60.908-58.266-33.639-152.733-33.639-211,0-29.133,16.819-43.7,38.865-43.7,60.909Zm283.965,0c0,17.636-12.959,34.828-36.484,48.411-26.022,15.024-60.927,23.3-98.284,23.3s-72.265-8.273-98.284-23.3c-23.526-13.583-36.484-30.776-36.484-48.411s12.956-34.832,36.484-48.415c26.018-15.023,60.924-23.3,98.284-23.3s72.265,8.275,98.284,23.3C380.843,299.948,393.8,317.144,393.8,334.781Z" transform="translate(-109.833 -248.64)" fill="#fff4e1" opacity="0.2"/>
            <path id="Path_5312" data-name="Path 5312" d="M408.079,369.3c-2.322,13.959-8.472,24.48-33.246,43.821C339.8,440.476,251.1,451.646,199.618,434.65c-48.549-16.029-64.029-47.349-64.029-68.849l.125-12.632c-7.494-8.933-11.451-18.531-11.451-28.266,0-9.98,4.151-19.817,12.015-28.94l.176-17.789H133.67c-15.884,14.174-23.835,30.45-23.837,46.727v40.606c0,22.045,14.567,44.09,43.7,60.909,58.265,33.639,152.731,33.639,211,0C391.991,410.563,406.5,390.065,408.079,369.3Z" transform="translate(-109.833 -238.763)" fill="#fff4e1" opacity="0.6"/>
          </g>
          <g id="Group_38097" data-name="Group 38097" transform="translate(0.01)">
            <path id="Path_5313" data-name="Path 5313" d="M364.537,273.87c-58.266-33.639-152.732-33.639-211,0s-58.265,88.18,0,121.819,152.732,33.639,211,0S422.8,307.509,364.537,273.87Zm-7.215,109.322c-26.02,15.024-60.924,23.3-98.284,23.3s-72.263-8.273-98.284-23.3c-23.526-13.583-36.484-30.776-36.484-48.411s12.956-34.832,36.484-48.415c26.018-15.023,60.924-23.3,98.284-23.3s72.264,8.275,98.284,23.3c23.529,13.583,36.483,30.778,36.483,48.415S380.848,369.609,357.322,383.192Z" transform="translate(-109.841 -248.64)" fill="#fff4e1"/>
            <path id="Path_5314" data-name="Path 5314" d="M364.537,273.87c-58.266-33.639-152.732-33.639-211,0s-58.265,88.18,0,121.819,152.732,33.639,211,0S422.8,307.509,364.537,273.87Zm-7.215,109.322c-26.02,15.024-60.924,23.3-98.284,23.3s-72.263-8.273-98.284-23.3c-23.526-13.583-36.484-30.776-36.484-48.411s12.956-34.832,36.484-48.415c26.018-15.023,60.924-23.3,98.284-23.3s72.264,8.275,98.284,23.3c23.529,13.583,36.483,30.778,36.483,48.415S380.848,369.609,357.322,383.192Z" transform="translate(-109.841 -248.64)" fill="#fff4e1" opacity="0.5"/>
          </g>
          <g id="Group_38098" data-name="Group 38098" transform="translate(14.429 14.425)">
            <path id="Path_5315" data-name="Path 5315" d="M390.2,331.162a40.015,40.015,0,0,1-5.83,20.315c-5.914-10.244-16.332-19.853-30.674-28.107-26-15.035-60.919-23.316-98.289-23.316-37.341,0-72.259,8.281-98.26,23.316-14.341,8.253-24.759,17.862-30.7,28.107a40.265,40.265,0,0,1-5.8-20.315c0-17.632,12.957-34.831,36.5-48.423,26-15.005,60.919-23.288,98.26-23.288,37.37,0,72.288,8.283,98.289,23.288C377.245,296.331,390.2,313.53,390.2,331.162Z" transform="translate(-120.646 -259.45)" fill="#acacac"/>
            <path id="Path_5316" data-name="Path 5316" d="M390.2,331.162a40.015,40.015,0,0,1-5.83,20.315c-5.914-10.244-16.332-19.853-30.674-28.107-26-15.035-60.919-23.316-98.289-23.316-37.341,0-72.259,8.281-98.26,23.316-14.341,8.253-24.759,17.862-30.7,28.107a40.265,40.265,0,0,1-5.8-20.315c0-17.632,12.957-34.831,36.5-48.423,26-15.005,60.919-23.288,98.26-23.288,37.37,0,72.288,8.283,98.289,23.288C377.245,296.331,390.2,313.53,390.2,331.162Z" transform="translate(-120.646 -259.45)" fill="#fff4e1" opacity="0.3"/>
            <path id="Path_5317" data-name="Path 5317" d="M157.15,282.427c-23.547,13.592-36.5,30.792-36.5,48.423a40.265,40.265,0,0,0,5.8,20.315c5.945-10.244,16.361-19.853,30.7-28.107A147.21,147.21,0,0,1,176,313.975c-5.691,2.2-23.139,7.814-16.776-8.823,7.562-19.771,44.48-41.165,71.611-44.724l.019-.045C202.936,263.194,177.347,270.77,157.15,282.427Z" transform="translate(-120.646 -259.138)" fill="#fff4e1" opacity="0.6"/>
          </g>
        </g>
        <path id="Path_5318" data-name="Path 5318" d="M353.405,296.528c-26.02-15.023-60.924-23.3-98.284-23.3s-72.265,8.275-98.284,23.3c-19.414,11.208-31.606,24.876-35.285,39.221,3.679,14.345,15.872,28.012,35.285,39.22,26.021,15.024,60.927,23.3,98.284,23.3s72.264-8.273,98.284-23.3c19.413-11.208,31.606-24.875,35.285-39.22C385.011,321.4,372.82,307.735,353.405,296.528Z" transform="translate(-105.914 -240.417)" fill="#fff" opacity="0.4"/>
        <path id="Path_5319" data-name="Path 5319" d="M140.52,331.039c8.339,6.536,17.8,10.647,27.449,13.957a196.44,196.44,0,0,0,29.635,7.311,293.105,293.105,0,0,0,60.8,3.467c10.155-.442,20.326-1.393,30.427-2.764A248.935,248.935,0,0,0,318.7,347.13,129.126,129.126,0,0,0,346.9,336.423a66.148,66.148,0,0,0,6.4-3.915,49.545,49.545,0,0,0,5.861-4.674,32.991,32.991,0,0,0,4.924-5.7,24.029,24.029,0,0,0,3.323-6.97,22.369,22.369,0,0,1-1.362,7.948,34.533,34.533,0,0,1-3.806,7.31A43.258,43.258,0,0,1,357,336.829a61.947,61.947,0,0,1-6.129,5.534c-8.635,6.843-18.5,11.782-28.6,15.7a182.937,182.937,0,0,1-31.179,8.688,234.263,234.263,0,0,1-32.019,3.8,204.344,204.344,0,0,1-64.057-6.816A143.053,143.053,0,0,1,164.985,351.7a91.75,91.75,0,0,1-13.478-8.987c-1.057-.834-2.05-1.764-3.068-2.635-.974-.939-1.974-1.829-2.894-2.812A48.793,48.793,0,0,1,140.52,331.039Z" transform="translate(-99.571 -226.394)" fill="#fff" opacity="0.06"/>
        <g id="Group_38102" data-name="Group 38102" transform="translate(250.262 153.306)">
          <g id="Group_38100" data-name="Group 38100">
            <path id="Path_5320" data-name="Path 5320" d="M297.377,383.119c-.027-6.667,4.62-14.792,10.38-18.149,2.864-1.669,5.463-1.84,7.357-.774l0,0,.027.015.005,0,33.242,19.011.035.02.011.007h0c1.88,1.092,3.052,3.417,3.065,6.733.027,6.668-4.62,14.793-10.38,18.149-2.88,1.679-5.493,1.847-7.389.762h0l-33.238-19,0,0C298.585,388.806,297.39,386.467,297.377,383.119Z" transform="translate(-297.377 -363.526)" fill="#37474f"/>
            <path id="Path_5321" data-name="Path 5321" d="M300.5,386.936c-1.912-1.078-3.107-3.417-3.12-6.765a19.859,19.859,0,0,1,1.773-7.825l47.784,27.388a19.8,19.8,0,0,1-5.815,5.45c-2.88,1.679-5.492,1.847-7.389.762l-33.238-19Z" transform="translate(-297.377 -360.577)" fill="#263238"/>
          </g>
          <g id="Group_38101" data-name="Group 38101" transform="translate(35.269 18.972)">
            <path id="Path_5322" data-name="Path 5322" d="M452.756,432.545h0l-.011-.007-.044-.023-105.766-53.89-.011-.005-.14-.075-.011.019c-2.455-1.322-5.785-1.094-9.458,1.049-7.5,4.367-13.544,14.943-13.508,23.619.017,4.349,1.563,7.394,4.041,8.8L427.3,476.063h0a25.219,25.219,0,1,0,25.451-43.518Z" transform="translate(-323.807 -377.744)" fill="#455a64"/>
            <path id="Path_5323" data-name="Path 5323" d="M327.848,407.334,427.3,471.363a25.2,25.2,0,0,0,38.539-19.739c-1.906,8.28-15.6,15.327-32.576,5.838-17.074-9.541-79.842-49.212-108.42-65.667a23.449,23.449,0,0,0-1.041,6.736C323.824,402.881,325.37,405.926,327.848,407.334Z" transform="translate(-323.807 -373.045)" fill="#37474f"/>
            <path id="Path_5324" data-name="Path 5324" d="M327.848,412.033c-2.478-1.408-4.023-4.453-4.041-8.8-.036-8.676,6.012-19.252,13.508-23.619,3.674-2.143,7-2.371,9.458-1.049l9.372,4.752c-2.518-1.357-5.933-1.122-9.7,1.076-7.688,4.481-13.89,15.326-13.854,24.224.019,4.46,1.533,7.652,4.075,9.1" transform="translate(-323.807 -377.744)" fill="#fff4e1"/>
            <path id="Path_5325" data-name="Path 5325" d="M336.664,413.009c-2.541-1.444-4.055-4.636-4.074-9.094a24.107,24.107,0,0,1,1.082-6.952c-3.195-1.895-6.158-3.632-8.824-5.167a26.371,26.371,0,0,0-.779,3.409q-.132.847-.2,1.68t-.063,1.647c.017,4.349,1.563,7.394,4.041,8.8Z" transform="translate(-323.807 -373.045)" opacity="0.2"/>
          </g>
        </g>
      </g>
    </g>
    <g id="Paper_Planes" data-name="Paper Planes" transform="translate(65.944 45.347)">
      <g id="Paper_Plane" data-name="Paper Plane" transform="translate(0 333.812)">
        <g id="Group_38109" data-name="Group 38109" transform="translate(0 147.347)">
          <g id="Group_38103" data-name="Group 38103" transform="translate(0 25.257)">
            <path id="Path_5326" data-name="Path 5326" d="M165.261,459.794,85.205,419.754,53.313,433.862Z" transform="translate(-53.313 -419.754)" fill="url(#linear-gradient)"/>
          </g>
          <g id="Group_38104" data-name="Group 38104" transform="translate(0 25.257)" opacity="0.15">
            <path id="Path_5327" data-name="Path 5327" d="M165.261,459.794,85.205,419.754,53.313,433.862Z" transform="translate(-53.313 -419.754)" fill="#fff"/>
          </g>
          <g id="Group_38105" data-name="Group 38105" transform="translate(41.424)">
            <path id="Path_5328" data-name="Path 5328" d="M154.88,466.124,84.355,418.979l12.631-18.153Z" transform="translate(-84.355 -400.826)" fill="url(#linear-gradient)"/>
          </g>
          <g id="Group_38106" data-name="Group 38106" transform="translate(41.424)" opacity="0.15">
            <path id="Path_5329" data-name="Path 5329" d="M154.88,466.124,84.355,418.979l12.631-18.153Z" transform="translate(-84.355 -400.826)" fill="#fff"/>
          </g>
          <g id="Group_38107" data-name="Group 38107" transform="translate(41.424 18.153)">
            <path id="Path_5330" data-name="Path 5330" d="M84.355,414.43l1.332,12.537,69.193,34.607Z" transform="translate(-84.355 -414.43)" fill="url(#linear-gradient)"/>
          </g>
          <g id="Group_38108" data-name="Group 38108" transform="translate(41.424 18.153)" opacity="0.2">
            <path id="Path_5331" data-name="Path 5331" d="M84.355,414.43l1.332,12.537,69.193,34.607Z" transform="translate(-84.355 -414.43)"/>
          </g>
        </g>
        <g id="Group_38116" data-name="Group 38116" transform="translate(0.839)">
          <g id="Group_38111" data-name="Group 38111" transform="translate(26.833 159.328)">
            <g id="Group_38110" data-name="Group 38110">
              <path id="Path_5332" data-name="Path 5332" d="M76.391,413.571a.757.757,0,0,0,.52-.215.951.951,0,0,0,.079-1.242q-.781-.993-1.543-1.995a.735.735,0,0,0-1.116-.1.945.945,0,0,0-.095,1.238q.769,1.011,1.555,2.015A.754.754,0,0,0,76.391,413.571Z" transform="translate(-74.05 -409.805)" fill="#455a64"/>
            </g>
          </g>
          <g id="Group_38113" data-name="Group 38113" transform="translate(0 4.164)">
            <g id="Group_38112" data-name="Group 38112">
              <path id="Path_5333" data-name="Path 5333" d="M76.082,443.359q-1.423-2.088-2.764-4.207a.945.945,0,0,1,.192-1.226.75.75,0,0,1,1.106.215q1.325,2.094,2.73,4.159a.944.944,0,0,1-.155,1.232.74.74,0,0,1-.478.177A.763.763,0,0,1,76.082,443.359ZM69.02,431.9q-1.233-2.232-2.374-4.5a.929.929,0,0,1,.307-1.2.75.75,0,0,1,1.078.339q1.125,2.234,2.342,4.434a.941.941,0,0,1-.262,1.212.736.736,0,0,1-.415.128A.775.775,0,0,1,69.02,431.9Zm-5.952-12.225c-.669-1.581-1.306-3.185-1.9-4.771a.919.919,0,0,1,.428-1.15.77.77,0,0,1,1.038.475c.582,1.563,1.212,3.143,1.87,4.7a.921.921,0,0,1-.383,1.169.708.708,0,0,1-.335.084A.789.789,0,0,1,63.068,419.672ZM58.454,406.75c-.488-1.668-.941-3.349-1.34-5a.892.892,0,0,1,.558-1.078.784.784,0,0,1,.971.619c.395,1.623.838,3.279,1.318,4.917a.9.9,0,0,1-.51,1.109.749.749,0,0,1-.244.044A.806.806,0,0,1,58.454,406.75Zm-3.066-13.482c-.279-1.7-.52-3.435-.718-5.156a.863.863,0,0,1,.686-.984.821.821,0,0,1,.886.761c.195,1.692.432,3.4.706,5.065a.877.877,0,0,1-.638,1.022.662.662,0,0,1-.144.016A.821.821,0,0,1,55.388,393.268Zm-1.372-13.822q-.074-2.04-.075-4.1l.005-1.124a.838.838,0,0,1,.793-.866h.011a.84.84,0,0,1,.782.89l-.005,1.1q0,2.022.073,4.027a.846.846,0,0,1-.761.914h-.031A.834.834,0,0,1,54.016,379.446ZM55.077,366.5a.858.858,0,0,1-.714-.958c.147-1.719.334-3.461.558-5.18a.81.81,0,0,1,.9-.746.869.869,0,0,1,.673,1c-.219,1.692-.4,3.407-.548,5.1a.832.832,0,0,1-.789.8A.481.481,0,0,1,55.077,366.5Zm1.868-13.632a.884.884,0,0,1-.6-1.054c.35-1.688.75-3.388,1.189-5.053a.785.785,0,0,1,.983-.6.9.9,0,0,1,.54,1.092c-.431,1.633-.823,3.3-1.168,4.956a.814.814,0,0,1-.773.683A.686.686,0,0,1,56.945,352.871Zm3.6-13.189a.913.913,0,0,1-.442-1.144c.582-1.6,1.216-3.216,1.883-4.788a.768.768,0,0,1,1.056-.422.924.924,0,0,1,.38,1.17c-.655,1.543-1.277,3.121-1.847,4.693a.8.8,0,0,1-.735.554A.725.725,0,0,1,60.544,339.682Zm5.414-12.407a.936.936,0,0,1-.272-1.206c.8-1.491,1.66-2.97,2.539-4.4a.748.748,0,0,1,1.1-.231.941.941,0,0,1,.208,1.222c-.862,1.4-1.7,2.853-2.49,4.314a.779.779,0,0,1-.679.427A.719.719,0,0,1,65.957,327.274Zm7.1-11.319a.95.95,0,0,1-.1-1.241c1.006-1.341,2.056-2.658,3.117-3.917a.739.739,0,0,1,1.121-.041A.947.947,0,0,1,77.228,312c-1.042,1.236-2.07,2.527-3.057,3.843a.766.766,0,0,1-.61.315A.748.748,0,0,1,73.053,315.956Zm8.571-9.992a.948.948,0,0,1,.067-1.241c1.174-1.156,2.389-2.286,3.61-3.357a.74.74,0,0,1,1.114.143.948.948,0,0,1-.129,1.237c-1.2,1.05-2.389,2.159-3.542,3.293a.742.742,0,0,1-1.12-.075Zm9.831-8.444a.939.939,0,0,1,.24-1.216c1.346-.954,2.714-1.854,4.061-2.672a.76.76,0,0,1,1.077.351.93.93,0,0,1-.316,1.194c-1.316.8-2.65,1.675-3.966,2.607a.727.727,0,0,1-.427.139A.777.777,0,0,1,91.454,297.52Z" transform="translate(-53.941 -293.527)" fill="#455a64"/>
            </g>
          </g>
          <g id="Group_38115" data-name="Group 38115" transform="translate(48.525)">
            <g id="Group_38114" data-name="Group 38114">
              <path id="Path_5334" data-name="Path 5334" d="M91.1,292.8a.7.7,0,0,0,.242-.044,12.888,12.888,0,0,1,2.175-.6.869.869,0,0,0,.673-1,.81.81,0,0,0-.9-.746,14.061,14.061,0,0,0-2.433.665.9.9,0,0,0-.512,1.1A.8.8,0,0,0,91.1,292.8Z" transform="translate(-90.305 -290.406)" fill="#455a64"/>
            </g>
          </g>
        </g>
      </g>
      <g id="Paper_Plane-2" data-name="Paper Plane" transform="translate(342.791)">
        <g id="Group_38117" data-name="Group 38117">
          <path id="Path_5335" data-name="Path 5335" d="M392.264,68.453,310.2,43.3l63.225,43.43Z" transform="translate(-310.197 -39.231)" fill="url(#linear-gradient)"/>
          <path id="Path_5336" data-name="Path 5336" d="M392.264,68.453,310.2,43.3l63.225,43.43Z" transform="translate(-310.197 -39.231)" fill="#fff" opacity="0.15"/>
          <path id="Path_5337" data-name="Path 5337" d="M310.2,44.319l88.329,14.208L417.368,40.25Z" transform="translate(-310.197 -40.25)" fill="url(#linear-gradient)"/>
          <path id="Path_5338" data-name="Path 5338" d="M310.2,44.319l88.329,14.208L417.368,40.25Z" transform="translate(-310.197 -40.25)" fill="#fff" opacity="0.15"/>
          <path id="Path_5339" data-name="Path 5339" d="M398.526,57.507l.087,21.841-6.349-10.9L310.2,43.3Z" transform="translate(-310.197 -39.231)" fill="url(#linear-gradient)"/>
          <path id="Path_5340" data-name="Path 5340" d="M398.526,57.507l.087,21.841-6.349-10.9L310.2,43.3Z" transform="translate(-310.197 -39.231)" opacity="0.2"/>
          <path id="Path_5341" data-name="Path 5341" d="M379.62,73.045l-12.629-4.8,6.281-6.092Z" transform="translate(-291.204 -32.927)" fill="url(#linear-gradient)"/>
          <path id="Path_5342" data-name="Path 5342" d="M373.272,62.149l-6.281,6.092,2.014.766Z" transform="translate(-291.204 -32.927)" opacity="0.2"/>
        </g>
        <g id="Group_38122" data-name="Group 38122" transform="translate(104.678 25.23)">
          <g id="Group_38119" data-name="Group 38119">
            <g id="Group_38118" data-name="Group 38118">
              <path id="Path_5343" data-name="Path 5343" d="M388.936,59.308a.751.751,0,0,0-.284.486.949.949,0,0,0,.69,1.036c.815.212,1.625.43,2.435.653a.737.737,0,0,0,.951-.594.946.946,0,0,0-.675-1.042q-1.225-.338-2.458-.661A.754.754,0,0,0,388.936,59.308Z" transform="translate(-388.642 -59.157)" fill="#455a64"/>
            </g>
          </g>
          <g id="Group_38121" data-name="Group 38121" transform="translate(10.393 3.08)">
            <g id="Group_38120" data-name="Group 38120">
              <path id="Path_5344" data-name="Path 5344" d="M397.439,61.509q2.394.8,4.748,1.672a.945.945,0,0,1,.589,1.093.748.748,0,0,1-1.009.5q-2.324-.863-4.693-1.655a.942.942,0,0,1-.622-1.074.731.731,0,0,1,.272-.43A.766.766,0,0,1,397.439,61.509ZM410,66.349q2.334,1.029,4.613,2.139a.93.93,0,0,1,.482,1.137.751.751,0,0,1-1.064.384q-2.248-1.1-4.55-2.11a.938.938,0,0,1-.526-1.121.747.747,0,0,1,.252-.355A.779.779,0,0,1,410,66.349Zm12.143,6.118c1.488.853,2.969,1.741,4.4,2.643a.919.919,0,0,1,.356,1.176.768.768,0,0,1-1.113.25c-1.41-.889-2.869-1.765-4.336-2.606a.922.922,0,0,1-.4-1.161.715.715,0,0,1,.216-.271A.794.794,0,0,1,422.144,72.467Zm11.5,7.483c1.4,1.032,2.778,2.1,4.1,3.167a.892.892,0,0,1,.21,1.2.784.784,0,0,1-1.149.1c-1.3-1.05-2.651-2.1-4.029-3.112a.9.9,0,0,1-.266-1.19.742.742,0,0,1,.168-.184A.806.806,0,0,1,433.644,79.951Zm10.609,8.867c1.25,1.182,2.5,2.417,3.7,3.667a.865.865,0,0,1,.049,1.2.824.824,0,0,1-1.166-.068c-1.18-1.228-2.4-2.441-3.631-3.6a.876.876,0,0,1-.111-1.2.6.6,0,0,1,.1-.1A.82.82,0,0,1,444.253,88.818Zm9.468,10.164q1.293,1.577,2.541,3.213l.675.9a.837.837,0,0,1-.1,1.17l-.009.007a.841.841,0,0,1-1.161-.235l-.66-.878q-1.227-1.605-2.5-3.157a.847.847,0,0,1,.051-1.188l.025-.02A.836.836,0,0,1,453.72,98.982Zm7,10.938a.86.86,0,0,1,1.149.33c.923,1.457,1.831,2.956,2.694,4.46a.808.808,0,0,1-.262,1.137.872.872,0,0,1-1.138-.384c-.85-1.479-1.743-2.956-2.65-4.388a.827.827,0,0,1,.144-1.11A.49.49,0,0,1,460.718,109.92Zm6.774,11.976a.883.883,0,0,1,1.112.478c.746,1.556,1.458,3.151,2.118,4.741a.786.786,0,0,1-.419,1.073.9.9,0,0,1-1.092-.542c-.647-1.56-1.345-3.124-2.075-4.649a.815.815,0,0,1,.2-1.011A.68.68,0,0,1,467.492,121.9Zm5.131,12.673a.915.915,0,0,1,1.043.643c.51,1.628.981,3.293,1.4,4.949a.768.768,0,0,1-.583.975.927.927,0,0,1-1.013-.7c-.412-1.624-.874-3.256-1.374-4.852a.8.8,0,0,1,.251-.886A.729.729,0,0,1,472.622,134.57Zm3.211,13.151a.936.936,0,0,1,.947.8c.263,1.673.48,3.368.647,5.039a.749.749,0,0,1-.737.853.943.943,0,0,1-.907-.847c-.163-1.637-.376-3.3-.632-4.94a.779.779,0,0,1,.282-.751A.721.721,0,0,1,475.833,147.72Z" transform="translate(-396.43 -61.465)" fill="#455a64"/>
            </g>
          </g>
        </g>
      </g>
    </g>
    <g id="Stars" transform="translate(482.311 25.1)">
      <g id="Stars-2" data-name="Stars" transform="translate(0 346.585)">
        <g id="Group_38124" data-name="Group 38124" transform="translate(0 0)">
          <path id="Path_5345" data-name="Path 5345" d="M500.839,286.173c-3.572-2.135-8.618-1.841-14.218,1.392l-101.64,58.682c-10.85,6.264-19.647,21.15-19.647,33.25,0,5.91,2.1,10.059,5.512,12.027,1.856,1.07,9.043,5.219,10.91,6.285,3.562,2.035,8.542,1.7,14.063-1.484l101.64-58.682c10.85-6.264,19.647-21.15,19.647-33.25,0-5.882-2.08-10.02-5.466-12C509.777,291.3,502.632,287.243,500.839,286.173Z" transform="translate(-365.334 -284.806)" fill="#e0e0e0"/>
          <g id="Group_38123" data-name="Group 38123" transform="translate(10.841 6.256)">
            <path id="Path_5346" data-name="Path 5346" d="M383.915,396.69c-6.142,0-9.957-4.853-9.957-12.665,0-11.867,8.663-26.523,19.313-32.672l101.64-58.681a17.851,17.851,0,0,1,8.686-2.678c6.144,0,9.959,4.852,9.959,12.664,0,11.867-8.663,26.523-19.312,32.672L392.6,394.012A17.851,17.851,0,0,1,383.915,396.69Z" transform="translate(-373.291 -289.327)" fill="#fafafa"/>
            <path id="Path_5347" data-name="Path 5347" d="M503.765,290.828h0c5.73,0,9.29,4.6,9.29,12,0,11.655-8.514,26.052-18.979,32.094L392.436,393.6a17.2,17.2,0,0,1-8.353,2.589,8.294,8.294,0,0,1-6.648-3c-1.728-2.106-2.642-5.216-2.642-9,0-11.655,8.515-26.052,18.979-32.094L495.41,293.417a17.2,17.2,0,0,1,8.355-2.589m0-1.334a18.348,18.348,0,0,0-9.021,2.768L393.1,350.943c-10.85,6.265-19.647,21.151-19.647,33.25,0,8.474,4.313,13.332,10.625,13.332a18.348,18.348,0,0,0,9.021-2.768l101.64-58.682c10.85-6.264,19.647-21.151,19.647-33.25,0-8.472-4.314-13.331-10.626-13.331Z" transform="translate(-373.458 -289.494)" fill="#ebebeb"/>
          </g>
        </g>
        <g id="Stars-3" data-name="Stars" transform="translate(24.958 18.83)">
          <g id="Group_38127" data-name="Group 38127" transform="translate(0 54.929)">
            <path id="Path_5348" data-name="Path 5348" d="M405.5,347.119c.411-.773.34-1.568-.044-1.785-.124-.069-3.02-1.739-3.4-1.963a.527.527,0,0,0-.474-.015l-3.121,1.2-1.029-2.186a.565.565,0,0,0-.23-.263c-.43-.237-3.312-1.915-3.4-1.967-.43-.243-1.144.3-1.421,1.213l-2.122,6.955a2.192,2.192,0,0,1-.691,1.069l-4.742,3.656c-.754.582-1.054,1.99-.51,2.383l3.432,2.479a.989.989,0,0,1,.264.931l-.81,6.765c-.059.494.075.826.3.957.268.155,3.177,1.839,3.405,1.97.268.153.666.029,1.03-.436l4.242-5.423a1.04,1.04,0,0,1,.854-.492l4.242.524c.674.083,1.461-1.134,1.333-2.06l-.81-5.831a2.135,2.135,0,0,1,.264-1.236Z" transform="translate(-384.038 -340.08)" fill="#ba68c8"/>
            <g id="Group_38125" data-name="Group 38125" transform="translate(0.001 0.002)">
              <path id="Path_5349" data-name="Path 5349" d="M401.843,344.522a.563.563,0,0,0-.47-.009l-4.747,1.82a.5.5,0,0,1-.687-.268l-1.09-2.323,3.119-1.19a.508.508,0,0,1,.471.008C398.815,342.786,401.717,344.454,401.843,344.522Z" transform="translate(-380.424 -339.272)" fill="#fff" opacity="0.15"/>
              <path id="Path_5350" data-name="Path 5350" d="M393.6,348.21a2.184,2.184,0,0,1-.7,1.074l-4.739,3.656a1.825,1.825,0,0,0-.511.637l-3.405-1.971a2.006,2.006,0,0,1,.512-.636l4.738-3.656a2.161,2.161,0,0,0,.7-1.065v-.009Z" transform="translate(-383.969 -338.021)" fill="#fff" opacity="0.15"/>
              <path id="Path_5351" data-name="Path 5351" d="M395.672,342.119c-.428-.278-1.157.268-1.443,1.2l-2.122,6.952L388.7,348.3l2.122-6.952c.278-.9.99-1.451,1.417-1.208.093.051,2.969,1.728,3.405,1.963C395.654,342.109,395.664,342.109,395.672,342.119Z" transform="translate(-382.479 -340.081)" opacity="0.1"/>
              <path id="Path_5352" data-name="Path 5352" d="M391.152,356.459l-3.372-1.937c-.008-.008-.017-.025-.033-.033l-3.431-2.482c-.394-.286-.343-1.09,0-1.745l3.405,1.971c-.344.646-.394,1.46,0,1.744Z" transform="translate(-384.039 -336.676)" opacity="0.25"/>
              <path id="Path_5353" data-name="Path 5353" d="M389.817,363.09c-.059.5.084.838.327.965a.03.03,0,0,1-.025-.009c-.227-.133-3.136-1.819-3.4-1.971-.227-.133-.362-.46-.3-.955l.814-6.768a1.033,1.033,0,0,0-.235-.9l3.372,1.938c.008.008.016.016.024.016l.009.009v.008a1.024,1.024,0,0,1,.235.9Z" transform="translate(-383.25 -335.608)" opacity="0.15"/>
            </g>
            <g id="Group_38126" data-name="Group 38126" transform="translate(3.405 1.969)">
              <path id="Path_5354" data-name="Path 5354" d="M396.58,341.874l2.122,4.506a.507.507,0,0,0,.691.271l4.743-1.82c.754-.288,1.054.771.51,1.795l-3.432,6.443a2.135,2.135,0,0,0-.264,1.236l.81,5.831c.128.926-.659,2.143-1.333,2.06l-4.242-.524a1.04,1.04,0,0,0-.854.492l-4.242,5.423c-.674.862-1.461.554-1.333-.522l.81-6.766a.989.989,0,0,0-.264-.931l-3.432-2.479c-.544-.394-.244-1.8.51-2.382l4.743-3.658a2.191,2.191,0,0,0,.691-1.069l2.122-6.955C395.269,341.72,396.243,341.159,396.58,341.874Z" transform="translate(-386.59 -341.555)" fill="#ba68c8"/>
              <path id="Path_5355" data-name="Path 5355" d="M396.58,341.874l2.122,4.506a.507.507,0,0,0,.691.271l4.743-1.82c.754-.288,1.054.771.51,1.795l-3.432,6.443a2.135,2.135,0,0,0-.264,1.236l.81,5.831c.128.926-.659,2.143-1.333,2.06l-4.242-.524a1.04,1.04,0,0,0-.854.492l-4.242,5.423c-.674.862-1.461.554-1.333-.522l.81-6.766a.989.989,0,0,0-.264-.931l-3.432-2.479c-.544-.394-.244-1.8.51-2.382l4.743-3.658a2.191,2.191,0,0,0,.691-1.069l2.122-6.955C395.269,341.72,396.243,341.159,396.58,341.874Z" transform="translate(-386.59 -341.555)" fill="#fff" opacity="0.5"/>
            </g>
          </g>
          <g id="Group_38130" data-name="Group 38130" transform="translate(23.817 41.197)">
            <path id="Path_5356" data-name="Path 5356" d="M423.346,336.828c.411-.773.34-1.567-.044-1.784-.124-.071-3.02-1.74-3.4-1.964a.528.528,0,0,0-.474-.015l-3.121,1.2-1.029-2.186a.565.565,0,0,0-.23-.263c-.431-.238-3.312-1.915-3.4-1.966-.428-.244-1.142.3-1.42,1.212l-2.122,6.955a2.185,2.185,0,0,1-.691,1.069l-4.742,3.658c-.754.581-1.054,1.988-.51,2.382L405.6,347.6a.989.989,0,0,1,.264.931l-.81,6.766c-.059.494.075.826.3.957.268.155,3.177,1.839,3.405,1.97.268.153.666.029,1.03-.435l4.242-5.423a1.039,1.039,0,0,1,.854-.494l4.242.524c.674.083,1.461-1.134,1.333-2.06l-.81-5.83a2.127,2.127,0,0,1,.264-1.237Z" transform="translate(-401.886 -329.789)" fill="#ba68c8"/>
            <g id="Group_38128" data-name="Group 38128" transform="translate(0.001 0.002)">
              <path id="Path_5357" data-name="Path 5357" d="M419.691,334.231a.563.563,0,0,0-.47-.009l-4.747,1.82a.5.5,0,0,1-.687-.268l-1.09-2.323,3.119-1.19a.509.509,0,0,1,.47.008C416.663,332.5,419.565,334.163,419.691,334.231Z" transform="translate(-398.272 -328.982)" fill="#fff" opacity="0.15"/>
              <path id="Path_5358" data-name="Path 5358" d="M411.446,337.919a2.194,2.194,0,0,1-.7,1.074l-4.738,3.656a1.819,1.819,0,0,0-.511.638l-3.405-1.971a2.011,2.011,0,0,1,.512-.638l4.739-3.656a2.154,2.154,0,0,0,.7-1.065v-.008Z" transform="translate(-401.817 -327.731)" fill="#fff" opacity="0.15"/>
              <path id="Path_5359" data-name="Path 5359" d="M413.52,331.828c-.428-.278-1.158.268-1.443,1.2l-2.122,6.952-3.405-1.97,2.122-6.952c.278-.906.99-1.452,1.417-1.208.093.049,2.969,1.727,3.405,1.962C413.5,331.818,413.51,331.818,413.52,331.828Z" transform="translate(-400.327 -329.79)" opacity="0.1"/>
              <path id="Path_5360" data-name="Path 5360" d="M409,346.168l-3.371-1.938c-.008-.008-.017-.025-.033-.033l-3.431-2.482c-.394-.286-.343-1.09,0-1.744l3.405,1.971c-.344.645-.394,1.458,0,1.744Z" transform="translate(-401.887 -326.386)" opacity="0.25"/>
              <path id="Path_5361" data-name="Path 5361" d="M407.665,352.8c-.059.5.084.839.327.965a.032.032,0,0,1-.025-.008c-.227-.135-3.136-1.82-3.4-1.971-.227-.135-.362-.462-.3-.957l.814-6.767a1.039,1.039,0,0,0-.235-.9l3.371,1.938c.009.008.017.017.025.017l.009.008v.008a1.023,1.023,0,0,1,.233.9Z" transform="translate(-401.098 -325.318)" opacity="0.15"/>
            </g>
            <g id="Group_38129" data-name="Group 38129" transform="translate(3.405 1.968)">
              <path id="Path_5362" data-name="Path 5362" d="M414.428,331.583l2.122,4.506a.506.506,0,0,0,.691.271l4.743-1.82c.754-.288,1.054.773.51,1.795l-3.432,6.443a2.127,2.127,0,0,0-.264,1.237l.81,5.83c.128.926-.659,2.143-1.333,2.06l-4.242-.524a1.039,1.039,0,0,0-.854.494l-4.242,5.423c-.674.861-1.463.552-1.333-.522l.81-6.767a.989.989,0,0,0-.264-.931l-3.432-2.478c-.544-.395-.244-1.8.51-2.383l4.742-3.658a2.186,2.186,0,0,0,.691-1.069l2.122-6.955C413.117,331.43,414.091,330.868,414.428,331.583Z" transform="translate(-404.438 -331.264)" fill="#ba68c8"/>
              <path id="Path_5363" data-name="Path 5363" d="M414.428,331.583l2.122,4.506a.506.506,0,0,0,.691.271l4.743-1.82c.754-.288,1.054.773.51,1.795l-3.432,6.443a2.127,2.127,0,0,0-.264,1.237l.81,5.83c.128.926-.659,2.143-1.333,2.06l-4.242-.524a1.039,1.039,0,0,0-.854.494l-4.242,5.423c-.674.861-1.463.552-1.333-.522l.81-6.767a.989.989,0,0,0-.264-.931l-3.432-2.478c-.544-.395-.244-1.8.51-2.383l4.742-3.658a2.186,2.186,0,0,0,.691-1.069l2.122-6.955C413.117,331.43,414.091,330.868,414.428,331.583Z" transform="translate(-404.438 -331.264)" fill="#fff" opacity="0.5"/>
            </g>
          </g>
          <g id="Group_38133" data-name="Group 38133" transform="translate(47.633 27.465)">
            <path id="Path_5364" data-name="Path 5364" d="M441.193,326.538c.412-.774.342-1.568-.043-1.785-.124-.071-3.02-1.74-3.4-1.964a.528.528,0,0,0-.474-.015l-3.121,1.2-1.029-2.186a.557.557,0,0,0-.231-.264c-.43-.238-3.311-1.915-3.4-1.966-.428-.243-1.142.3-1.42,1.212l-2.122,6.955a2.186,2.186,0,0,1-.691,1.069l-4.742,3.658c-.754.58-1.054,1.988-.51,2.382l3.432,2.479a.99.99,0,0,1,.264.931l-.81,6.767c-.06.494.075.826.3.957.268.153,3.177,1.837,3.405,1.968.268.153.666.029,1.03-.435l4.242-5.423a1.04,1.04,0,0,1,.854-.494l4.242.524c.674.083,1.461-1.134,1.333-2.06l-.81-5.83a2.129,2.129,0,0,1,.264-1.237Z" transform="translate(-419.734 -319.499)" fill="#ba68c8"/>
            <g id="Group_38131" data-name="Group 38131" transform="translate(0.001 0.001)">
              <path id="Path_5365" data-name="Path 5365" d="M437.539,323.94a.563.563,0,0,0-.47-.008l-4.746,1.819a.5.5,0,0,1-.689-.268l-1.089-2.323,3.119-1.19a.509.509,0,0,1,.47.008C434.511,322.2,437.413,323.873,437.539,323.94Z" transform="translate(-416.12 -318.691)" fill="#fff" opacity="0.15"/>
              <path id="Path_5366" data-name="Path 5366" d="M429.294,327.629a2.19,2.19,0,0,1-.7,1.073l-4.739,3.656a1.819,1.819,0,0,0-.511.638l-3.405-1.971a2.025,2.025,0,0,1,.512-.638l4.739-3.656a2.155,2.155,0,0,0,.7-1.065v-.008Z" transform="translate(-419.665 -317.44)" fill="#fff" opacity="0.15"/>
              <path id="Path_5367" data-name="Path 5367" d="M431.368,321.537c-.428-.276-1.158.268-1.442,1.2l-2.122,6.952-3.405-1.971,2.122-6.952c.276-.906.99-1.452,1.417-1.208.092.051,2.969,1.727,3.405,1.962C431.35,321.529,431.358,321.529,431.368,321.537Z" transform="translate(-418.175 -319.499)" opacity="0.1"/>
              <path id="Path_5368" data-name="Path 5368" d="M426.846,335.877l-3.371-1.937a.155.155,0,0,0-.033-.033l-3.431-2.482c-.394-.286-.343-1.09,0-1.744l3.405,1.971c-.344.646-.394,1.458,0,1.744Z" transform="translate(-419.735 -316.095)" opacity="0.25"/>
              <path id="Path_5369" data-name="Path 5369" d="M425.513,342.508c-.059.5.084.839.327.965a.032.032,0,0,1-.025-.008c-.227-.135-3.136-1.82-3.4-1.971-.227-.135-.362-.462-.3-.955l.814-6.768a1.039,1.039,0,0,0-.235-.9l3.371,1.938c.009.008.017.017.025.017l.008.008v.008a1.019,1.019,0,0,1,.235.9Z" transform="translate(-418.946 -315.027)" opacity="0.15"/>
            </g>
            <g id="Group_38132" data-name="Group 38132" transform="translate(3.405 1.968)">
              <path id="Path_5370" data-name="Path 5370" d="M432.276,321.293l2.12,4.5a.508.508,0,0,0,.693.271l4.742-1.819c.754-.29,1.054.771.508,1.795l-3.431,6.441a2.129,2.129,0,0,0-.264,1.237l.81,5.83c.128.926-.659,2.143-1.333,2.06l-4.242-.524a1.044,1.044,0,0,0-.855.494l-4.241,5.423c-.675.861-1.463.552-1.333-.522l.81-6.767a.988.988,0,0,0-.264-.93l-3.432-2.479c-.544-.394-.244-1.8.51-2.383l4.742-3.656a2.19,2.19,0,0,0,.691-1.07l2.122-6.955C430.965,321.138,431.939,320.577,432.276,321.293Z" transform="translate(-422.286 -320.973)" fill="#ba68c8"/>
              <path id="Path_5371" data-name="Path 5371" d="M432.276,321.293l2.12,4.5a.508.508,0,0,0,.693.271l4.742-1.819c.754-.29,1.054.771.508,1.795l-3.431,6.441a2.129,2.129,0,0,0-.264,1.237l.81,5.83c.128.926-.659,2.143-1.333,2.06l-4.242-.524a1.044,1.044,0,0,0-.855.494l-4.241,5.423c-.675.861-1.463.552-1.333-.522l.81-6.767a.988.988,0,0,0-.264-.93l-3.432-2.479c-.544-.394-.244-1.8.51-2.383l4.742-3.656a2.19,2.19,0,0,0,.691-1.07l2.122-6.955C430.965,321.138,431.939,320.577,432.276,321.293Z" transform="translate(-422.286 -320.973)" fill="#fff" opacity="0.5"/>
            </g>
          </g>
          <g id="Group_38136" data-name="Group 38136" transform="translate(71.449 13.732)">
            <path id="Path_5372" data-name="Path 5372" d="M459.041,316.247c.412-.774.342-1.568-.043-1.785-.124-.071-3.02-1.739-3.4-1.964a.524.524,0,0,0-.474-.013l-3.121,1.2-1.029-2.186a.554.554,0,0,0-.231-.263c-.43-.239-3.311-1.916-3.4-1.967-.428-.243-1.142.3-1.42,1.212l-2.122,6.955a2.179,2.179,0,0,1-.691,1.069l-4.744,3.658c-.753.582-1.054,1.99-.508,2.383l3.432,2.478a.992.992,0,0,1,.264.931l-.81,6.767c-.06.494.075.826.3.957.268.154,3.177,1.837,3.405,1.968.268.153.666.031,1.029-.435l4.242-5.423a1.047,1.047,0,0,1,.855-.494l4.242.524c.674.084,1.461-1.134,1.333-2.06l-.81-5.83a2.138,2.138,0,0,1,.263-1.237Z" transform="translate(-437.581 -309.208)" fill="#ba68c8"/>
            <g id="Group_38134" data-name="Group 38134" transform="translate(0.002 0.002)">
              <path id="Path_5373" data-name="Path 5373" d="M455.387,313.649a.568.568,0,0,0-.47-.008l-4.747,1.82a.5.5,0,0,1-.689-.27l-1.09-2.322,3.12-1.192a.509.509,0,0,1,.47.009C452.359,311.913,455.262,313.582,455.387,313.649Z" transform="translate(-433.968 -308.4)" fill="#fff" opacity="0.15"/>
              <path id="Path_5374" data-name="Path 5374" d="M447.142,317.338a2.19,2.19,0,0,1-.7,1.073l-4.739,3.656a1.83,1.83,0,0,0-.511.638l-3.405-1.971a2.006,2.006,0,0,1,.512-.638l4.737-3.656a2.141,2.141,0,0,0,.7-1.065v-.008Z" transform="translate(-437.514 -307.149)" fill="#fff" opacity="0.15"/>
              <path id="Path_5375" data-name="Path 5375" d="M449.216,311.245c-.428-.276-1.158.268-1.443,1.2l-2.122,6.952-3.405-1.971,2.122-6.952c.276-.906.99-1.451,1.417-1.208.092.051,2.969,1.728,3.405,1.962C449.2,311.237,449.206,311.237,449.216,311.245Z" transform="translate(-436.023 -309.209)" opacity="0.1"/>
              <path id="Path_5376" data-name="Path 5376" d="M444.694,325.586l-3.371-1.936a.16.16,0,0,0-.033-.035l-3.431-2.482c-.394-.284-.343-1.09,0-1.744l3.405,1.971c-.344.646-.394,1.459,0,1.744Z" transform="translate(-437.583 -305.804)" opacity="0.25"/>
              <path id="Path_5377" data-name="Path 5377" d="M443.361,332.218c-.059.5.084.838.327.963a.032.032,0,0,1-.025-.008c-.227-.135-3.137-1.82-3.405-1.971-.225-.133-.36-.46-.3-.955l.814-6.768a1.039,1.039,0,0,0-.235-.9l3.371,1.936a.041.041,0,0,0,.025.017l.008.008v.009a1.016,1.016,0,0,1,.235.9Z" transform="translate(-436.794 -304.736)" opacity="0.15"/>
            </g>
            <g id="Group_38135" data-name="Group 38135" transform="translate(3.405 1.969)">
              <path id="Path_5378" data-name="Path 5378" d="M450.124,311l2.12,4.505a.508.508,0,0,0,.693.271l4.743-1.819c.753-.29,1.054.771.508,1.795l-3.431,6.441a2.129,2.129,0,0,0-.264,1.237l.81,5.83c.128.926-.659,2.144-1.333,2.06l-4.242-.524a1.048,1.048,0,0,0-.855.494l-4.242,5.423c-.674.861-1.461.552-1.332-.522l.81-6.766a.99.99,0,0,0-.264-.931l-3.432-2.479c-.546-.394-.244-1.8.508-2.383l4.744-3.656a2.189,2.189,0,0,0,.691-1.07l2.12-6.954C448.813,310.848,449.786,310.287,450.124,311Z" transform="translate(-440.133 -310.683)" fill="#ba68c8"/>
              <path id="Path_5379" data-name="Path 5379" d="M450.124,311l2.12,4.505a.508.508,0,0,0,.693.271l4.743-1.819c.753-.29,1.054.771.508,1.795l-3.431,6.441a2.129,2.129,0,0,0-.264,1.237l.81,5.83c.128.926-.659,2.144-1.333,2.06l-4.242-.524a1.048,1.048,0,0,0-.855.494l-4.242,5.423c-.674.861-1.461.552-1.332-.522l.81-6.766a.99.99,0,0,0-.264-.931l-3.432-2.479c-.546-.394-.244-1.8.508-2.383l4.744-3.656a2.189,2.189,0,0,0,.691-1.07l2.12-6.954C448.813,310.848,449.786,310.287,450.124,311Z" transform="translate(-440.133 -310.683)" fill="#fff" opacity="0.5"/>
            </g>
          </g>
          <g id="Group_38139" data-name="Group 38139" transform="translate(95.266)">
            <path id="Path_5380" data-name="Path 5380" d="M476.889,305.956c.412-.773.342-1.568-.043-1.785-.125-.071-3.021-1.739-3.4-1.963a.528.528,0,0,0-.474-.015l-3.121,1.2-1.029-2.186a.566.566,0,0,0-.231-.263c-.43-.237-3.311-1.916-3.4-1.967-.428-.243-1.142.3-1.421,1.213l-2.12,6.954a2.189,2.189,0,0,1-.691,1.07l-4.744,3.656c-.753.582-1.054,1.99-.508,2.383l3.432,2.479a.989.989,0,0,1,.264.931l-.81,6.766c-.06.494.075.826.3.957l3.405,1.97c.268.154.665.029,1.029-.436l4.242-5.423a1.047,1.047,0,0,1,.855-.494l4.242.526c.674.083,1.461-1.136,1.333-2.062l-.811-5.83a2.146,2.146,0,0,1,.264-1.236Z" transform="translate(-455.429 -298.917)" fill="#ba68c8"/>
            <g id="Group_38137" data-name="Group 38137" transform="translate(0.002 0.001)">
              <path id="Path_5381" data-name="Path 5381" d="M473.235,303.358a.569.569,0,0,0-.47-.008l-4.747,1.82a.5.5,0,0,1-.689-.268l-1.09-2.323,3.12-1.192a.509.509,0,0,1,.47.009C470.207,301.622,473.108,303.291,473.235,303.358Z" transform="translate(-451.815 -298.109)" fill="#fff" opacity="0.15"/>
              <path id="Path_5382" data-name="Path 5382" d="M464.99,307.047a2.19,2.19,0,0,1-.7,1.073l-4.738,3.656a1.843,1.843,0,0,0-.511.638l-3.405-1.971a1.988,1.988,0,0,1,.512-.637l4.737-3.656a2.16,2.16,0,0,0,.7-1.066v-.008Z" transform="translate(-455.361 -296.858)" fill="#fff" opacity="0.15"/>
              <path id="Path_5383" data-name="Path 5383" d="M467.064,300.954c-.428-.276-1.158.268-1.442,1.2l-2.122,6.952-3.405-1.971,2.122-6.952c.276-.906.989-1.451,1.417-1.208.092.051,2.969,1.728,3.405,1.963C467.046,300.946,467.054,300.946,467.064,300.954Z" transform="translate(-453.871 -298.918)" opacity="0.1"/>
              <path id="Path_5384" data-name="Path 5384" d="M462.542,315.3l-3.371-1.938c-.009-.008-.017-.025-.033-.033l-3.431-2.483c-.394-.284-.344-1.09,0-1.744l3.405,1.971c-.344.646-.395,1.46,0,1.744Z" transform="translate(-455.43 -295.513)" opacity="0.25"/>
              <path id="Path_5385" data-name="Path 5385" d="M461.209,321.927c-.059.5.084.838.327.965a.029.029,0,0,1-.025-.009c-.227-.133-3.137-1.82-3.405-1.971-.226-.133-.36-.46-.3-.955l.814-6.768a1.042,1.042,0,0,0-.235-.9l3.371,1.938a.045.045,0,0,0,.025.016l.008.008v.009a1.016,1.016,0,0,1,.235.9Z" transform="translate(-454.641 -294.445)" opacity="0.15"/>
            </g>
            <g id="Group_38138" data-name="Group 38138" transform="translate(3.405 1.969)">
              <path id="Path_5386" data-name="Path 5386" d="M467.972,300.711l2.12,4.506a.507.507,0,0,0,.693.27l4.743-1.819c.753-.29,1.054.771.508,1.795l-3.432,6.443a2.146,2.146,0,0,0-.264,1.236l.811,5.83c.128.927-.659,2.144-1.333,2.062l-4.242-.524a1.042,1.042,0,0,0-.855.492l-4.242,5.423c-.674.862-1.461.554-1.332-.522l.81-6.766a.989.989,0,0,0-.264-.931l-3.432-2.479c-.546-.394-.244-1.8.508-2.383l4.744-3.656a2.192,2.192,0,0,0,.691-1.069l2.12-6.955C466.661,300.557,467.634,300,467.972,300.711Z" transform="translate(-457.981 -300.392)" fill="#ba68c8"/>
              <path id="Path_5387" data-name="Path 5387" d="M467.972,300.711l2.12,4.506a.507.507,0,0,0,.693.27l4.743-1.819c.753-.29,1.054.771.508,1.795l-3.432,6.443a2.146,2.146,0,0,0-.264,1.236l.811,5.83c.128.927-.659,2.144-1.333,2.062l-4.242-.524a1.042,1.042,0,0,0-.855.492l-4.242,5.423c-.674.862-1.461.554-1.332-.522l.81-6.766a.989.989,0,0,0-.264-.931l-3.432-2.479c-.546-.394-.244-1.8.508-2.383l4.744-3.656a2.192,2.192,0,0,0,.691-1.069l2.12-6.955C466.661,300.557,467.634,300,467.972,300.711Z" transform="translate(-457.981 -300.392)" fill="#fff" opacity="0.5"/>
            </g>
          </g>
        </g>
      </g>
      <path id="Star" d="M487.593,62.449l-10.667,4.57L474.642,78.4a1.718,1.718,0,0,1-2.977.793l-7.642-8.732L452.5,71.8a1.717,1.717,0,0,1-1.675-2.585l5.945-9.968L451.925,48.7a1.717,1.717,0,0,1,1.942-2.391l11.316,2.573,8.535-7.864a1.718,1.718,0,0,1,2.874,1.108l1.05,11.557,10.115,5.687A1.718,1.718,0,0,1,487.593,62.449Z" transform="translate(-336.828 -19.899)" fill="#f6eae8"/>
      <path id="Star-2" data-name="Star" d="M439.259,47.894a1.5,1.5,0,0,1-.327.323,1.485,1.485,0,0,1-1.573.115l-5.946-3.125-5.945,3.127a1.495,1.495,0,0,1-2.167-1.576l1.136-6.62-4.811-4.688a1.494,1.494,0,0,1,.827-2.547l6.647-.969,2.972-6.022a1.494,1.494,0,0,1,2.68,0l2.973,6.022,6.648.966a1.493,1.493,0,0,1,.827,2.547h0l-4.808,4.688,1.137,6.619A1.491,1.491,0,0,1,439.259,47.894ZM420.214,34.039a.567.567,0,0,0-.084.165.554.554,0,0,0,.144.58l5.159,5.029-1.218,7.1a.568.568,0,0,0,.823.6l6.376-3.353,6.376,3.351a.566.566,0,0,0,.822-.6l-1.218-7.1,5.159-5.029a.578.578,0,0,0,.143-.58.553.553,0,0,0-.458-.383l-7.128-1.036-3.191-6.461a.566.566,0,0,0-1.015,0l-3.187,6.461-7.13,1.037A.552.552,0,0,0,420.214,34.039Z" transform="translate(-347.329 -25.078)" fill="#e0e0e0"/>
    </g>
    <g id="Speech_Bubbles" data-name="Speech Bubbles" transform="translate(405.18 133.356)">
      <g id="Speech_Bubbles-2" data-name="Speech Bubbles">
        <g id="Speech_Bubble" data-name="Speech Bubble">
          <g id="Speech_Bubble-2" data-name="Speech Bubble">
            <path id="Path_5388" data-name="Path 5388" d="M402.291,109.935c-10.048-5.823-23.866-5.029-39.128,3.782-30.724,17.738-55.63,61.206-55.63,97.087,0,18.056,6.321,30.717,16.508,36.6,2.354,1.36,11.6,6.635,11.588,6.687-1.01,6.91-3.891,14.2-12.961,19.561-.58.343-.214.907.3,1.21.214.125,13.582,7.841,14.1,8.141a1.346,1.346,0,0,0,.639.2c13.883.023,29.968-9.334,34.444-28.753,1.68-.791,3.377-1.667,5.1-2.661,30.724-17.738,55.63-61.206,55.63-97.087,0-18.057-6.31-30.746-16.495-36.639C414.014,116.689,404.635,111.292,402.291,109.935Z" transform="translate(-307.533 -106.203)" fill="url(#linear-gradient-8)"/>
            <path id="Path_5389" data-name="Path 5389" d="M373.72,119.813c-30.725,17.738-55.632,61.207-55.632,97.088,0,24.342,11.471,38.922,28.438,40.254-.633,7.742-2.893,16.443-13.3,22.592-.822.486.255,1.416.953,1.417,13.883.023,29.968-9.333,34.443-28.753,1.681-.791,3.38-1.667,5.1-2.661,30.724-17.738,55.631-61.206,55.631-97.087S404.443,102.075,373.72,119.813Z" transform="translate(-304.003 -104.167)" fill="url(#linear-gradient-9)"/>
            <path id="Path_5390" data-name="Path 5390" d="M333.035,244.721c-.5.312-.276.781.139,1.109-1.664-.953-13.731-7.905-13.922-8.027-.52-.312-.883-.867-.295-1.214,9.069-5.358,11.946-12.657,12.952-19.557l1.543.9,1.405.833a27.9,27.9,0,0,0,11.477,3.363C345.709,229.862,343.438,238.566,333.035,244.721Z" transform="translate(-303.814 -69.14)" fill="url(#linear-gradient-9)"/>
          </g>
          <g id="Group_38140" data-name="Group 38140" transform="translate(61.622 37.095)">
            <path id="Path_5391" data-name="Path 5391" d="M355.943,215.255q-2.234-1.575-2.231-5.687a16.836,16.836,0,0,1,2.19-8.129,14.916,14.916,0,0,1,5.6-5.989q3.407-1.966,5.6-.474t2.19,5.6a17.343,17.343,0,0,1-2.231,8.263,14.876,14.876,0,0,1-5.554,6.072Q358.172,216.833,355.943,215.255Zm-1.988-72.543L369.04,134l-2.515,50.867-10.055,5.806Z" transform="translate(-353.712 -134.002)" fill="#fafafa"/>
          </g>
        </g>
        <path id="Path_5392" data-name="Path 5392" d="M365.342,224.548c16.387-12.015,30.51-31.044,39.158-51.486C388.115,185.077,373.992,204.106,365.342,224.548Z" transform="translate(-288.201 -83.845)" opacity="0.2"/>
        <g id="Speech_Bubble-3" data-name="Speech Bubble" transform="translate(72.538 79.61)">
          <g id="Speech_Bubble-4" data-name="Speech Bubble">
            <path id="Path_5393" data-name="Path 5393" d="M471.269,296.491c-5.677.06-9.907-3.911-12.563-8.917,17.022-20.937,28.538-48.825,28.538-73.215,0-18.088-6.333-30.789-16.548-36.668-2.357-1.357-11.72-6.753-14.074-8.113-10.045-5.8-23.851-5-39.1,3.8-30.725,17.738-55.632,61.207-55.632,97.088,0,18.053,6.308,30.74,16.488,36.634,2.374,1.374,11.728,6.745,14.047,8.1,10.054,5.859,23.894,5.079,39.185-3.75a85.488,85.488,0,0,0,11.616-8.136c10.338,8.176,22.936-.738,27.925-5C471.823,297.734,471.9,296.484,471.269,296.491Z" transform="translate(-361.892 -165.862)" fill="url(#linear-gradient-11)"/>
            <g id="Group_38141" data-name="Group 38141" transform="translate(14.089 8.123)">
              <path id="Path_5394" data-name="Path 5394" d="M403.243,315.847c-18.594,0-30.143-15.136-30.143-39.5,0-35.549,24.761-78.765,55.2-96.337,8.511-4.915,16.648-7.406,24.188-7.406,18.592,0,30.143,15.138,30.143,39.505,0,23.32-10.861,51.164-28.343,72.67l-.363.446.268.507c3.137,5.91,7.686,9.225,12.842,9.372a.716.716,0,0,1-.19.295c-3.551,3.036-10.6,8.127-17.9,8.127h0a14.08,14.08,0,0,1-8.923-3.145l-.55-.435-.54.447a84.886,84.886,0,0,1-11.5,8.055C418.919,313.357,410.781,315.847,403.243,315.847Z" transform="translate(-372.233 -171.733)" fill="url(#linear-gradient-12)"/>
              <path id="Path_5395" data-name="Path 5395" d="M452.7,171.95l0,1.735c18.057,0,29.276,14.807,29.276,38.638,0,23.129-10.786,50.765-28.15,72.123l-.725.891.539,1.014c2.888,5.444,6.95,8.788,11.608,9.629-3.707,2.95-9.831,6.892-16.092,6.892a13.239,13.239,0,0,1-8.387-2.958l-1.1-.869-1.081.891a83.867,83.867,0,0,1-11.38,7.972c-8.377,4.837-16.371,7.29-23.755,7.29-18.057,0-29.276-14.805-29.276-38.638,0-35.273,24.568-78.151,54.764-95.587,8.379-4.836,16.369-7.289,23.751-7.289V171.95m0,0c-7.423,0-15.779,2.418-24.621,7.522-30.725,17.738-55.632,61.207-55.632,97.088,0,25.555,12.637,40.371,31.009,40.371,7.423,0,15.781-2.417,24.623-7.522a85.37,85.37,0,0,0,11.616-8.136,14.888,14.888,0,0,0,9.462,3.332c7.633,0,14.941-5.324,18.463-8.335.667-.571.742-1.816.119-1.816h-.131c-5.613,0-9.8-3.95-12.437-8.918,17.022-20.937,28.538-48.825,28.538-73.215,0-25.555-12.638-40.37-31.009-40.373Z" transform="translate(-372.45 -171.95)" fill="#1c3226"/>
            </g>
          </g>
          <g id="Group_38142" data-name="Group 38142" transform="translate(47.313 39.468)">
            <path id="Path_5396" data-name="Path 5396" d="M416.932,242.7a100.226,100.226,0,0,1,5.557-11.317q2.674-4.788,3.933-7.732a14.59,14.59,0,0,0,1.256-5.753q0-4-2.391-4.944t-6.366,1.35a23.323,23.323,0,0,0-6.772,6.018,37.228,37.228,0,0,0-4.987,8.771l-9.812-2.011a58.268,58.268,0,0,1,9.2-16.02A49.421,49.421,0,0,1,420.3,199.342q9.326-5.384,14.963-3.341t5.637,11.452a31.667,31.667,0,0,1-1.094,8.416,41.429,41.429,0,0,1-2.677,7.223q-1.581,3.239-4.1,7.717a90.637,90.637,0,0,0-4.378,8.53,16.862,16.862,0,0,0-1.378,6.688l-12.246,7.07A27.826,27.826,0,0,1,416.932,242.7Zm-1.3,34.324q-2.23-1.577-2.228-5.687a16.846,16.846,0,0,1,2.188-8.131,14.936,14.936,0,0,1,5.6-5.988q3.407-1.968,5.6-.472t2.19,5.6a17.339,17.339,0,0,1-2.23,8.261,14.863,14.863,0,0,1-5.557,6.072Q417.866,278.6,415.634,277.021Z" transform="translate(-397.348 -195.439)" fill="#fff"/>
          </g>
        </g>
      </g>
    </g>
    <g id="FAQ" transform="translate(94.408 25.011)">
      <g id="Speech_Bubble-5" data-name="Speech Bubble">
        <g id="Speech_Bubble-6" data-name="Speech Bubble">
          <g id="Group_38143" data-name="Group 38143" transform="translate(106.932 213.893)">
            <path id="Path_5397" data-name="Path 5397" d="M216.16,185.3l-61.383,35.542,24.382,41.452a5.54,5.54,0,0,0,2.333,2.611c2.913,1.651,20.135,11.624,21.088,12.175a5.636,5.636,0,0,0,8.235-3.279l26.473-76.3Z" transform="translate(-154.777 -185.3)" fill="#ba68c8"/>
            <path id="Path_5398" data-name="Path 5398" d="M216.16,185.3l-61.383,35.542,24.382,41.452a5.54,5.54,0,0,0,2.333,2.611c2.913,1.651,20.135,11.624,21.088,12.175a5.636,5.636,0,0,0,8.235-3.279l26.473-76.3Z" transform="translate(-154.777 -185.3)" fill="url(#linear-gradient-13)"/>
            <path id="Path_5399" data-name="Path 5399" d="M170.61,229.984l24.384,41.452a5.621,5.621,0,0,0,10.526-.691l26.473-76.3Z" transform="translate(-149.482 -182.243)" fill="url(#linear-gradient-13)"/>
          </g>
          <g id="Group_38144" data-name="Group 38144">
            <path id="Path_5400" data-name="Path 5400" d="M311.447,26.3,79.962,159.944a11.741,11.741,0,0,0-5.314,9.2V329.806a11.591,11.591,0,0,0,5.343,9.15l19.034,10.671a11.9,11.9,0,0,0,10.657-.052L341.168,215.935a11.745,11.745,0,0,0,5.314-9.2V46.073a11.6,11.6,0,0,0-5.343-9.151L322.1,26.25A11.894,11.894,0,0,0,311.447,26.3Z" transform="translate(-74.641 -25.009)" fill="url(#linear-gradient-13)"/>
            <path id="Path_5401" data-name="Path 5401" d="M345.995,45.111c-.418-2.676-2.6-3.632-5.252-2.111L109.276,176.649a10.853,10.853,0,0,0-3.755,3.975l-29.628-16.9a10.619,10.619,0,0,1,3.659-3.779L311.043,26.3a11.88,11.88,0,0,1,10.651-.049l19.025,10.667A11.731,11.731,0,0,1,345.995,45.111Z" transform="translate(-74.225 -25.011)" fill="#fff" opacity="0.3"/>
            <path id="Path_5402" data-name="Path 5402" d="M96.92,342.642V181.984a11.747,11.747,0,0,1,5.314-9.2L333.72,39.14c2.934-1.695,5.314-.32,5.314,3.068V202.866a11.745,11.745,0,0,1-5.314,9.2L102.234,345.71C99.3,347.4,96.92,346.03,96.92,342.642Z" transform="translate(-67.193 -20.528)" fill="none" stroke="#707070" stroke-miterlimit="10" stroke-width="0.25" style="mix-blend-mode: overlay;isolation: isolate"/>
            <path id="Path_5403" data-name="Path 5403" d="M109.683,314.815c-2.828,1.641-7.994,1.7-10.666.061l-19.023-10.69a11.549,11.549,0,0,1-5.351-9.13V134.384a10.943,10.943,0,0,1,1.695-5.423l29.6,16.9a10.568,10.568,0,0,0-1.571,5.227V311.736C104.37,314.84,106.557,316.628,109.683,314.815Z" transform="translate(-74.643 9.752)" opacity="0.2"/>
          </g>
        </g>
        <g id="FAQ-2" data-name="FAQ" transform="translate(47.172 66.919)">
          <g id="Group_38145" data-name="Group 38145" transform="translate(0 73.05)">
            <path id="Path_5404" data-name="Path 5404" d="M157.5,183.432l-2.319-1.338a5.808,5.808,0,0,0-5.806,0l-14.094,8.137v-19.28l26.105-15.072a8.127,8.127,0,0,0,4.063-7.038V138.028a8.125,8.125,0,0,0-4.065-7.038h0a8.124,8.124,0,0,0-8.124,0l-36.209,20.9A14.108,14.108,0,0,0,110,164.113V264.45a8.125,8.125,0,0,0,4.065,7.038h0a8.127,8.127,0,0,0,8.124,0l9.03-5.214a8.127,8.127,0,0,0,4.063-7.038V219.887l22.221-12.83a5.806,5.806,0,0,0,2.9-5.028V188.461A5.807,5.807,0,0,0,157.5,183.432Z" transform="translate(-109.992 -129.903)" fill="#e0e0e0"/>
            <path id="Path_5405" data-name="Path 5405" d="M122.964,264.124l-.774.454a8.133,8.133,0,0,1-12.2-7.032V157.211a14.061,14.061,0,0,1,1.695-6.659l8.127,4.684a13.946,13.946,0,0,0-1.695,6.659v99.4A3.251,3.251,0,0,0,122.964,264.124Z" transform="translate(-109.993 -122.997)" opacity="0.1"/>
            <path id="Path_5406" data-name="Path 5406" d="M133.242,169.553v28.662l22.182-12.806a1.961,1.961,0,0,1,2.942,1.7v13.542a5.779,5.779,0,0,1-2.889,5l-22.235,12.838V257.85a8.109,8.109,0,0,1-4.054,7.02l-8.221,4.747a3.254,3.254,0,0,1-4.88-2.818V167.4a14.106,14.106,0,0,1,7.052-12.215l35.868-20.707a2.935,2.935,0,0,1,4.4,2.542v10.454a8.066,8.066,0,0,1-4.034,6.986Z" transform="translate(-107.955 -128.505)" fill="#fafafa"/>
          </g>
          <g id="Group_38146" data-name="Group 38146" transform="translate(48.297 46.601)">
            <path id="Path_5407" data-name="Path 5407" d="M200.64,116.968a9.612,9.612,0,0,0-14.011-5.6l-8.981,5.191a9.577,9.577,0,0,0-4.577,6.258L146.3,244.7a5.012,5.012,0,0,0,2.389,5.4l2.455,1.415a5,5,0,0,0,5,0l10.822-6.245a9.737,9.737,0,0,0,3.55-3.8,18.243,18.243,0,0,0,1.988-5.071l4.35-22.231,21.884-12.637,2.268,9.034a5.083,5.083,0,0,0,2.068,2.882c.907.534,7.219,4.15,8.127,4.7s2.108.374,3.59-.48l13.211-7.633Zm-17.788,66.494,4.7-24.18q.14-.62.28-1.281l4.964,19.709Z" transform="translate(-146.186 -110.082)" fill="#e0e0e0"/>
            <path id="Path_5408" data-name="Path 5408" d="M197.93,196.035c-1.188-.707-7.139-4.11-8.02-4.63a5.083,5.083,0,0,1-2.068-2.882l-2.268-9.034,6.058-3.5,4.337,17.214A5.306,5.306,0,0,0,197.93,196.035Z" transform="translate(-133.015 -88.041)" opacity="0.1"/>
            <path id="Path_5409" data-name="Path 5409" d="M190.484,174.5l-8.127-4.7-4.964-19.709v-.013c0-.027.013-.053.013-.08.427-1.922.854-4.11,1.321-6.539.574-3.029,1.108-6.258,1.615-9.715q.861,4.163,1.721,7.673c.574,2.335,1.108,4.337,1.615,6.018Z" transform="translate(-135.75 -102.17)" opacity="0.1"/>
            <path id="Path_5410" data-name="Path 5410" d="M154.575,246.343a1.9,1.9,0,0,0,2.362,2.242l-.027.107-.761.427a5,5,0,0,1-5,0l-2.455-1.415a5.012,5.012,0,0,1-2.389-5.4L173.07,120.415a9.344,9.344,0,0,1,1.334-3.163l8.127,4.7A8.915,8.915,0,0,0,181.2,125.1Z" transform="translate(-146.186 -107.684)" opacity="0.1"/>
            <path id="Path_5411" data-name="Path 5411" d="M225.923,208.638l-13.217,7.632q-2.222,1.281-3.583.476a5.057,5.057,0,0,1-2.068-2.884l-4.34-17.223-27.949,16.136-4.34,22.235a18.786,18.786,0,0,1-1.992,5.072,9.665,9.665,0,0,1-3.556,3.8L155.3,249.41a1.908,1.908,0,0,1-2.818-2.062L179.1,126.108a9.6,9.6,0,0,1,4.577-6.254l8.63-4.984a4.687,4.687,0,0,1,6.839,2.737ZM198.83,181.014l-6.81-27.061q-.757-2.51-1.616-6.018t-1.715-7.67q-.757,5.176-1.613,9.708t-1.616,7.924l-6.76,34.74Z" transform="translate(-144.095 -108.691)" fill="#fafafa"/>
          </g>
          <g id="Group_38147" data-name="Group 38147" transform="translate(123.353)">
            <path id="Path_5412" data-name="Path 5412" d="M272.463,175.084a99.166,99.166,0,0,0,6.125-12.463,110.331,110.331,0,0,0,4.537-13.584,116.555,116.555,0,0,0,2.829-14.252,109.168,109.168,0,0,0,.987-14.585,72.887,72.887,0,0,0-2.749-21.177q-2.762-8.967-7.74-13.851a18.814,18.814,0,0,0-3.843-2.909c-1.334-.761-6.685-3.87-8.007-4.63a18.249,18.249,0,0,0-8.313-2.442q-7.046-.4-15.613,4.55a57.824,57.824,0,0,0-15.639,13.451,89.551,89.551,0,0,0-12.09,19.176A112.922,112.922,0,0,0,202.433,159.6a72.751,72.751,0,0,0,2.749,21.257q2.742,8.967,7.766,13.878a18.25,18.25,0,0,0,3.883,2.936c1.321.747,6.605,3.816,7.913,4.577a18.263,18.263,0,0,0,8.42,2.442q7.046.34,15.639-4.6a50.923,50.923,0,0,0,6.926-4.8l3.309,3.8a7.151,7.151,0,0,0,1.521,1.188c.934.547,7.579,4.364,8.087,4.67a4.968,4.968,0,0,0,2.976.721,13.013,13.013,0,0,0,5.431-1.935l14.025-8.087ZM259.946,141.59a65.285,65.285,0,0,1-4.07,13.718,44.175,44.175,0,0,1-6.472,10.849,32.1,32.1,0,0,1-8.727,7.486,16.78,16.78,0,0,1-8.167,2.642,24.224,24.224,0,0,1-3.083-7.7,62.271,62.271,0,0,1-1.414-14.358,85.907,85.907,0,0,1,1.414-15.933,65.282,65.282,0,0,1,4.057-13.718,44.8,44.8,0,0,1,6.512-10.9,32.159,32.159,0,0,1,8.807-7.579,16.4,16.4,0,0,1,8.02-2.562,24.511,24.511,0,0,1,3.123,7.766,62.722,62.722,0,0,1,1.414,14.292A87.481,87.481,0,0,1,259.946,141.59Z" transform="translate(-202.433 -75.16)" fill="#e0e0e0"/>
            <path id="Path_5413" data-name="Path 5413" d="M224.411,192.33c-1.695-.974-6.352-3.683-7.579-4.377a18.251,18.251,0,0,1-3.883-2.936q-5.024-4.9-7.766-13.878a72.751,72.751,0,0,1-2.749-21.257,109.809,109.809,0,0,1,2.749-24.42,111.019,111.019,0,0,1,7.046-21.231l8.127,4.7a112.868,112.868,0,0,0-9.795,45.65,72.594,72.594,0,0,0,2.749,21.244q2.742,8.987,7.766,13.891A19.17,19.17,0,0,0,224.411,192.33Z" transform="translate(-202.433 -65.437)" opacity="0.1"/>
            <path id="Path_5414" data-name="Path 5414" d="M256.465,99.837a9.1,9.1,0,0,0-6.472-3.4c-.228-.016-.467,0-.7,0a24.522,24.522,0,0,1,3.117,7.757,62.721,62.721,0,0,1,1.414,14.292,87.481,87.481,0,0,1-1.414,16,65.283,65.283,0,0,1-4.07,13.718,44.175,44.175,0,0,1-6.472,10.849,32.1,32.1,0,0,1-8.727,7.486,16.78,16.78,0,0,1-8.167,2.642,11.043,11.043,0,0,0,.974,1.334,8.839,8.839,0,0,0,6.512,3.349c2.575.147,5.511-.721,8.807-2.629a32.1,32.1,0,0,0,8.727-7.486,44.677,44.677,0,0,0,6.472-10.849,65.173,65.173,0,0,0,4.07-13.731,87.375,87.375,0,0,0,1.414-16,62.721,62.721,0,0,0-1.414-14.292A21.649,21.649,0,0,0,256.465,99.837Z" transform="translate(-194.895 -68.048)" opacity="0.1"/>
            <path id="Path_5415" data-name="Path 5415" d="M244.682,163.682c-.761.694-1.521,1.361-2.309,2l3.309,3.8a7.15,7.15,0,0,0,1.521,1.188c.907.534,7.166,4.123,8.02,4.63a7.226,7.226,0,0,1-1.414-1.134Z" transform="translate(-189.076 -45.556)" opacity="0.1"/>
            <path id="Path_5416" data-name="Path 5416" d="M289.041,194.467l-14.026,8.1a13.148,13.148,0,0,1-5.422,1.928,5.616,5.616,0,0,1-4.466-1.89l-9.13-10.5a51.994,51.994,0,0,1-9.233,6.806q-8.579,4.952-15.641,4.6a18,18,0,0,1-12.083-5.256q-5.022-4.906-7.77-13.885a72.959,72.959,0,0,1-2.749-21.249,112.831,112.831,0,0,1,10.519-47.241,89.466,89.466,0,0,1,12.083-19.172,58.193,58.193,0,0,1,15.641-13.458q8.575-4.95,15.614-4.549a18.182,18.182,0,0,1,12.032,5.287q4.992,4.884,7.744,13.861a72.615,72.615,0,0,1,2.752,21.172,108.977,108.977,0,0,1-.985,14.587,116.735,116.735,0,0,1-2.826,14.254,110.572,110.572,0,0,1-4.54,13.574,98.066,98.066,0,0,1-6.13,12.473Zm-63.064-41.422a62.684,62.684,0,0,0,1.413,14.37,21.68,21.68,0,0,0,4.062,9.034,8.906,8.906,0,0,0,6.508,3.351q3.859.218,8.8-2.637a32.016,32.016,0,0,0,8.728-7.486,44.473,44.473,0,0,0,6.481-10.85,65.487,65.487,0,0,0,4.062-13.724,86.836,86.836,0,0,0,1.413-16,62.34,62.34,0,0,0-1.413-14.293,21.744,21.744,0,0,0-4.062-9.035,9.088,9.088,0,0,0-6.481-3.4q-3.835-.27-8.728,2.554a32.134,32.134,0,0,0-8.8,7.567,45.131,45.131,0,0,0-6.508,10.9,65.4,65.4,0,0,0-4.062,13.724A86.294,86.294,0,0,0,225.977,153.045Z" transform="translate(-200.397 -73.984)" fill="#fafafa"/>
          </g>
        </g>
      </g>
    </g>
  </g>
</svg>
