<svg xmlns="http://www.w3.org/2000/svg" width="88.048" height="88.048" viewBox="0 0 88.048 88.048">
  <g id="Group_98" data-name="Group 98" transform="translate(0 0)">
    <path id="Path_96" data-name="Path 96" d="M122.765,103.605a44.024,44.024,0,1,0-50.9,43.489V116.332H60.686V103.605H71.862v-9.7c0-11.032,6.573-17.129,16.629-17.129a67.641,67.641,0,0,1,9.855.861V88.473H92.794c-5.468,0-7.175,3.393-7.175,6.877v8.256H97.828l-1.951,12.727H85.619v30.762A44.036,44.036,0,0,0,122.765,103.605Z" transform="translate(-34.717 -59.583)" fill="#192225"/>
    <path id="Path_97" data-name="Path 97" d="M78.533,104.848l1.951-12.727H68.275V83.865c0-3.484,1.707-6.877,7.175-6.877H81V66.155a67.641,67.641,0,0,0-9.855-.861c-10.056,0-16.629,6.1-16.629,17.129v9.7H43.342v12.727H54.518v30.762a44.409,44.409,0,0,0,13.757,0V104.848Z" transform="translate(-17.373 -48.099)" fill="#fff"/>
  </g>
</svg>
