<svg id="spyware" xmlns="http://www.w3.org/2000/svg" width="108" height="108" viewBox="0 0 108 108">
  <g id="Group_38660" data-name="Group 38660">
    <g id="Group_38659" data-name="Group 38659">
      <g id="Group_38658" data-name="Group 38658">
        <g id="Group_38657" data-name="Group 38657">
          <g id="Group_38656" data-name="Group 38656">
            <g id="Group_38655" data-name="Group 38655">
              <g id="Group_38654" data-name="Group 38654">
                <g id="Group_38653" data-name="Group 38653">
                  <g id="Group_38652" data-name="Group 38652">
                    <g id="Group_38651" data-name="Group 38651">
                      <g id="Group_38650" data-name="Group 38650">
                        <g id="Group_38649" data-name="Group 38649">
                          <circle id="Ellipse_102" data-name="Ellipse 102" cx="54" cy="54" r="54" fill="#f75308"/>
                        </g>
                      </g>
                    </g>
                  </g>
                </g>
              </g>
            </g>
          </g>
        </g>
      </g>
    </g>
  </g>
  <path id="Path_5720" data-name="Path 5720" d="M123.908,116.239,78.429,120.5,103.6,145.663,79.3,158.586l18.175,18.175A54.034,54.034,0,0,0,169.7,130.428l-39.2-39.2Z" transform="translate(-61.885 -71.981)" fill="#d14100"/>
  <g id="Group_38663" data-name="Group 38663" transform="translate(15.845 17.176)">
    <path id="Path_5721" data-name="Path 5721" d="M76.693,150.857h36.581l3.634-32.433-3.634-32.55-6.7-3.645a6.561,6.561,0,0,0-9.289,3.484L89.957,105.5c-9.025,1.351-14.838,3.468-14.838,5.848,0,2.415,5.986,4.56,15.24,5.908a23.646,23.646,0,0,0,.48,13.126H84.567l5.045,8.687A45.785,45.785,0,0,0,76.693,150.857Z" transform="translate(-75.119 -81.428)" fill="#00347b"/>
    <path id="Path_5722" data-name="Path 5722" d="M294.155,111.354c0-2.38-5.813-4.5-14.838-5.848l-7.331-19.792a6.561,6.561,0,0,0-9.289-3.484L256,85.874v64.983h36.581a45.787,45.787,0,0,0-12.919-11.783l5.045-8.687h-6.273a23.649,23.649,0,0,0,.48-13.126C288.169,115.913,294.155,113.769,294.155,111.354Z" transform="translate(-217.845 -81.428)" fill="#002659"/>
    <g id="Group_38662" data-name="Group 38662" transform="translate(20.568 36.647)">
      <g id="Group_38661" data-name="Group 38661">
        <path id="Path_5723" data-name="Path 5723" d="M186,258.217a6.688,6.688,0,0,1-13.375,0v-3.054Z" transform="translate(-172.625 -255.163)" fill="#0acb72"/>
        <path id="Path_5724" data-name="Path 5724" d="M275.967,258.217a6.688,6.688,0,0,0,13.375,0v-3.054Z" transform="translate(-254.168 -255.163)" fill="#02aa56"/>
      </g>
    </g>
  </g>
</svg>
