<svg id="map_1_" data-name="map (1)" xmlns="http://www.w3.org/2000/svg" width="102.617" height="102.617" viewBox="0 0 102.617 102.617">
  <path id="Path_132" data-name="Path 132" d="M84.859,302h-67.3L0,344.089H102.616Zm0,0" transform="translate(0.001 -241.472)" fill="#9ed0ff"/>
  <path id="Path_133" data-name="Path 133" d="M307.308,344.089H256V302h33.551Zm0,0" transform="translate(-204.692 -241.472)" fill="#73bcff"/>
  <path id="Path_134" data-name="Path 134" d="M116.872,332H57.508L45,362.063h84.378Zm0,0" transform="translate(-35.981 -265.46)" fill="#3aaaff"/>
  <path id="Path_135" data-name="Path 135" d="M298.089,362.063H256V332h29.582Zm0,0" transform="translate(-204.692 -265.46)" fill="#0095ff"/>
  <path id="Path_136" data-name="Path 136" d="M148.057,0A27.27,27.27,0,0,0,121,27.258a27.9,27.9,0,0,0,4.149,14.631L148.057,78.2l22.909-36.316a27.9,27.9,0,0,0,4.149-14.631A27.27,27.27,0,0,0,148.057,0Zm0,42.49a15.233,15.233,0,1,1,15.032-15.232A15.21,15.21,0,0,1,148.057,42.49Zm0,0" transform="translate(-96.749)" fill="#ff9f00"/>
  <path id="Path_137" data-name="Path 137" d="M159.4,315.141l5.966.745-4.509,36.077-5.966-.745Zm0,0" transform="translate(-123.844 -251.98)" fill="#9ed0ff"/>
  <path id="Path_138" data-name="Path 138" d="M308.816,351.936l-4.625-36.076,5.966-.763,4.624,36.076Zm0,0" transform="translate(-243.225 -251.945)" fill="#73bcff"/>
  <path id="Path_139" data-name="Path 139" d="M67.5,392h75.359v6.013H67.5Zm0,0" transform="translate(-53.971 -313.434)" fill="#9ed0ff"/>
  <path id="Path_140" data-name="Path 140" d="M283.057,27.258a27.9,27.9,0,0,1-4.149,14.631L256,78.2V42.49a15.233,15.233,0,0,0,0-30.464V0a27.27,27.27,0,0,1,27.057,27.258Zm0,0" transform="translate(-204.691)" fill="#ff7816"/>
  <path id="Path_141" data-name="Path 141" d="M256,392h37.579v6.013H256Zm0,0" transform="translate(-204.692 -313.434)" fill="#73bcff"/>
</svg>
