<svg xmlns="http://www.w3.org/2000/svg" xmlns:xlink="http://www.w3.org/1999/xlink" width="540.374" height="455.858" viewBox="0 0 540.374 455.858">
  <defs>
    <linearGradient id="linear-gradient" x1="0.549" y1="0.096" x2="0.545" y2="0.923" gradientUnits="objectBoundingBox">
      <stop offset="0" stop-color="#fe6d2d"/>
      <stop offset="0.459" stop-color="#f75308"/>
      <stop offset="1" stop-color="#f6250a"/>
    </linearGradient>
    <linearGradient id="linear-gradient-5" x1="0.5" y1="0.181" x2="0.5" y2="1" gradientUnits="objectBoundingBox">
      <stop offset="0" stop-color="#033b5c"/>
      <stop offset="0.489" stop-color="#04466d"/>
      <stop offset="1" stop-color="#086094"/>
    </linearGradient>
    <linearGradient id="linear-gradient-18" x1="0.915" y1="0.5" x2="0.196" y2="0.12" xlink:href="#linear-gradient"/>
    <linearGradient id="linear-gradient-20" x1="0.944" y1="0.648" x2="0.174" y2="0.112" xlink:href="#linear-gradient"/>
  </defs>
  <g id="Group_38833" data-name="Group 38833" transform="translate(-332.459 -372.321)">
    <g id="Group_38830" data-name="Group 38830" transform="translate(332.459 372.321)">
      <g id="Group_38790" data-name="Group 38790" transform="translate(444.216 405.035)">
        <rect id="Rectangle_283" data-name="Rectangle 283" width="3.514" height="10.209" transform="matrix(0.248, 0.969, -0.969, 0.248, 25.023, 0)" fill="url(#linear-gradient)"/>
        <rect id="Rectangle_284" data-name="Rectangle 284" width="3.514" height="10.209" transform="translate(19.978 4.921) rotate(75.627)" fill="url(#linear-gradient)"/>
        <rect id="Rectangle_285" data-name="Rectangle 285" width="3.514" height="10.208" transform="translate(14.934 9.842) rotate(75.627)" fill="url(#linear-gradient)"/>
        <rect id="Rectangle_286" data-name="Rectangle 286" width="3.515" height="10.209" transform="translate(9.889 14.763) rotate(75.624)" fill="url(#linear-gradient)"/>
      </g>
      <g id="Group_38818" data-name="Group 38818" transform="translate(38.902 3.964)">
        <path id="Path_6041" data-name="Path 6041" d="M485.1,137.13l-92.812,54.455c-23.531-7.221-53.512-4.989-73.3,6.619-24.071,14.122-23.912,36.747.354,50.532a74.048,74.048,0,0,0,18.259,7.161,97.4,97.4,0,0,0,14.511,2.5c19.3,1.879,39.9-1.564,54.755-10.277,17.988-10.555,22.439-25.854,13.415-38.666l12.807-7.514-.363-8.131,13.477-.094-.341-7.614,13.479-.094-.341-7.615,13.479-.094-.341-7.614,13.477-.094-.339-7.615,14.389-.1,4.391-2.575,4.845-19.992ZM354.5,241.324c-6.267,3.676-16.468,3.748-22.785.16s-6.359-9.479-.092-13.155,16.468-3.748,22.785-.16S360.761,237.647,354.5,241.324Z" transform="translate(-272.716 -39.684)" fill="#202c31"/>
        <path id="Path_6042" data-name="Path 6042" d="M488.36,399.914,363.188,327.944c-8.428-4.866-7.37-13.365,2.361-18.982l121.487-70.141c9.731-5.619,24.452-6.229,32.88-1.363l125.172,71.969c8.428,4.866,7.37,13.363-2.359,18.982L521.24,398.551C511.508,404.17,496.788,404.779,488.36,399.914Z" transform="translate(-225.2 41.996)" fill="#202c31"/>
        <g id="Group_38793" data-name="Group 38793" transform="translate(97.535 145.933)">
          <g id="Group_38791" data-name="Group 38791" transform="translate(173.912)">
            <path id="Path_6043" data-name="Path 6043" d="M571.516,296.262l-21.642-12.494L629.663,237.7c3.768-2.177,3.768-5.717,0-7.892L548.152,182.75a15.121,15.121,0,0,0-13.669,0l-79.789,46.066-21.64-12.494,79.789-46.066c15.7-9.065,41.248-9.065,56.948,0L651.3,217.317c15.7,9.065,15.7,23.815,0,32.88Z" transform="translate(-433.054 -163.457)" fill="url(#linear-gradient-5)"/>
          </g>
          <g id="Group_38792" data-name="Group 38792" transform="translate(0 22.946)">
            <path id="Path_6044" data-name="Path 6044" d="M683.983,291.277c0-11.569-7.033-25.008-15.711-30.019L523.711,177.794c-3.886-2.243-7.437-2.4-10.179-.869l-.007-.006-172.606,100.3L507.834,403l170.05-98.7a7.874,7.874,0,0,0,1.5-.871l0,0h0C682.226,301.275,683.983,297.056,683.983,291.277Z" transform="translate(-336.691 -175.917)" fill="#fff4e1"/>
            <path id="Path_6045" data-name="Path 6045" d="M441.571,357.916l170.05-98.7a7.877,7.877,0,0,0,1.5-.871l0,0h0c2.838-2.151,4.595-6.37,4.595-12.15a38.543,38.543,0,0,0-4.234-16.719L419.644,341.393Z" transform="translate(-270.429 -130.836)" fill="#173d7a"/>
            <path id="Path_6046" data-name="Path 6046" d="M498.9,357.128,354.333,273.664c-8.676-5.009-15.71-18.45-15.71-30.018h0c0-11.569,7.033-16.886,15.71-11.877L498.9,315.233c8.676,5.009,15.71,18.448,15.71,30.018h0C514.605,356.82,507.572,362.137,498.9,357.128Z" transform="translate(-338.623 -130.493)" fill="url(#linear-gradient-5)"/>
          </g>
          <path id="Path_6047" data-name="Path 6047" d="M423.266,292.261l-17.38-10.026a7.5,7.5,0,0,1-3.133-5.984h0c0-2.306,1.4-3.365,3.133-2.367l17.38,10.026a7.5,7.5,0,0,1,3.131,5.984h0C426.4,292.2,425,293.259,423.266,292.261Z" transform="translate(-284.646 -70.828)" fill="#fff"/>
        </g>
        <g id="Group_38817" data-name="Group 38817">
          <g id="Group_38816" data-name="Group 38816">
            <path id="Path_6048" data-name="Path 6048" d="M343.029,156.222l29.7,16.872,30.307-17.782-.081-7.735-.258.152-.024-.546,13.478-.094-.08-7.616,13.217-.092-.079-7.616,13.217-.092-.079-7.616,13.217-.092-.079-7.616,14.13-.1,4.39-2.576,4.846-19.992-.081-7.735-2.338,7.412L455.043,90.5Z" transform="translate(-237.38 -82.766)" fill="#396caa"/>
            <g id="Group_38815" data-name="Group 38815">
              <g id="Group_38814" data-name="Group 38814">
                <g id="Group_38809" data-name="Group 38809" transform="translate(33.526)">
                  <g id="Group_38795" data-name="Group 38795" transform="translate(72.043)">
                    <g id="Group_38794" data-name="Group 38794">
                      <path id="Path_6049" data-name="Path 6049" d="M372.686,166.812l30.306-17.781-.363-8.13,13.478-.094-.34-7.614,13.478-.094-.34-7.614,13.478-.094-.34-7.614,13.478-.094-.34-7.614,14.391-.1,4.39-2.576L478.808,87.4,455,84.219,342.985,149.94Z" transform="translate(-342.985 -84.219)" fill="#fff4e1"/>
                    </g>
                  </g>
                  <g id="Group_38797" data-name="Group 38797" transform="translate(72.042 52.879)">
                    <g id="Group_38796" data-name="Group 38796">
                      <path id="Path_6050" data-name="Path 6050" d="M392.869,130.8A41.759,41.759,0,0,0,379.1,118.937a71.047,71.047,0,0,0-14.227-6.006l-21.89,12.842,29.7,16.872Z" transform="translate(-342.985 -112.931)" fill="#396caa"/>
                    </g>
                  </g>
                  <g id="Group_38799" data-name="Group 38799" transform="translate(109.227 2.646)">
                    <g id="Group_38798" data-name="Group 38798">
                      <path id="Path_6051" data-name="Path 6051" d="M461,89.545l.813-3.355-3.995-.534-94.643,55.529,4.985,2.831Z" transform="translate(-363.176 -85.656)" fill="#5793ce"/>
                    </g>
                  </g>
                  <g id="Group_38801" data-name="Group 38801" transform="translate(0.008 86.861)">
                    <g id="Group_38800" data-name="Group 38800">
                      <path id="Path_6052" data-name="Path 6052" d="M304.2,142.378l-.327-11,3.52,7.426Z" transform="translate(-303.872 -131.383)" fill="#d3d0cf"/>
                    </g>
                  </g>
                  <path id="Path_6053" data-name="Path 6053" d="M322.351,178.8c24.266,13.785,63.452,13.512,87.522-.611,12.069-7.081,18.043-16.3,17.945-25.467l0,.006-.337-11.651-1.978,2.2c-2.792-5.742-8.113-11.15-15.988-15.623-24.268-13.785-63.452-13.511-87.522.611S298.083,165.019,322.351,178.8ZM357.4,158.236c6.317,3.589,6.359,9.479.092,13.155s-16.468,3.748-22.785.16-6.359-9.479-.092-13.155S351.087,154.646,357.4,158.236Z" transform="translate(-303.718 -56.208)" fill="#396caa"/>
                  <g id="Group_38803" data-name="Group 38803" transform="translate(0 50.3)">
                    <g id="Group_38802" data-name="Group 38802">
                      <path id="Path_6054" data-name="Path 6054" d="M322.171,172.835c24.268,13.785,63.453,13.511,87.524-.611s23.911-36.747-.355-50.532-63.452-13.511-87.522.613S297.905,159.05,322.171,172.835Zm35.055-20.566c6.317,3.588,6.359,9.477.092,13.155s-16.468,3.748-22.785.158-6.359-9.477-.092-13.155S350.909,148.68,357.226,152.269Z" transform="translate(-303.867 -111.531)" fill="#f2f2f2"/>
                    </g>
                  </g>
                  <path id="Path_6055" data-name="Path 6055" d="M350.155,163.4c-5.339.834-11.245.1-15.448-2.282-4.531-2.575-5.814-6.328-3.879-9.6L319.835,142.8s-5.746-6.483-11.435-12.91c-8.851,12.938-4.192,28.178,13.947,38.482,8,4.545,16.968,7.127,27.137,8.625Z" transform="translate(-303.714 -45.778)" fill="#5793ce"/>
                  <g id="Group_38805" data-name="Group 38805" transform="translate(0 50.3)">
                    <g id="Group_38804" data-name="Group 38804">
                      <path id="Path_6056" data-name="Path 6056" d="M322.171,172.835A73.906,73.906,0,0,0,340.43,180a97.16,97.16,0,0,0,14.511,2.5c19.3,1.879,39.9-1.564,54.755-10.277,24.071-14.124,23.911-36.747-.355-50.532s-63.452-13.511-87.522.613S297.905,159.05,322.171,172.835Zm35.055-20.566c6.317,3.588,6.359,9.477.092,13.155s-16.468,3.748-22.785.158-6.359-9.477-.092-13.155S350.909,148.68,357.226,152.269Z" transform="translate(-303.867 -111.531)" fill="#fff4e1"/>
                    </g>
                  </g>
                  <g id="Group_38808" data-name="Group 38808" transform="translate(6.837 54.24)">
                    <g id="Group_38807" data-name="Group 38807">
                      <g id="Group_38806" data-name="Group 38806">
                        <path id="Path_6057" data-name="Path 6057" d="M307.582,146c1.18-7.043,6.4-13.923,15.7-19.378,21.417-12.566,56.28-12.809,77.87-.545,10.73,6.1,16.15,14.133,16.273,22.218,1.538-9.181-3.8-18.64-16.015-25.579-21.59-12.266-56.455-12.021-77.87.543C312.764,129.576,307.459,137.812,307.582,146Z" transform="translate(-307.58 -113.67)" fill="#396caa"/>
                      </g>
                    </g>
                  </g>
                </g>
                <g id="Group_38813" data-name="Group 38813" transform="translate(0 84.66)">
                  <g id="Group_38812" data-name="Group 38812">
                    <g id="Group_38811" data-name="Group 38811">
                      <g id="Group_38810" data-name="Group 38810">
                        <path id="Path_6058" data-name="Path 6058" d="M311.43,232.111a24.279,24.279,0,0,1-12.142-3.133c-8.7-4.934-13.536-14.851-13.623-27.925-.171-23.844,16.426-53.063,37-65.133,11.269-6.614,22.264-7.538,30.961-2.6a24.318,24.318,0,0,1,9,9c3.017,5.14,4.571,11.507,4.621,18.925.169,23.844-16.43,53.065-37,65.133C323.752,230.19,317.351,232.111,311.43,232.111Zm30.029-93.158c-4.368,0-9.264,1.516-14.371,4.514-18.166,10.658-32.826,36.464-32.675,57.527.066,9.814,3.332,17.05,9.194,20.376s13.746,2.431,22.211-2.534c18.168-10.658,32.826-36.464,32.679-57.527-.039-5.779-1.221-10.813-3.418-14.555h0a15.2,15.2,0,0,0-13.619-7.8Z" transform="translate(-285.663 -130.188)" fill="url(#linear-gradient-5)"/>
                      </g>
                    </g>
                  </g>
                </g>
              </g>
            </g>
          </g>
          <path id="Path_6059" data-name="Path 6059" d="M323.546,149.38l17.277,4.234,2.481-12.82c-6.265,3.676-16.468,3.748-22.785.158Z" transform="translate(-256.327 -36.601)" fill="#fff4e1"/>
          <path id="Path_6060" data-name="Path 6060" d="M313.806,145.82a73.9,73.9,0,0,0,18.259,7.16,97.155,97.155,0,0,0,14.511,2.5c19.3,1.879,39.9-1.564,54.755-10.277l-70.358-1.58Z" transform="translate(-261.976 -34.215)" fill="#fff4e1"/>
          <path id="Path_6061" data-name="Path 6061" d="M334.905,151.441a102.158,102.158,0,0,1-15.28-3.938v10.8a83.808,83.808,0,0,0,15.095,3.869C350.829,164.3,334.905,151.441,334.905,151.441Z" transform="translate(-257.078 -30.954)" fill="#396caa"/>
        </g>
        <path id="Path_6062" data-name="Path 6062" d="M328.034,150.233a71.664,71.664,0,0,1-9.952-3.672c-9.411-4.405,2.494,11.916,2.494,11.916s3.206,1.278,7.459,2.582Z" transform="translate(-261.426 -32.382)" fill="#5793ce"/>
      </g>
      <path id="Path_6063" data-name="Path 6063" d="M438.588,251.315,407.8,271.169l-14.985-2.433,36.6-17.694Z" transform="translate(-156.57 60.157)" fill="#5793ce"/>
      <g id="Group_38823" data-name="Group 38823" transform="translate(176.833 42.791)">
        <g id="Group_38820" data-name="Group 38820" transform="translate(6.677)">
          <path id="Path_6064" data-name="Path 6064" d="M410.161,306.29s-8.866-4.472-14.312,2.186-13.231,22.378-13.472,33,8.405,9.9,13.546,7.389,20.154-24.292,21.063-28.559-1.072-10.039-2.518-11.168S410.161,306.29,410.161,306.29Z" transform="translate(-348.872 62.631)" fill="url(#linear-gradient-5)"/>
          <path id="Path_6065" data-name="Path 6065" d="M406.185,305.428l.411,9.186a5.21,5.21,0,0,1-2.6,4.779,10.217,10.217,0,0,1-6.84,1.063c-6.68-1.074-7.275-2.982-7.753-12.166S406.185,305.428,406.185,305.428Z" transform="translate(-342.961 61.356)" fill="#5793ce"/>
          <g id="Group_38819" data-name="Group 38819" transform="translate(0 162.984)">
            <path id="Path_6066" data-name="Path 6066" d="M392.537,296.7s-8.866-4.472-14.312,2.186-13.231,22.377-13.472,33,8.405,9.9,13.546,7.391,20.154-24.292,21.063-28.561-1.072-10.037-2.518-11.166S392.537,296.7,392.537,296.7Z" transform="translate(-363.706 -108.426)" fill="url(#linear-gradient-5)"/>
            <path id="Path_6067" data-name="Path 6067" d="M388.561,295.837l.411,9.186a5.211,5.211,0,0,1-2.6,4.779,10.229,10.229,0,0,1-6.84,1.063c-6.68-1.074-7.276-2.982-7.753-12.166S388.561,295.837,388.561,295.837Z" transform="translate(-357.795 -109.7)" fill="#5793ce"/>
            <path id="Path_6068" data-name="Path 6068" d="M474.069,211.275c-2.624-42.7-46.245,6.282-46.245,6.282L397.971,246.82l-26.885,29.533a26.5,26.5,0,0,0-6.678,21.288l10.875,82.81a8.138,8.138,0,0,0,8.162,7.072,27.468,27.468,0,0,0,4.028-.352c9.7-1.512,8.986-10.735,8.986-10.735l-1.987-77.452,56.459-34.034S476.694,253.976,474.069,211.275Z" transform="translate(-364.182 -193.799)" fill="#fff4e1"/>
          </g>
          <path id="Path_6069" data-name="Path 6069" d="M402.2,244.312l-8.033-2.95c-.188,0-13.658,13.028-13.54,17.588l6.044,1.939,15.176-14.732Z" transform="translate(-350.34 9.219)" fill="#5793ce"/>
          <path id="Path_6070" data-name="Path 6070" d="M423.589,268.728s33.552-19.157,37.569-27.189c1.573-3.146,4.017-6.433-5.774-11.186l-44.746,31.9,1.939,10.982Z" transform="translate(-325.082 -0.047)" fill="#5793ce"/>
          <path id="Path_6071" data-name="Path 6071" d="M491.693,220.22c-2.8-42.69-46.245,6.284-46.245,6.284l-29.854,29.263L388.71,285.3a26.5,26.5,0,0,0-6.678,21.288L392.909,389.4a8.136,8.136,0,0,0,8.16,7.072,27.73,27.73,0,0,0,4.028-.352c9.7-1.512,8.986-10.737,8.986-10.737L412.1,307.93,468.554,273.9S494.251,259.25,491.693,220.22Z" transform="translate(-349.349 -23.282)" fill="#fff4e1"/>
          <path id="Path_6072" data-name="Path 6072" d="M456.619,139.866c33.071,13.71,32.408,33.259,32.408,33.259s-6.479,71.667-4.267,119.529c.925,20.01-106.306,21.537-90.314-31.845,18.855-62.94,11.787-113.894,20.614-121.577S448.064,136.319,456.619,139.866Z" transform="translate(-340.08 -80.21)" fill="url(#linear-gradient-5)"/>
          <path id="Path_6073" data-name="Path 6073" d="M448.471,154.937c-1.729,6.715-10.527,10.255-19.649,7.9s-15.115-9.7-13.385-16.413,10.527-10.253,19.649-7.9S450.2,148.224,448.471,154.937Z" transform="translate(-321.293 -77.949)" fill="#ffc2b0"/>
          <path id="Path_6074" data-name="Path 6074" d="M435.131,165.861a24,24,0,0,1-5.976-.768,22.012,22.012,0,0,1-11.6-7.1c-2.855-3.5-3.9-7.488-2.928-11.236,1.941-7.549,11.623-11.608,21.574-9.041a22.016,22.016,0,0,1,11.593,7.1c2.855,3.5,3.9,7.488,2.928,11.234C449.179,162.065,442.722,165.861,435.131,165.861ZM430.153,140.1c-6.142,0-11.279,2.858-12.461,7.448-.707,2.748.114,5.75,2.319,8.45a18.833,18.833,0,0,0,9.93,6.037c8.264,2.122,16.214-.906,17.724-6.765.707-2.748-.114-5.75-2.319-8.45a18.817,18.817,0,0,0-9.93-6.039A21.2,21.2,0,0,0,430.153,140.1Z" transform="translate(-322.017 -78.669)" fill="#fff"/>
          <path id="Path_6075" data-name="Path 6075" d="M420.392,139.9s.287,1.326-.285,11.805c-.181,3.295,11.356,6.372,14.338,3.391s1.788-6.083,2.5-17.3S420.392,139.9,420.392,139.9Z" transform="translate(-317.114 -81.731)" fill="#ffc2b0"/>
          <path id="Path_6076" data-name="Path 6076" d="M436.949,135.744s-2.842,10.4-16.844,14.384l.212-9.45Z" transform="translate(-317.113 -79.679)" fill="#ea9c92"/>
          <path id="Path_6077" data-name="Path 6077" d="M456.968,130.126a25.456,25.456,0,1,1-31.018-18.273A25.457,25.457,0,0,1,456.968,130.126Z" transform="translate(-328.261 -100.475)" fill="#ffc2b0"/>
          <path id="Path_6078" data-name="Path 6078" d="M438.249,128.179s-14.015,6-23.719,6.072-7.566-8.057-7.566-8.057l28.808-4.164Z" transform="translate(-328.342 -91.222)" fill="#ea9c92"/>
          <path id="Path_6079" data-name="Path 6079" d="M416.694,143.841s12.209-5.182,22.92-3.022a11.22,11.22,0,0,1,6.472,3.847,3.822,3.822,0,0,0,1.96,1.416c1.9.431,5.007-7.45,8.7-7.628s6.155,2.433,3.127,7.28-2,10.269-.61,11.046,16.164-10.536,3.135-36.349-46.13-11.91-51.28-6.678c0,0-5.424,4.724-9.833.519C401.285,114.273,396.34,151.308,416.694,143.841Z" transform="translate(-333.399 -105.302)" fill="#ff2c9c"/>
          <path id="Path_6080" data-name="Path 6080" d="M454.343,189.221v19.365a7.894,7.894,0,0,1-2.575,5.831l-39.782,36.268,4.52,6.914,52.536-38.1a10.676,10.676,0,0,0,4.352-7.527l3.551-33.773Z" transform="translate(-323.947 -43.946)" fill="#ffc2b0"/>
          <path id="Path_6081" data-name="Path 6081" d="M452.063,150.495s12.069,18.15,16.564,65.927c0,0-20.616,6.667-32.316,2.882S452.063,150.495,452.063,150.495Z" transform="translate(-305.916 -67.263)" fill="url(#linear-gradient-5)"/>
          <path id="Path_6082" data-name="Path 6082" d="M436.071,162.956s-4.726,25.286-4.993,37.171a7.585,7.585,0,0,0,4.993,7.326h0Z" transform="translate(-307.879 -56.775)" fill="#396caa"/>
        </g>
        <g id="Group_38821" data-name="Group 38821" transform="translate(6.359 192.28)">
          <path id="Path_6083" data-name="Path 6083" d="M482.2,247.061,473.4,245.9l-56.759-32.769a7.892,7.892,0,0,0-7.1.293l-40.219,23.213-5.315-.7v5.293h0a2.074,2.074,0,0,0,1.221,1.864l64.325,37.138a7.889,7.889,0,0,0,7.1-.295l43.8-25.279a2.866,2.866,0,0,0,1.737-2.389h0Z" transform="translate(-364.008 -207.42)" fill="#173d7a"/>
          <path id="Path_6084" data-name="Path 6084" d="M439.551,221.051l-4.033-2.328H391.184l-21.857,12.61-5.315-.7v5.293h0a2.074,2.074,0,0,0,1.221,1.864l64.325,37.138a6.645,6.645,0,0,0,3.663.685Z" transform="translate(-364.008 -202.117)" fill="#396caa"/>
          <path id="Path_6085" data-name="Path 6085" d="M366.371,225.5l-2.359-.311v5.293h0a2.073,2.073,0,0,0,1.221,1.864l1.135.654Z" transform="translate(-364.008 -196.674)" fill="#5793ce"/>
          <path id="Path_6086" data-name="Path 6086" d="M399.955,253.69a8.245,8.245,0,0,0,6.033-.374V244.31h-6.033Z" transform="translate(-333.756 -180.58)" fill="#274f89"/>
          <path id="Path_6087" data-name="Path 6087" d="M429.563,277.226l-64.325-37.138c-1.82-1.052-1.591-2.886.51-4.1l43.8-25.279a7.893,7.893,0,0,1,7.1-.295l64.325,37.138c1.82,1.052,1.591,2.886-.51,4.1l-43.8,25.279A7.889,7.889,0,0,1,429.563,277.226Z" transform="translate(-364.01 -209.706)" fill="#fff"/>
          <path id="Path_6088" data-name="Path 6088" d="M423.923,265.394l-53.484-30.88c-1.514-.873-1.324-2.4.424-3.407l23.471-13.2a6.56,6.56,0,0,1,5.9-.243l53.486,30.878c1.512.875,1.322,2.4-.425,3.409l-23.471,13.2A6.555,6.555,0,0,1,423.923,265.394Z" transform="translate(-359.459 -203.504)" fill="#d4ecff"/>
        </g>
        <path id="Path_6089" data-name="Path 6089" d="M390.557,210.609l-.667,4.438a32.811,32.811,0,0,0,.291,11.38l.792,3.912a5.5,5.5,0,0,0,4.407,4.321h0a3.034,3.034,0,0,0,3.558-2.648L400,222.523s2.427,3.182,3.6,3.182-1.311-9.5-3.963-14.881S390.557,210.609,390.557,210.609Z" transform="translate(-336.172 -18.544)" fill="#ffc2b0"/>
        <path id="Path_6090" data-name="Path 6090" d="M413.8,177.409l-6.9,13.662a26.766,26.766,0,0,0-2.823,10.369l-3,46.724L392,247.947l-4.122-52.471a19.28,19.28,0,0,1,.234-4.851l4.709-26.609Z" transform="translate(-337.613 -55.882)" fill="#ffc2b0"/>
        <g id="Group_38822" data-name="Group 38822" transform="translate(0 164.458)">
          <path id="Path_6091" data-name="Path 6091" d="M429.777,293.507l-5.394-7.041-56.718-32.837a7.89,7.89,0,0,1-3.286-6.3l.048-46.434-3.26-4.258,3.063-1.775,0,.006a2.067,2.067,0,0,1,2.225.127l64.278,37.217a7.887,7.887,0,0,1,3.286,6.3l-.053,50.571a2.865,2.865,0,0,1-1.2,2.7h0Z" transform="translate(-360.044 -194.599)" fill="#173d7a"/>
          <path id="Path_6092" data-name="Path 6092" d="M390.553,266.88l-4.03-2.333L364.4,226.127l.022-25.233-3.26-4.258,3.063-1.775,0,.006a2.067,2.067,0,0,1,2.225.127l64.278,37.217a6.657,6.657,0,0,1,2.422,2.833Z" transform="translate(-360.044 -194.599)" fill="#396caa"/>
          <path id="Path_6093" data-name="Path 6093" d="M362.613,198.526l-1.446-1.89,3.063-1.775,0,.006a2.067,2.067,0,0,1,2.225.127l1.133.656Z" transform="translate(-360.044 -194.599)" fill="#5793ce"/>
          <path id="Path_6094" data-name="Path 6094" d="M402.278,215.244a8.238,8.238,0,0,1,2.685,5.415l-6.282,3.626-3.009-5.227Z" transform="translate(-331.001 -177.222)" fill="#274f89"/>
          <path id="Path_6095" data-name="Path 6095" d="M428.187,233.173l-64.277-37.215c-1.82-1.053-3.3.061-3.3,2.486l-.055,50.571a7.9,7.9,0,0,0,3.287,6.3l64.278,37.215c1.818,1.053,3.295-.061,3.3-2.486l.053-50.571A7.887,7.887,0,0,0,428.187,233.173Z" transform="translate(-360.557 -193.79)" fill="#5793ce"/>
        </g>
        <path id="Path_6096" data-name="Path 6096" d="M424.126,224.471,423.1,226.6a14.285,14.285,0,0,1-5.372,5.956l-6.385,3.936a6.358,6.358,0,0,1-6.518.151c-.072-.042-.146-.087-.217-.131a3.843,3.843,0,0,1-.543-5.9l6.672-6.858s-3.748,2.871-4.8,1.715c-.77-.847,3.635-4.984,7.019-5.118s6.654-2.794,6.654-2.794Z" transform="translate(-324.89 -10.818)" fill="#ffc2b0"/>
        <path id="Path_6097" data-name="Path 6097" d="M420.941,137.295s-24.459,26.614-34.325,51.03c0,0,8.363,15.069,28.837,20.98S420.941,137.295,420.941,137.295Z" transform="translate(-338.623 -78.373)" fill="url(#linear-gradient-5)"/>
        <path id="Path_6098" data-name="Path 6098" d="M402.23,193.04l3.965-38.3-9.341,35.88A53.13,53.13,0,0,0,402.23,193.04Z" transform="translate(-330.006 -63.686)" fill="#396caa"/>
        <path id="Path_6099" data-name="Path 6099" d="M418.206,135.2l-6.573-1.8s3.138,4.936,7.719,6.194,5.293-2.619,5.293-2.619Z" transform="translate(-317.567 -81.652)" fill="#fff"/>
      </g>
      <path id="Path_6100" data-name="Path 6100" d="M355.881,119.262a18.41,18.41,0,1,1,18.409-18.41A18.431,18.431,0,0,1,355.881,119.262Zm0-32.8a14.392,14.392,0,1,0,14.391,14.393A14.407,14.407,0,0,0,355.881,86.46Z" transform="translate(-203.154 -81.752)" fill="url(#linear-gradient)"/>
      <path id="Path_6101" data-name="Path 6101" d="M555.521,186.4a13.055,13.055,0,1,1,13.054-13.054A13.071,13.071,0,0,1,555.521,186.4Zm0-22.091a9.036,9.036,0,1,0,9.035,9.037A9.047,9.047,0,0,0,555.521,164.308Z" transform="translate(-30.614 -16.228)" fill="url(#linear-gradient-5)"/>
      <path id="Path_6102" data-name="Path 6102" d="M321.189,314.812l-8.862-18.021,18.021-8.86,8.862,18.021Zm-3.484-16.19,5.315,10.814,10.813-5.315-5.315-10.812Z" transform="translate(-224.318 91.207)" fill="url(#linear-gradient-5)"/>
      <path id="Path_6103" data-name="Path 6103" d="M463.214,163.14l-8.86-18.025,18.021-8.86,8.86,18.023Zm-3.484-16.192,5.315,10.814,10.812-5.315-5.313-10.814Z" transform="translate(-104.776 -36.457)" fill="url(#linear-gradient-5)"/>
      <rect id="Rectangle_287" data-name="Rectangle 287" width="9.233" height="9.233" transform="translate(64.384 300.189) rotate(-26.18)" fill="url(#linear-gradient)"/>
      <g id="Group_38826" data-name="Group 38826" transform="translate(339.314 0)">
        <g id="Group_38824" data-name="Group 38824">
          <path id="Path_6104" data-name="Path 6104" d="M506.162,110.958l-49.243-28.43a2.519,2.519,0,0,0-2.545-.2l0-.031L449.6,85.051l3.357,1.227v35.861c0,2.917,1.773,6.308,3.961,7.571l47.068,27.174v4.208l4.825-2.779-.026-.009a3.511,3.511,0,0,0,1.339-3.158V118.529C510.125,115.612,508.352,112.221,506.162,110.958Z" transform="translate(-448.092 -82.067)" fill="url(#linear-gradient-18)"/>
          <path id="Path_6105" data-name="Path 6105" d="M501.987,159.67l-49.243-28.432c-2.188-1.263-3.963-4.652-3.963-7.569V87.053c0-2.917,1.775-4.26,3.963-3l49.243,28.432c2.188,1.263,3.963,4.652,3.963,7.569v36.616C505.951,159.593,504.175,160.934,501.987,159.67Z" transform="translate(-448.781 -80.792)" fill="url(#linear-gradient)"/>
        </g>
        <g id="Group_38825" data-name="Group 38825" transform="translate(13.877 31.62)">
          <path id="Path_6106" data-name="Path 6106" d="M462.963,105.445c0,2.118-1.488,2.978-3.324,1.917a7.344,7.344,0,0,1-3.322-5.753c0-2.12,1.488-2.978,3.322-1.919A7.341,7.341,0,0,1,462.963,105.445Z" transform="translate(-456.316 -99.236)" fill="#fff"/>
          <path id="Path_6107" data-name="Path 6107" d="M468.427,108.6c0,2.12-1.488,2.978-3.323,1.919a7.342,7.342,0,0,1-3.322-5.755c0-2.118,1.486-2.978,3.322-1.919A7.35,7.35,0,0,1,468.427,108.6Z" transform="translate(-451.715 -96.58)" fill="#fff"/>
          <path id="Path_6108" data-name="Path 6108" d="M473.892,111.756c0,2.118-1.486,2.976-3.322,1.917a7.344,7.344,0,0,1-3.322-5.755c0-2.118,1.488-2.976,3.322-1.917A7.339,7.339,0,0,1,473.892,111.756Z" transform="translate(-447.116 -93.924)" fill="#fff"/>
        </g>
      </g>
      <g id="Group_38829" data-name="Group 38829" transform="translate(0 312.077)">
        <g id="Group_38827" data-name="Group 38827">
          <path id="Path_6109" data-name="Path 6109" d="M320.833,279.861l-48.309-27.89a2.469,2.469,0,0,0-2.5-.2l0-.031-4.687,2.707s2.076.757,3.293,1.2v35.182c0,2.862,1.74,6.186,3.888,7.426l46.175,26.66v4.127l4.735-2.726-.026-.009a3.445,3.445,0,0,0,1.313-3.1V287.289C324.721,284.427,322.98,281.1,320.833,279.861Z" transform="translate(-263.864 -251.518)" fill="url(#linear-gradient-20)"/>
          <path id="Path_6110" data-name="Path 6110" d="M316.737,327.65l-48.309-27.892c-2.147-1.239-3.888-4.564-3.888-7.428V256.41c0-2.864,1.74-4.179,3.888-2.939l48.309,27.892c2.147,1.239,3.888,4.564,3.888,7.426V324.71C320.625,327.572,318.884,328.889,316.737,327.65Z" transform="translate(-264.54 -250.268)" fill="url(#linear-gradient)"/>
        </g>
        <g id="Group_38828" data-name="Group 38828" transform="translate(13.614 31.02)">
          <path id="Path_6111" data-name="Path 6111" d="M278.451,274.453c0,2.077-1.459,2.921-3.26,1.88a7.207,7.207,0,0,1-3.26-5.645c0-2.079,1.46-2.921,3.26-1.882A7.2,7.2,0,0,1,278.451,274.453Z" transform="translate(-271.932 -268.361)" fill="#fff"/>
          <path id="Path_6112" data-name="Path 6112" d="M283.814,277.547c0,2.079-1.461,2.921-3.26,1.882a7.2,7.2,0,0,1-3.26-5.647c0-2.077,1.459-2.921,3.26-1.88A7.207,7.207,0,0,1,283.814,277.547Z" transform="translate(-267.419 -265.756)" fill="#fff"/>
          <path id="Path_6113" data-name="Path 6113" d="M289.176,280.644c0,2.077-1.46,2.921-3.26,1.88a7.2,7.2,0,0,1-3.26-5.645c0-2.079,1.459-2.921,3.26-1.882A7.21,7.21,0,0,1,289.176,280.644Z" transform="translate(-262.906 -263.15)" fill="#fff"/>
        </g>
      </g>
    </g>
  </g>
</svg>
