<svg xmlns="http://www.w3.org/2000/svg" width="108" height="108" viewBox="0 0 108 108">
  <g id="Group_38664" data-name="Group 38664" transform="translate(-1188 -1667)">
    <circle id="Ellipse_108" data-name="Ellipse 108" cx="54" cy="54" r="54" transform="translate(1188 1667)" fill="#f75308"/>
    <g id="account" transform="translate(1208 1688.219)">
      <path id="Path_5725" data-name="Path 5725" d="M108.174,185.683a10.97,10.97,0,0,1-2.686,2.7l8.351,8.249a11.54,11.54,0,0,1,1.713-3.664Z" transform="translate(-92.046 -161.861)" fill="#002659"/>
      <circle id="Ellipse_103" data-name="Ellipse 103" cx="7.189" cy="7.189" r="7.189" transform="translate(0 10.435)" fill="#002659"/>
      <path id="Path_5726" data-name="Path 5726" d="M335.587,184.795l-7.044,6.616a11.594,11.594,0,0,1,1.973,3.375l7.725-7.256A10.971,10.971,0,0,1,335.587,184.795Z" transform="translate(-286.679 -161.087)" fill="#002659"/>
      <circle id="Ellipse_104" data-name="Ellipse 104" cx="7.189" cy="7.189" r="7.189" transform="translate(48.553 21.511) rotate(-67.486)" fill="#002659"/>
      <path id="Path_5727" data-name="Path 5727" d="M15.173,411.221a10.313,10.313,0,0,1-10.535-3.933A12.762,12.762,0,0,0,0,417.133v3.474H14.278v-3.666A18.635,18.635,0,0,1,15.173,411.221Z" transform="translate(0 -355.229)" fill="#002659"/>
      <circle id="Ellipse_105" data-name="Ellipse 105" cx="6.64" cy="6.64" r="6.64" transform="translate(6.295 39.264)" fill="#002659"/>
      <path id="Path_5728" data-name="Path 5728" d="M400.87,413.767a10.331,10.331,0,0,1-2.15-.227,18.639,18.639,0,0,1,.889,5.7v3.666h13.545v-3.474a12.754,12.754,0,0,0-4.25-9.509A10.318,10.318,0,0,1,400.87,413.767Z" transform="translate(-347.914 -357.528)" fill="#002659"/>
      <path id="Path_5729" data-name="Path 5729" d="M203.647,68.234l2.848,2.531a5.033,5.033,0,0,1,7.543,0l2.848-2.531a8.844,8.844,0,0,0-13.24,0Z" transform="translate(-177.698 -56.778)" fill="#002659"/>
      <path id="Path_5730" data-name="Path 5730" d="M167.966,4a13.326,13.326,0,0,1,9.949,4.48l2.848-2.531a17.1,17.1,0,0,0-25.594,0l2.848,2.531A13.325,13.325,0,0,1,167.966,4Z" transform="translate(-135.397)" fill="#002659"/>
      <path id="Path_5731" data-name="Path 5731" d="M161.782,374.111a11.565,11.565,0,0,1-11.437,0,15.036,15.036,0,0,0-9.295,13.881v3.666h30.027v-3.666A15.037,15.037,0,0,0,161.782,374.111Z" transform="translate(-123.077 -326.279)" fill="#002659"/>
      <circle id="Ellipse_106" data-name="Ellipse 106" cx="7.89" cy="7.89" r="7.89" transform="translate(21.823 37.759) rotate(-45)" fill="#002659"/>
      <circle id="Ellipse_107" data-name="Ellipse 107" cx="6.64" cy="6.64" r="6.64" transform="translate(46.316 39.264)" fill="#002659"/>
    </g>
  </g>
</svg>
