<svg xmlns="http://www.w3.org/2000/svg" xmlns:xlink="http://www.w3.org/1999/xlink" width="1014" height="220" viewBox="0 0 1014 220">
  <defs>
    <linearGradient id="linear-gradient" x1="0.549" y1="0.096" x2="0.545" y2="0.923" gradientUnits="objectBoundingBox">
      <stop offset="0" stop-color="#fe6d2d"/>
      <stop offset="0.459" stop-color="#f75308"/>
      <stop offset="1" stop-color="#f6250a"/>
    </linearGradient>
    <clipPath id="clip-path">
      <rect id="Rectangle_319" data-name="Rectangle 319" width="1014" height="220" rx="7" transform="translate(0 0.494)" fill="url(#linear-gradient)"/>
    </clipPath>
    <linearGradient id="linear-gradient-2" x1="0.489" y1="0.132" x2="0.518" y2="1.124" gradientUnits="objectBoundingBox">
      <stop offset="0" stop-color="#1c3226"/>
      <stop offset="0.05" stop-color="#1c3226" stop-opacity="0.929"/>
      <stop offset="0.297" stop-color="#1c3226" stop-opacity="0.631"/>
      <stop offset="0.515" stop-color="#1c3226" stop-opacity="0.349"/>
      <stop offset="0.697" stop-color="#1c3226" stop-opacity="0.161"/>
      <stop offset="0.836" stop-color="#2390ff" stop-opacity="0.043"/>
      <stop offset="0.915" stop-color="#2390ff" stop-opacity="0"/>
      <stop offset="1" stop-color="#2390ff" stop-opacity="0"/>
    </linearGradient>
    <linearGradient id="linear-gradient-3" x1="0.5" y1="1" x2="0.5" gradientUnits="objectBoundingBox">
      <stop offset="0" stop-color="#2390ff" stop-opacity="0"/>
      <stop offset="0.085" stop-color="#2390ff" stop-opacity="0"/>
      <stop offset="0.164" stop-color="#033b5c" stop-opacity="0.039"/>
      <stop offset="0.303" stop-color="#033b5c" stop-opacity="0.161"/>
      <stop offset="0.485" stop-color="#033b5c" stop-opacity="0.349"/>
      <stop offset="0.703" stop-color="#033b5c" stop-opacity="0.6"/>
      <stop offset="0.95" stop-color="#033b5c" stop-opacity="0.929"/>
      <stop offset="1" stop-color="#033b5c"/>
    </linearGradient>
  </defs>
  <g id="Mask_Group_31" data-name="Mask Group 31" transform="translate(0 -0.494)" clip-path="url(#clip-path)">
    <path id="Path_6167" data-name="Path 6167" d="M14.2,375.133c36.071-10.528,95.321-17.221,150.649-14.032,38.087,2.194,72.006,7.407,106.823,11.829s73.125,8.186,111.982,7.113c85.055-2.351,138.607-26.3,222.847-30.046,89.623-3.989,182.935,16.314,266.541,7.352,60.382-6.473,90.323-26.344,155.158-29.073v64.548H14.2Z" transform="translate(-14.202 -172.327)" opacity="0.3" fill="url(#linear-gradient-2)" style="mix-blend-mode: color-burn;isolation: isolate"/>
    <path id="Path_6168" data-name="Path 6168" d="M45.2,393.282c54.477,2.328,84.671-.067,129.937-6.423,30.394-4.268,56.037-10.349,92.275-12.192,44.249-2.251,89.968,2.605,124.081,8.546s63.038,13.228,103.113,17.525c83.206,8.923,189.746,2.233,264.724-9.132,32.439-4.917,61.762-10.677,97.087-14.767s79.259-6.366,117.726-3.553c31.636,2.313,54.9,7.672,85.058,10.645v38.258H45.2Z" transform="translate(-45.203 -201.693)" opacity="0.45" fill="url(#linear-gradient-3)" style="mix-blend-mode: color-burn;isolation: isolate"/>
  </g>
</svg>
