<svg xmlns="http://www.w3.org/2000/svg" xmlns:xlink="http://www.w3.org/1999/xlink" width="66.252" height="66.267" viewBox="0 0 66.252 66.267">
  <defs>
    <linearGradient id="linear-gradient" x1="0.549" y1="0.096" x2="0.545" y2="0.923" gradientUnits="objectBoundingBox">
      <stop offset="0" stop-color="#fe6d2d"/>
      <stop offset="0.459" stop-color="#f75308"/>
      <stop offset="1" stop-color="#f6250a"/>
    </linearGradient>
  </defs>
  <path id="Icon_awesome-book-reader" data-name="Icon awesome-book-reader" d="M45.2,12.328A12.328,12.328,0,1,0,32.875,24.656,12.328,12.328,0,0,0,45.2,12.328ZM30,30.962c-7.619-4.664-19.96-5.946-26.171-6.3A3.553,3.553,0,0,0,0,28.142V56.754a3.532,3.532,0,0,0,3.4,3.474c5.607.294,16.95,1.372,24.79,5.32a1.788,1.788,0,0,0,2.63-1.524V32.434A1.709,1.709,0,0,0,30,30.962Zm31.926-6.3c-6.209.352-18.551,1.635-26.169,6.3a1.741,1.741,0,0,0-.823,1.494V64.02a1.793,1.793,0,0,0,2.638,1.528c7.839-3.945,19.176-5.022,24.781-5.317a3.534,3.534,0,0,0,3.4-3.475V28.142A3.555,3.555,0,0,0,61.924,24.663Z" transform="translate(0.25 0.25)" stroke="#fff" stroke-width="0.5" fill="url(#linear-gradient)"/>
</svg>
