<svg xmlns="http://www.w3.org/2000/svg" xmlns:xlink="http://www.w3.org/1999/xlink" width="496.69" height="497.302" viewBox="0 0 496.69 497.302">
  <defs>
    <linearGradient id="linear-gradient" x1="0.549" y1="0.096" x2="0.545" y2="0.923" gradientUnits="objectBoundingBox">
      <stop offset="0" stop-color="#fe6d2d"/>
      <stop offset="0.459" stop-color="#f75308"/>
      <stop offset="1" stop-color="#f6250a"/>
    </linearGradient>
    <linearGradient id="linear-gradient-2" x1="0.727" y1="0.249" x2="0.5" y2="1" gradientUnits="objectBoundingBox">
      <stop offset="0" stop-color="#c7bca8"/>
      <stop offset="1" stop-color="#39a5e5"/>
    </linearGradient>
    <linearGradient id="linear-gradient-4" x1="0.759" y1="1" x2="0" y2="0.186" xlink:href="#linear-gradient"/>
  </defs>
  <g id="trust" transform="translate(-0.306)">
    <g id="Group_38673" data-name="Group 38673">
      <path id="Path_5732" data-name="Path 5732" d="M253.882,307.559l-19.975-13.272-44.222-16.081-85.573,67.769,27.458,49.133c.366.212.729.43,1.1.638l22.8,13.272,108.6-77.147Z" fill="url(#linear-gradient)"/>
      <g id="Group_38671" data-name="Group 38671">
        <path id="Path_5733" data-name="Path 5733" d="M154.07,380.811a131.991,131.991,0,0,1-36.7-31.492L113.1,344l-4.012-1.963-4.973,3.939,27.458,49.133c.366.212.729.43,1.1.638l22.8,13.272,21.2-15.057-22.6-13.15Z" fill="#fd6a29"/>
        <path id="Path_5734" data-name="Path 5734" d="M495.989,192.869a3.967,3.967,0,0,0-5.965-3.4L366.3,261.616a10.862,10.862,0,0,1-8.81.82l-17.58-5.98a101.758,101.758,0,0,0-68.99,1.28l-.43.17-34.1,44.39-78.71,71.43-8.08,7.15a20.23,20.23,0,0,0-5.4,21.41,18.963,18.963,0,0,0,3.62,6.2,19.6,19.6,0,0,0,23.61,4.58,19.628,19.628,0,0,0,.57,26.06,20.571,20.571,0,0,0,28.25.51l.23-.21a19.6,19.6,0,0,0,.44,26.21,20.538,20.538,0,0,0,28.24.51l.81-.74a19.593,19.593,0,0,0,.6,26.02,20.558,20.558,0,0,0,28.24.51l7.92-7.01,54.1-39.906a10.011,10.011,0,0,1,16.065-11.85l15.037-11.091a12.06,12.06,0,0,1,18.663-13.767l20.684-15.257a82.977,82.977,0,0,0,34.44-28.03l5.31-7.48L494.771,326.4a3.965,3.965,0,0,0,2.225-3.6Z" fill="url(#linear-gradient-2)"/>
        <path id="Path_5737" data-name="Path 5737" d="M312.1,300.026l-41.61-42.12a96.507,96.507,0,0,0-84.24-27.43l-49.72,8.12L3.615,176.209a2.322,2.322,0,0,0-3.309,2.1V312.676a2.322,2.322,0,0,0,1.3,2.086L90.6,358.3l4.27,5.32a132.008,132.008,0,0,0,36.7,31.492l5.864-30.918,73.574-58.439,42.875,1.808,32.354,22.928a20.055,20.055,0,0,0,25.86-30.46Z" fill="url(#linear-gradient)"/>
        <path id="Path_5738" data-name="Path 5738" d="M117.367,349.319a30.532,30.532,0,0,0-10.4-8.318L28.992,302.855a11.035,11.035,0,0,1-6.185-9.911V185.218L3.615,176.21a2.322,2.322,0,0,0-3.309,2.1V312.677a2.322,2.322,0,0,0,1.3,2.086L90.6,358.3l4.27,5.32a132.008,132.008,0,0,0,36.7,31.492l5.008-26.408a132.132,132.132,0,0,1-19.21-19.381Z" fill="url(#linear-gradient-4)"/>
      </g>
      <path id="Path_5739" data-name="Path 5739" d="M272.3,195.333l-20.759,7.613a9.668,9.668,0,0,1-6.661,0l-20.759-7.613A108.879,108.879,0,0,1,152.723,93.11V27.923a11.21,11.21,0,0,1,9.066-11L248.675,0l85.967,16.907a11.209,11.209,0,0,1,9.046,11V93.11A108.878,108.878,0,0,1,272.3,195.333Z" fill="url(#linear-gradient)"/>
      <path id="Path_5740" data-name="Path 5740" d="M263.524,194.033c-51.331-17.028-85.455-61.227-85.455-110.683V13.75l-16.28,3.17a11.209,11.209,0,0,0-9.066,11V93.11a108.879,108.879,0,0,0,71.393,102.223l20.759,7.613a9.668,9.668,0,0,0,6.661,0l18.456-6.768Z" fill="url(#linear-gradient)"/>
      <path id="Path_5741" data-name="Path 5741" d="M234.445,167.168A79.154,79.154,0,0,1,182.723,93.11V48.853a6.609,6.609,0,0,1,5.345-6.487l60.578-11.8,59.708,11.743a6.607,6.607,0,0,1,5.333,6.484V93.11a78.879,78.879,0,0,1-51.722,74.057L248.2,172.213Z" fill="#033b5c"/>
      <g id="Group_38672" data-name="Group 38672">
        <path id="Path_5742" data-name="Path 5742" d="M235.927,131.355a7.5,7.5,0,0,1-5.137-2.036l-12.106-11.384a7.5,7.5,0,1,1,10.276-10.928l6.269,5.895,34.12-41.457a7.5,7.5,0,1,1,11.582,9.532L241.72,128.621a7.5,7.5,0,0,1-5.313,2.719Q236.166,131.355,235.927,131.355Z" fill="#e17983"/>
      </g>
    </g>
    <path id="Path_5744" data-name="Path 5744" d="M357.614,409.777l-13.107-15.084a18.9,18.9,0,0,1,1.869-26.656l1.08-.939a18.9,18.9,0,0,1,26.656,1.869l13.107,15.084a18.9,18.9,0,0,1-1.869,26.656l-1.08.939a18.9,18.9,0,0,1-26.656-1.869Z" fill="url(#linear-gradient)"/>
    <path id="Path_5745" data-name="Path 5745" d="M365.789,403.626l-13.107-15.084a18.914,18.914,0,0,1-.119-24.626,19.009,19.009,0,0,0-5.108,3.182l-1.08.939a18.9,18.9,0,0,0-1.869,26.656l13.107,15.084a18.9,18.9,0,0,0,26.656,1.869l1.08-.939a18.656,18.656,0,0,0,2-2.017,18.906,18.906,0,0,1-21.56-5.064Z" fill="url(#linear-gradient)"/>
    <path id="Path_5746" data-name="Path 5746" d="M328.008,435.5,314.9,420.419a18.9,18.9,0,0,1,1.869-26.656l1.08-.939a18.9,18.9,0,0,1,26.656,1.869l13.107,15.084a18.9,18.9,0,0,1-1.869,26.656l-1.08.939A18.9,18.9,0,0,1,328.008,435.5Z" fill="url(#linear-gradient)"/>
    <path id="Path_5747" data-name="Path 5747" d="M336.433,428.182,323.326,413.1a18.938,18.938,0,0,1-1.389-23.005,18.944,18.944,0,0,0-4.088,2.731l-1.08.939a18.9,18.9,0,0,0-1.869,26.656L328.007,435.5a18.9,18.9,0,0,0,26.656,1.869l1.08-.939a18.764,18.764,0,0,0,3.251-3.659,18.906,18.906,0,0,1-22.561-4.592Z" fill="url(#linear-gradient)"/>
    <path id="Path_5748" data-name="Path 5748" d="M298.4,461.23,285.3,446.146a18.9,18.9,0,0,1,1.869-26.656l1.08-.939A18.9,18.9,0,0,1,314.9,420.42L328.008,435.5a18.9,18.9,0,0,1-1.869,26.656l-1.08.939A18.9,18.9,0,0,1,298.4,461.23Z" fill="url(#linear-gradient)"/>
    <path id="Path_5749" data-name="Path 5749" d="M306.427,454.257,293.32,439.173a18.913,18.913,0,0,1-1.25-23.212,18.723,18.723,0,0,0-3.826,2.59l-1.08.939a18.9,18.9,0,0,0-1.869,26.656L298.4,461.23a18.9,18.9,0,0,0,26.656,1.869l1.08-.939a18.876,18.876,0,0,0,3.1-3.441,18.912,18.912,0,0,1-22.812-4.462Z" fill="url(#linear-gradient)"/>
    <path id="Path_5750" data-name="Path 5750" d="M268.8,486.956l-13.107-15.084a18.9,18.9,0,0,1,1.869-26.656l1.08-.939a18.9,18.9,0,0,1,26.656,1.869L298.4,461.23a18.9,18.9,0,0,1-1.869,26.656l-1.08.939A18.9,18.9,0,0,1,268.8,486.956Z" fill="url(#linear-gradient)"/>
    <path id="Path_5751" data-name="Path 5751" d="M283.372,485.9l-20.06-23.085a18.878,18.878,0,0,1-3.125-19.745,19.316,19.316,0,0,0-1.547,1.209l-1.08.939a18.9,18.9,0,0,0-1.869,26.656L268.8,486.956a18.9,18.9,0,0,0,22.817,4.459,18.856,18.856,0,0,1-8.243-5.517Z" fill="url(#linear-gradient)"/>
  </g>
</svg>
