<svg xmlns="http://www.w3.org/2000/svg" width="800" height="80" viewBox="0 0 800 80">
  <g id="Path_5090" data-name="Path 5090" transform="translate(-566)" fill="#fff" stroke-dasharray="2">
    <path d="M573,0h786a7,7,0,0,1,7,7V73a7,7,0,0,1-7,7H573a7,7,0,0,1-7-7V7A7,7,0,0,1,573,0Z" stroke="none"/>
    <path d="M 573 0 L 575 0 L 575 1.5 L 573 1.5 L 573 0 C 573 0 573 0 573 0 Z M 577 0 L 579 0 L 579 1.5 L 577 1.5 L 577 0 Z M 581 0 L 583 0 L 583 1.5 L 581 1.5 L 581 0 Z M 585 0 L 587 0 L 587 1.5 L 585 1.5 L 585 0 Z M 589 0 L 591 0 L 591 1.5 L 589 1.5 L 589 0 Z M 593 0 L 595 0 L 595 1.5 L 593 1.5 L 593 0 Z M 597 0 L 599 0 L 599 1.5 L 597 1.5 L 597 0 Z M 601 0 L 603 0 L 603 1.5 L 601 1.5 L 601 0 Z M 605 0 L 607 0 L 607 1.5 L 605 1.5 L 605 0 Z M 609 0 L 611 0 L 611 1.5 L 609 1.5 L 609 0 Z M 613 0 L 615 0 L 615 1.5 L 613 1.5 L 613 0 Z M 617 0 L 619 0 L 619 1.5 L 617 1.5 L 617 0 Z M 621 0 L 623 0 L 623 1.5 L 621 1.5 L 621 0 Z M 625 0 L 627 0 L 627 1.5 L 625 1.5 L 625 0 Z M 629 0 L 631 0 L 631 1.5 L 629 1.5 L 629 0 Z M 633 0 L 635 0 L 635 1.5 L 633 1.5 L 633 0 Z M 637 0 L 639 0 L 639 1.5 L 637 1.5 L 637 0 Z M 641 0 L 643 0 L 643 1.5 L 641 1.5 L 641 0 Z M 645 0 L 647 0 L 647 1.5 L 645 1.5 L 645 0 Z M 649 0 L 651 0 L 651 1.5 L 649 1.5 L 649 0 Z M 653 0 L 655 0 L 655 1.5 L 653 1.5 L 653 0 Z M 657 0 L 659 0 L 659 1.5 L 657 1.5 L 657 0 Z M 661 0 L 663 0 L 663 1.5 L 661 1.5 L 661 0 Z M 665 0 L 667 0 L 667 1.5 L 665 1.5 L 665 0 Z M 669 0 L 671 0 L 671 1.5 L 669 1.5 L 669 0 Z M 673 0 L 675 0 L 675 1.5 L 673 1.5 L 673 0 Z M 677 0 L 679 0 L 679 1.5 L 677 1.5 L 677 0 Z M 681 0 L 683 0 L 683 1.5 L 681 1.5 L 681 0 Z M 685 0 L 687 0 L 687 1.5 L 685 1.5 L 685 0 Z M 689 0 L 691 0 L 691 1.5 L 689 1.5 L 689 0 Z M 693 0 L 695 0 L 695 1.5 L 693 1.5 L 693 0 Z M 697 0 L 699 0 L 699 1.5 L 697 1.5 L 697 0 Z M 701 0 L 703 0 L 703 1.5 L 701 1.5 L 701 0 Z M 705 0 L 707 0 L 707 1.5 L 705 1.5 L 705 0 Z M 709 0 L 711 0 L 711 1.5 L 709 1.5 L 709 0 Z M 713 0 L 715 0 L 715 1.5 L 713 1.5 L 713 0 Z M 717 0 L 719 0 L 719 1.5 L 717 1.5 L 717 0 Z M 721 0 L 723 0 L 723 1.5 L 721 1.5 L 721 0 Z M 725 0 L 727 0 L 727 1.5 L 725 1.5 L 725 0 Z M 729 0 L 731 0 L 731 1.5 L 729 1.5 L 729 0 Z M 733 0 L 735 0 L 735 1.5 L 733 1.5 L 733 0 Z M 737 0 L 739 0 L 739 1.5 L 737 1.5 L 737 0 Z M 741 0 L 743 0 L 743 1.5 L 741 1.5 L 741 0 Z M 745 0 L 747 0 L 747 1.5 L 745 1.5 L 745 0 Z M 749 0 L 751 0 L 751 1.5 L 749 1.5 L 749 0 Z M 753 0 L 755 0 L 755 1.5 L 753 1.5 L 753 0 Z M 757 0 L 759 0 L 759 1.5 L 757 1.5 L 757 0 Z M 761 0 L 763 0 L 763 1.5 L 761 1.5 L 761 0 Z M 765 0 L 767 0 L 767 1.5 L 765 1.5 L 765 0 Z M 769 0 L 771 0 L 771 1.5 L 769 1.5 L 769 0 Z M 773 0 L 775 0 L 775 1.5 L 773 1.5 L 773 0 Z M 777 0 L 779 0 L 779 1.5 L 777 1.5 L 777 0 Z M 781 0 L 783 0 L 783 1.5 L 781 1.5 L 781 0 Z M 785 0 L 787 0 L 787 1.5 L 785 1.5 L 785 0 Z M 789 0 L 791 0 L 791 1.5 L 789 1.5 L 789 0 Z M 793 0 L 795 0 L 795 1.5 L 793 1.5 L 793 0 Z M 797 0 L 799 0 L 799 1.5 L 797 1.5 L 797 0 Z M 801 0 L 803 0 L 803 1.5 L 801 1.5 L 801 0 Z M 805 0 L 807 0 L 807 1.5 L 805 1.5 L 805 0 Z M 809 0 L 811 0 L 811 1.5 L 809 1.5 L 809 0 Z M 813 0 L 815 0 L 815 1.5 L 813 1.5 L 813 0 Z M 817 0 L 819 0 L 819 1.5 L 817 1.5 L 817 0 Z M 821 0 L 823 0 L 823 1.5 L 821 1.5 L 821 0 Z M 825 0 L 827 0 L 827 1.5 L 825 1.5 L 825 0 Z M 829 0 L 831 0 L 831 1.5 L 829 1.5 L 829 0 Z M 833 0 L 835 0 L 835 1.5 L 833 1.5 L 833 0 Z M 837 0 L 839 0 L 839 1.5 L 837 1.5 L 837 0 Z M 841 0 L 843 0 L 843 1.5 L 841 1.5 L 841 0 Z M 845 0 L 847 0 L 847 1.5 L 845 1.5 L 845 0 Z M 849 0 L 851 0 L 851 1.5 L 849 1.5 L 849 0 Z M 853 0 L 855 0 L 855 1.5 L 853 1.5 L 853 0 Z M 857 0 L 859 0 L 859 1.5 L 857 1.5 L 857 0 Z M 861 0 L 863 0 L 863 1.5 L 861 1.5 L 861 0 Z M 865 0 L 867 0 L 867 1.5 L 865 1.5 L 865 0 Z M 869 0 L 871 0 L 871 1.5 L 869 1.5 L 869 0 Z M 873 0 L 875 0 L 875 1.5 L 873 1.5 L 873 0 Z M 877 0 L 879 0 L 879 1.5 L 877 1.5 L 877 0 Z M 881 0 L 883 0 L 883 1.5 L 881 1.5 L 881 0 Z M 885 0 L 887 0 L 887 1.5 L 885 1.5 L 885 0 Z M 889 0 L 891 0 L 891 1.5 L 889 1.5 L 889 0 Z M 893 0 L 895 0 L 895 1.5 L 893 1.5 L 893 0 Z M 897 0 L 899 0 L 899 1.5 L 897 1.5 L 897 0 Z M 901 0 L 903 0 L 903 1.5 L 901 1.5 L 901 0 Z M 905 0 L 907 0 L 907 1.5 L 905 1.5 L 905 0 Z M 909 0 L 911 0 L 911 1.5 L 909 1.5 L 909 0 Z M 913 0 L 915 0 L 915 1.5 L 913 1.5 L 913 0 Z M 917 0 L 919 0 L 919 1.5 L 917 1.5 L 917 0 Z M 921 0 L 923 0 L 923 1.5 L 921 1.5 L 921 0 Z M 925 0 L 927 0 L 927 1.5 L 925 1.5 L 925 0 Z M 929 0 L 931 0 L 931 1.5 L 929 1.5 L 929 0 Z M 933 0 L 935 0 L 935 1.5 L 933 1.5 L 933 0 Z M 937 0 L 939 0 L 939 1.5 L 937 1.5 L 937 0 Z M 941 0 L 943 0 L 943 1.5 L 941 1.5 L 941 0 Z M 945 0 L 947 0 L 947 1.5 L 945 1.5 L 945 0 Z M 949 0 L 951 0 L 951 1.5 L 949 1.5 L 949 0 Z M 953 0 L 955 0 L 955 1.5 L 953 1.5 L 953 0 Z M 957 0 L 959 0 L 959 1.5 L 957 1.5 L 957 0 Z M 961 0 L 963 0 L 963 1.5 L 961 1.5 L 961 0 Z M 965 0 L 967 0 L 967 1.5 L 965 1.5 L 965 0 Z M 969 0 L 971 0 L 971 1.5 L 969 1.5 L 969 0 Z M 973 0 L 975 0 L 975 1.5 L 973 1.5 L 973 0 Z M 977 0 L 979 0 L 979 1.5 L 977 1.5 L 977 0 Z M 981 0 L 983 0 L 983 1.5 L 981 1.5 L 981 0 Z M 985 0 L 987 0 L 987 1.5 L 985 1.5 L 985 0 Z M 989 0 L 991 0 L 991 1.5 L 989 1.5 L 989 0 Z M 993 0 L 995 0 L 995 1.5 L 993 1.5 L 993 0 Z M 997 0 L 999 0 L 999 1.5 L 997 1.5 L 997 0 Z M 1001 0 L 1003 0 L 1003 1.5 L 1001 1.5 L 1001 0 Z M 1005 0 L 1007 0 L 1007 1.5 L 1005 1.5 L 1005 0 Z M 1009 0 L 1011 0 L 1011 1.5 L 1009 1.5 L 1009 0 Z M 1013 0 L 1015 0 L 1015 1.5 L 1013 1.5 L 1013 0 Z M 1017 0 L 1019 0 L 1019 1.5 L 1017 1.5 L 1017 0 Z M 1021 0 L 1023 0 L 1023 1.5 L 1021 1.5 L 1021 0 Z M 1025 0 L 1027 0 L 1027 1.5 L 1025 1.5 L 1025 0 Z M 1029 0 L 1031 0 L 1031 1.5 L 1029 1.5 L 1029 0 Z M 1033 0 L 1035 0 L 1035 1.5 L 1033 1.5 L 1033 0 Z M 1037 0 L 1039 0 L 1039 1.5 L 1037 1.5 L 1037 0 Z M 1041 0 L 1043 0 L 1043 1.5 L 1041 1.5 L 1041 0 Z M 1045 0 L 1047 0 L 1047 1.5 L 1045 1.5 L 1045 0 Z M 1049 0 L 1051 0 L 1051 1.5 L 1049 1.5 L 1049 0 Z M 1053 0 L 1055 0 L 1055 1.5 L 1053 1.5 L 1053 0 Z M 1057 0 L 1059 0 L 1059 1.5 L 1057 1.5 L 1057 0 Z M 1061 0 L 1063 0 L 1063 1.5 L 1061 1.5 L 1061 0 Z M 1065 0 L 1067 0 L 1067 1.5 L 1065 1.5 L 1065 0 Z M 1069 0 L 1071 0 L 1071 1.5 L 1069 1.5 L 1069 0 Z M 1073 0 L 1075 0 L 1075 1.5 L 1073 1.5 L 1073 0 Z M 1077 0 L 1079 0 L 1079 1.5 L 1077 1.5 L 1077 0 Z M 1081 0 L 1083 0 L 1083 1.5 L 1081 1.5 L 1081 0 Z M 1085 0 L 1087 0 L 1087 1.5 L 1085 1.5 L 1085 0 Z M 1089 0 L 1091 0 L 1091 1.5 L 1089 1.5 L 1089 0 Z M 1093 0 L 1095 0 L 1095 1.5 L 1093 1.5 L 1093 0 Z M 1097 0 L 1099 0 L 1099 1.5 L 1097 1.5 L 1097 0 Z M 1101 0 L 1103 0 L 1103 1.5 L 1101 1.5 L 1101 0 Z M 1105 0 L 1107 0 L 1107 1.5 L 1105 1.5 L 1105 0 Z M 1109 0 L 1111 0 L 1111 1.5 L 1109 1.5 L 1109 0 Z M 1113 0 L 1115 0 L 1115 1.5 L 1113 1.5 L 1113 0 Z M 1117 0 L 1119 0 L 1119 1.5 L 1117 1.5 L 1117 0 Z M 1121 0 L 1123 0 L 1123 1.5 L 1121 1.5 L 1121 0 Z M 1125 0 L 1127 0 L 1127 1.5 L 1125 1.5 L 1125 0 Z M 1129 0 L 1131 0 L 1131 1.5 L 1129 1.5 L 1129 0 Z M 1133 0 L 1135 0 L 1135 1.5 L 1133 1.5 L 1133 0 Z M 1137 0 L 1139 0 L 1139 1.5 L 1137 1.5 L 1137 0 Z M 1141 0 L 1143 0 L 1143 1.5 L 1141 1.5 L 1141 0 Z M 1145 0 L 1147 0 L 1147 1.5 L 1145 1.5 L 1145 0 Z M 1149 0 L 1151 0 L 1151 1.5 L 1149 1.5 L 1149 0 Z M 1153 0 L 1155 0 L 1155 1.5 L 1153 1.5 L 1153 0 Z M 1157 0 L 1159 0 L 1159 1.5 L 1157 1.5 L 1157 0 Z M 1161 0 L 1163 0 L 1163 1.5 L 1161 1.5 L 1161 0 Z M 1165 0 L 1167 0 L 1167 1.5 L 1165 1.5 L 1165 0 Z M 1169 0 L 1171 0 L 1171 1.5 L 1169 1.5 L 1169 0 Z M 1173 0 L 1175 0 L 1175 1.5 L 1173 1.5 L 1173 0 Z M 1177 0 L 1179 0 L 1179 1.5 L 1177 1.5 L 1177 0 Z M 1181 0 L 1183 0 L 1183 1.5 L 1181 1.5 L 1181 0 Z M 1185 0 L 1187 0 L 1187 1.5 L 1185 1.5 L 1185 0 Z M 1189 0 L 1191 0 L 1191 1.5 L 1189 1.5 L 1189 0 Z M 1193 0 L 1195 0 L 1195 1.5 L 1193 1.5 L 1193 0 Z M 1197 0 L 1199 0 L 1199 1.5 L 1197 1.5 L 1197 0 Z M 1201 0 L 1203 0 L 1203 1.5 L 1201 1.5 L 1201 0 Z M 1205 0 L 1207 0 L 1207 1.5 L 1205 1.5 L 1205 0 Z M 1209 0 L 1211 0 L 1211 1.5 L 1209 1.5 L 1209 0 Z M 1213 0 L 1215 0 L 1215 1.5 L 1213 1.5 L 1213 0 Z M 1217 0 L 1219 0 L 1219 1.5 L 1217 1.5 L 1217 0 Z M 1221 0 L 1223 0 L 1223 1.5 L 1221 1.5 L 1221 0 Z M 1225 0 L 1227 0 L 1227 1.5 L 1225 1.5 L 1225 0 Z M 1229 0 L 1231 0 L 1231 1.5 L 1229 1.5 L 1229 0 Z M 1233 0 L 1235 0 L 1235 1.5 L 1233 1.5 L 1233 0 Z M 1237 0 L 1239 0 L 1239 1.5 L 1237 1.5 L 1237 0 Z M 1241 0 L 1243 0 L 1243 1.5 L 1241 1.5 L 1241 0 Z M 1245 0 L 1247 0 L 1247 1.5 L 1245 1.5 L 1245 0 Z M 1249 0 L 1251 0 L 1251 1.5 L 1249 1.5 L 1249 0 Z M 1253 0 L 1255 0 L 1255 1.5 L 1253 1.5 L 1253 0 Z M 1257 0 L 1259 0 L 1259 1.5 L 1257 1.5 L 1257 0 Z M 1261 0 L 1263 0 L 1263 1.5 L 1261 1.5 L 1261 0 Z M 1265 0 L 1267 0 L 1267 1.5 L 1265 1.5 L 1265 0 Z M 1269 0 L 1271 0 L 1271 1.5 L 1269 1.5 L 1269 0 Z M 1273 0 L 1275 0 L 1275 1.5 L 1273 1.5 L 1273 0 Z M 1277 0 L 1279 0 L 1279 1.5 L 1277 1.5 L 1277 0 Z M 1281 0 L 1283 0 L 1283 1.5 L 1281 1.5 L 1281 0 Z M 1285 0 L 1287 0 L 1287 1.5 L 1285 1.5 L 1285 0 Z M 1289 0 L 1291 0 L 1291 1.5 L 1289 1.5 L 1289 0 Z M 1293 0 L 1295 0 L 1295 1.5 L 1293 1.5 L 1293 0 Z M 1297 0 L 1299 0 L 1299 1.5 L 1297 1.5 L 1297 0 Z M 1301 0 L 1303 0 L 1303 1.5 L 1301 1.5 L 1301 0 Z M 1305 0 L 1307 0 L 1307 1.5 L 1305 1.5 L 1305 0 Z M 1309 0 L 1311 0 L 1311 1.5 L 1309 1.5 L 1309 0 Z M 1313 0 L 1315 0 L 1315 1.5 L 1313 1.5 L 1313 0 Z M 1317 0 L 1319 0 L 1319 1.5 L 1317 1.5 L 1317 0 Z M 1321 0 L 1323 0 L 1323 1.5 L 1321 1.5 L 1321 0 Z M 1325 0 L 1327 0 L 1327 1.5 L 1325 1.5 L 1325 0 Z M 1329 0 L 1331 0 L 1331 1.5 L 1329 1.5 L 1329 0 Z M 1333 0 L 1335 0 L 1335 1.5 L 1333 1.5 L 1333 0 Z M 1337 0 L 1339 0 L 1339 1.5 L 1337 1.5 L 1337 0 Z M 1341 0 L 1343 0 L 1343 1.5 L 1341 1.5 L 1341 0 Z M 1345 0 L 1347 0 L 1347 1.5 L 1345 1.5 L 1345 0 Z M 1349 0 L 1351 0 L 1351 1.5 L 1349 1.5 L 1349 0 Z M 1353 0 L 1355 0 L 1355 1.5 L 1353 1.5 L 1353 0 Z M 1357 0 L 1359 0 L 1359 1.5 L 1357 1.5 L 1357 0 Z M 1360.973388671875 0.2819976806640625 C 1360.992309570313 0.287567138671875 1361.01123046875 0.293212890625 1361.030151367188 0.2989349365234375 C 1361.031860351563 0.2994537353515625 1361.03369140625 0.2999954223632813 1361.035400390625 0.3005218505859375 C 1361.0390625 0.3016586303710938 1361.042724609375 0.3027725219726563 1361.046630859375 0.3039169311523438 C 1361.048706054688 0.3045730590820313 1361.051391601563 0.305389404296875 1361.053466796875 0.3060531616210938 C 1361.056884765625 0.3070831298828125 1361.060302734375 0.3081207275390625 1361.063720703125 0.3091659545898438 C 1361.069091796875 0.3108139038085938 1361.074096679688 0.3123779296875 1361.079345703125 0.3140411376953125 C 1361.08203125 0.3148269653320313 1361.08447265625 0.3156280517578125 1361.087158203125 0.3164215087890625 C 1361.090942382813 0.317626953125 1361.094970703125 0.3188629150390625 1361.098754882813 0.320068359375 C 1361.100952148438 0.3207626342773438 1361.10302734375 0.321441650390625 1361.105224609375 0.3221282958984375 C 1361.109985351563 0.3236083984375 1361.11474609375 0.325103759765625 1361.119384765625 0.3265914916992188 C 1361.120727539063 0.3270187377929688 1361.1220703125 0.3274612426757813 1361.12353515625 0.327880859375 C 1361.129638671875 0.3298492431640625 1361.135986328125 0.3318405151367188 1361.14208984375 0.3338241577148438 C 1361.14306640625 0.3341522216796875 1361.144165039063 0.334503173828125 1361.145263671875 0.3348236083984375 C 1361.150756835938 0.33660888671875 1361.156005859375 0.3383407592773438 1361.16162109375 0.3401336669921875 C 1361.162841796875 0.3404998779296875 1361.163818359375 0.3408737182617188 1361.1650390625 0.3412399291992188 C 1361.31396484375 0.3896560668945313 1361.4609375 0.44293212890625 1361.605224609375 0.5008926391601563 C 1361.60595703125 0.5011672973632813 1361.606689453125 0.501434326171875 1361.607421875 0.501708984375 C 1361.619750976563 0.506683349609375 1361.632568359375 0.511871337890625 1361.644897460938 0.51690673828125 C 1361.64599609375 0.5173416137695313 1361.64697265625 0.5177841186523438 1361.648071289063 0.518218994140625 C 1361.653198242188 0.5203170776367188 1361.658203125 0.5223922729492188 1361.663330078125 0.524505615234375 C 1361.664672851563 0.5250320434570313 1361.666015625 0.5255508422851563 1361.667236328125 0.5260772705078125 C 1361.67919921875 0.5309906005859375 1361.69091796875 0.5358810424804688 1361.702758789063 0.540863037109375 C 1361.704711914063 0.5416793823242188 1361.706787109375 0.5425262451171875 1361.708740234375 0.5433502197265625 C 1361.71240234375 0.544891357421875 1361.716064453125 0.5464324951171875 1361.7197265625 0.5479888916015625 C 1361.722290039063 0.5490798950195313 1361.724853515625 0.5501632690429688 1361.7275390625 0.5512619018554688 C 1361.732421875 0.5533370971679688 1361.73681640625 0.5551910400390625 1361.74169921875 0.557281494140625 C 1361.744750976563 0.5586090087890625 1361.747802734375 0.5599136352539063 1361.7509765625 0.5612411499023438 C 1361.753784179688 0.562469482421875 1361.756591796875 0.563690185546875 1361.759521484375 0.5649185180664063 C 1361.7626953125 0.5662689208984375 1361.765869140625 0.5676345825195313 1361.76904296875 0.5689926147460938 C 1361.771484375 0.5700454711914063 1361.773803710938 0.5710906982421875 1361.776245117188 0.5721435546875 C 1361.788330078125 0.5773696899414063 1361.80029296875 0.5825881958007813 1361.812255859375 0.5878753662109375 C 1361.8134765625 0.588409423828125 1361.814575195313 0.5888519287109375 1361.815795898438 0.5893936157226563 C 1361.819946289063 0.5912094116210938 1361.824096679688 0.593048095703125 1361.828247070313 0.5948715209960938 C 1361.8291015625 0.5952301025390625 1361.829833984375 0.5955429077148438 1361.83056640625 0.5959091186523438 C 1362.163330078125 0.743255615234375 1362.482666015625 0.9158096313476563 1362.785888671875 1.111099243164063 L 1361.973510742188 2.372100830078125 C 1361.53173828125 2.087501525878906 1361.05322265625 1.868598937988281 1360.55126953125 1.721397399902344 L 1360.973388671875 0.2819976806640625 Z M 1364.29150390625 2.417221069335938 C 1364.360595703125 2.496902465820313 1364.427490234375 2.577751159667969 1364.492919921875 2.660530090332031 C 1364.493896484375 2.661605834960938 1364.49462890625 2.662635803222656 1364.495483398438 2.663711547851563 C 1364.49853515625 2.667495727539063 1364.50146484375 2.671363830566406 1364.504516601563 2.675148010253906 C 1364.505737304688 2.676712036132813 1364.506958007813 2.678276062011719 1364.50830078125 2.679840087890625 C 1364.511840820313 2.684494018554688 1364.515502929688 2.689155578613281 1364.519165039063 2.693817138671875 C 1364.5205078125 2.695541381835938 1364.521728515625 2.697181701660156 1364.523193359375 2.69891357421875 C 1364.525634765625 2.702018737792969 1364.52783203125 2.705001831054688 1364.5302734375 2.708114624023438 C 1364.5322265625 2.710708618164063 1364.534301757813 2.713249206542969 1364.536376953125 2.715843200683594 C 1364.537841796875 2.717918395996094 1364.5390625 2.719482421875 1364.540771484375 2.721565246582031 C 1364.548828125 2.732025146484375 1364.556884765625 2.742477416992188 1364.56494140625 2.752983093261719 C 1364.565673828125 2.7540283203125 1364.56640625 2.755096435546875 1364.5673828125 2.756141662597656 C 1364.570068359375 2.759719848632813 1364.57275390625 2.763359069824219 1364.575439453125 2.766944885253906 C 1364.575927734375 2.767463684082031 1364.576416015625 2.768051147460938 1364.576782226563 2.768569946289063 C 1364.708251953125 2.941581726074219 1364.831787109375 3.120841979980469 1364.947021484375 3.305915832519531 C 1364.947509765625 3.306663513183594 1364.94775390625 3.306983947753906 1364.948120117188 3.307731628417969 C 1364.95068359375 3.311805725097656 1364.953125 3.315841674804688 1364.955688476563 3.319923400878906 C 1364.955810546875 3.320114135742188 1364.95556640625 3.319778442382813 1364.955810546875 3.319961547851563 C 1364.960571289063 3.327743530273438 1364.96533203125 3.335533142089844 1364.97021484375 3.343330383300781 C 1364.971069335938 3.344833374023438 1364.971923828125 3.346282958984375 1364.972900390625 3.347785949707031 C 1364.974853515625 3.351112365722656 1364.976928710938 3.354423522949219 1364.97900390625 3.357757568359375 C 1364.980102539063 3.359634399414063 1364.981201171875 3.361335754394531 1364.982299804688 3.363212585449219 C 1364.984252929688 3.366447448730469 1364.986206054688 3.369636535644531 1364.988159179688 3.372871398925781 C 1364.990966796875 3.377388000488281 1364.993774414063 3.382133483886719 1364.99658203125 3.386650085449219 C 1364.997802734375 3.388916015625 1364.999267578125 3.391143798828125 1365.000610351563 3.393409729003906 C 1365.00244140625 3.396614074707031 1365.004516601563 3.399940490722656 1365.006469726563 3.403144836425781 C 1365.0078125 3.405311584472656 1365.009033203125 3.407470703125 1365.01025390625 3.409637451171875 C 1365.012817382813 3.413787841796875 1365.015258789063 3.417892456054688 1365.017822265625 3.422050476074219 C 1365.018310546875 3.423133850097656 1365.01904296875 3.424156188964844 1365.019653320313 3.425247192382813 C 1365.02294921875 3.43072509765625 1365.026245117188 3.43634033203125 1365.029541015625 3.44183349609375 C 1365.030029296875 3.442817687988281 1365.03076171875 3.443824768066406 1365.03125 3.444808959960938 C 1365.034057617188 3.449546813964844 1365.037109375 3.454689025878906 1365.039794921875 3.459426879882813 C 1365.040405273438 3.460342407226563 1365.041015625 3.461257934570313 1365.04150390625 3.462173461914063 C 1365.1611328125 3.666191101074219 1365.27099609375 3.876976013183594 1365.369873046875 4.093528747558594 L 1364.005615234375 4.717002868652344 C 1363.7880859375 4.2406005859375 1363.502807617188 3.797401428222656 1363.157958984375 3.399696350097656 L 1364.29150390625 2.417198181152344 Z M 1365.929931640625 6.006301879882813 C 1365.963134765625 6.239189147949219 1365.984741210938 6.475784301757813 1365.994384765625 6.715461730957031 C 1365.994384765625 6.716629028320313 1365.994384765625 6.717628479003906 1365.994384765625 6.718795776367188 C 1365.994873046875 6.728424072265625 1365.9951171875 6.737991333007813 1365.99560546875 6.747627258300781 C 1365.99560546875 6.74786376953125 1365.99560546875 6.747879028320313 1365.99560546875 6.748115539550781 C 1365.99560546875 6.751991271972656 1365.995849609375 6.75592041015625 1365.995971679688 6.759796142578125 C 1365.99609375 6.762374877929688 1365.99609375 6.764625549316406 1365.996215820313 6.767196655273438 C 1365.996337890625 6.770919799804688 1365.996459960938 6.774635314941406 1365.99658203125 6.778358459472656 C 1365.996704101563 6.782341003417969 1365.996826171875 6.786270141601563 1365.996826171875 6.790252685546875 C 1365.9970703125 6.794754028320313 1365.997192382813 6.799224853515625 1365.997314453125 6.803726196289063 C 1365.997314453125 6.807243347167969 1365.99755859375 6.810722351074219 1365.99755859375 6.814239501953125 C 1365.997680664063 6.817451477050781 1365.997802734375 6.8206787109375 1365.997802734375 6.823890686035156 C 1365.997924804688 6.828117370605469 1365.998046875 6.832046508789063 1365.998046875 6.836265563964844 C 1365.998168945313 6.83935546875 1365.998291015625 6.842453002929688 1365.998291015625 6.845542907714844 C 1365.998413085938 6.8507080078125 1365.99853515625 6.85601806640625 1365.998657226563 6.861183166503906 C 1365.998779296875 6.86358642578125 1365.998779296875 6.865959167480469 1365.998779296875 6.868354797363281 C 1365.998779296875 6.873054504394531 1365.9990234375 6.878334045410156 1365.9990234375 6.883033752441406 C 1365.9990234375 6.884803771972656 1365.9990234375 6.886581420898438 1365.999145507813 6.888351440429688 C 1365.999267578125 6.894699096679688 1365.999267578125 6.901008605957031 1365.999389648438 6.907363891601563 C 1365.99951171875 6.909416198730469 1365.99951171875 6.911483764648438 1365.99951171875 6.913536071777344 C 1365.99951171875 6.918479919433594 1365.99951171875 6.92388916015625 1365.999633789063 6.9288330078125 C 1365.999633789063 6.930519104003906 1365.999755859375 6.932174682617188 1365.999755859375 6.933860778808594 C 1365.999755859375 6.940689086914063 1365.999755859375 6.946937561035156 1365.999877929688 6.953773498535156 C 1365.999877929688 6.955047607421875 1365.999877929688 6.956336975097656 1365.999877929688 6.957611083984375 C 1365.999877929688 6.963264465332031 1366 6.96881103515625 1366 6.974472045898438 C 1366 6.976219177246094 1366 6.977958679199219 1366 6.979705810546875 C 1366 6.986541748046875 1366 6.993156433105469 1366 7 C 1366 7 1366 8.003097534179688 1366 8.003097534179688 L 1364.5 8.003097534179688 L 1364.5 7 C 1364.5 6.737800598144531 1364.4814453125 6.474502563476563 1364.44482421875 6.217399597167969 L 1365.929931640625 6.006301879882813 Z M 1364.5 10.00309753417969 L 1366 10.00309753417969 C 1366 10.00309753417969 1366 12.00309753417969 1366 12.00309753417969 L 1364.5 12.00309753417969 L 1364.5 10.00309753417969 Z M 1364.5 14.00309753417969 L 1366 14.00309753417969 C 1366 14.00309753417969 1366 16.00310134887695 1366 16.00310134887695 L 1364.5 16.00310134887695 L 1364.5 14.00309753417969 Z M 1364.5 18.00310134887695 L 1366 18.00310134887695 C 1366 18.00310134887695 1366 20.00310134887695 1366 20.00310134887695 L 1364.5 20.00310134887695 L 1364.5 18.00310134887695 Z M 1364.5 22.00310134887695 L 1366 22.00310134887695 C 1366 22.00310134887695 1366 24.00310134887695 1366 24.00310134887695 L 1364.5 24.00310134887695 L 1364.5 22.00310134887695 Z M 1364.5 26.00310134887695 L 1366 26.00310134887695 C 1366 26.00310134887695 1366 28.00310134887695 1366 28.00310134887695 L 1364.5 28.00310134887695 L 1364.5 26.00310134887695 Z M 1364.5 30.00310134887695 L 1366 30.00310134887695 C 1366 30.00310134887695 1366 32.00310134887695 1366 32.00310134887695 L 1364.5 32.00310134887695 L 1364.5 30.00310134887695 Z M 1364.5 34.00310134887695 L 1366 34.00310134887695 C 1366 34.00310134887695 1366 36.00310134887695 1366 36.00310134887695 L 1364.5 36.00310134887695 L 1364.5 34.00310134887695 Z M 1364.5 38.00310134887695 L 1366 38.00310134887695 C 1366 38.00310134887695 1366 40.00310134887695 1366 40.00310134887695 L 1364.5 40.00310134887695 L 1364.5 38.00310134887695 Z M 1364.5 42.00310134887695 L 1366 42.00310134887695 C 1366 42.00310134887695 1366 44.00310134887695 1366 44.00310134887695 L 1364.5 44.00310134887695 L 1364.5 42.00310134887695 Z M 1364.5 46.00310134887695 L 1366 46.00310134887695 C 1366 46.00310134887695 1366 48.00309753417969 1366 48.00309753417969 L 1364.5 48.00309753417969 L 1364.5 46.00310134887695 Z M 1364.5 50.00309753417969 L 1366 50.00309753417969 C 1366 50.00309753417969 1366 52.00309753417969 1366 52.00309753417969 L 1364.5 52.00309753417969 L 1364.5 50.00309753417969 Z M 1364.5 54.00309753417969 L 1366 54.00309753417969 C 1366 54.00309753417969 1366 56.00309753417969 1366 56.00309753417969 L 1364.5 56.00309753417969 L 1364.5 54.00309753417969 Z M 1364.5 58.00309753417969 L 1366 58.00309753417969 C 1366 58.00309753417969 1366 60.00309753417969 1366 60.00309753417969 L 1364.5 60.00309753417969 L 1364.5 58.00309753417969 Z M 1364.5 62.00309753417969 L 1366 62.00309753417969 C 1366 62.00309753417969 1366 64.00309753417969 1366 64.00309753417969 L 1364.5 64.00309753417969 L 1364.5 62.00309753417969 Z M 1364.5 66.00309753417969 L 1366 66.00309753417969 C 1366 66.00309753417969 1366 68.00309753417969 1366 68.00309753417969 L 1364.5 68.00309753417969 L 1364.5 66.00309753417969 Z M 1364.5 70.00309753417969 L 1366 70.00309753417969 C 1366 70.00309753417969 1366 72.00309753417969 1366 72.00309753417969 L 1364.5 72.00309753417969 L 1364.5 70.00309753417969 Z M 1364.444213867188 73.78749847412109 L 1365.929077148438 73.99990081787109 C 1365.917114257813 74.08357238769531 1365.903686523438 74.16677856445313 1365.888793945313 74.24946594238281 C 1365.888671875 74.2503662109375 1365.888427734375 74.25112152099609 1365.888427734375 74.25202178955078 C 1365.887451171875 74.25676727294922 1365.88671875 74.26148986816406 1365.8857421875 74.2662353515625 C 1365.8857421875 74.26668548583984 1365.8857421875 74.26671600341797 1365.885620117188 74.26716613769531 C 1365.883911132813 74.27625274658203 1365.88232421875 74.28525543212891 1365.880615234375 74.29433441162109 C 1365.88037109375 74.29567718505859 1365.880126953125 74.29705810546875 1365.8798828125 74.29840087890625 C 1365.879150390625 74.30228424072266 1365.87841796875 74.30613708496094 1365.877685546875 74.31002044677734 C 1365.877197265625 74.31270599365234 1365.876708984375 74.31502532958984 1365.876220703125 74.31770324707031 C 1365.87548828125 74.32122802734375 1365.874755859375 74.32466125488281 1365.874145507813 74.32817840576172 C 1365.873046875 74.33354187011719 1365.8720703125 74.33907318115234 1365.87109375 74.34443664550781 C 1365.870483398438 74.34706115722656 1365.869995117188 74.3497314453125 1365.869384765625 74.35235595703125 C 1365.86865234375 74.35614776611328 1365.867919921875 74.36012268066406 1365.8671875 74.36391448974609 C 1365.86669921875 74.36637115478516 1365.8662109375 74.36883544921875 1365.86572265625 74.37129974365234 C 1365.86474609375 74.37620544433594 1365.86376953125 74.38137054443359 1365.86279296875 74.38627624511719 C 1365.862548828125 74.38756561279297 1365.8623046875 74.38881683349609 1365.862060546875 74.39010620117188 C 1365.860717773438 74.39633941650391 1365.859497070313 74.40240478515625 1365.858154296875 74.40863037109375 C 1365.85791015625 74.41056823730469 1365.857421875 74.41244506835938 1365.857055664063 74.41437530517578 C 1365.85595703125 74.41949462890625 1365.85498046875 74.42459869384766 1365.853881835938 74.42971038818359 C 1365.853637695313 74.43087768554688 1365.853393554688 74.43211364746094 1365.853149414063 74.43328094482422 C 1365.850341796875 74.44683837890625 1365.847412109375 74.46064758300781 1365.844482421875 74.47417449951172 C 1365.844482421875 74.47453308105469 1365.84423828125 74.47498321533203 1365.84423828125 74.47534942626953 C 1365.77587890625 74.79400634765625 1365.685791015625 75.10469055175781 1365.57568359375 75.40563201904297 C 1365.575439453125 75.40634918212891 1365.5751953125 75.40711212158203 1365.574951171875 75.40782928466797 C 1365.5703125 75.42039489746094 1365.565673828125 75.43297576904297 1365.56103515625 75.44550323486328 C 1365.560546875 75.44670867919922 1365.56005859375 75.44789123535156 1365.5595703125 75.4490966796875 C 1365.5576171875 75.45431518554688 1365.555786132813 75.45928192138672 1365.553833007813 75.46449279785156 C 1365.553344726563 75.46577453613281 1365.552856445313 75.46707916259766 1365.552368164063 75.46836090087891 C 1365.550170898438 75.47419738769531 1365.547973632813 75.47996520996094 1365.545776367188 75.48579406738281 C 1365.545166015625 75.48764038085938 1365.54443359375 75.48947143554688 1365.543701171875 75.49131774902344 C 1365.542236328125 75.49526977539063 1365.54052734375 75.49938201904297 1365.5390625 75.50333404541016 C 1365.5380859375 75.50577545166016 1365.537231445313 75.50816345214844 1365.536376953125 75.51061248779297 C 1365.535034179688 75.51393890380859 1365.533569335938 75.51763916015625 1365.5322265625 75.52095794677734 C 1365.530517578125 75.52550506591797 1365.52880859375 75.52997589111328 1365.527099609375 75.53452301025391 C 1365.52587890625 75.53763580322266 1365.524780273438 75.54036712646484 1365.523559570313 75.54347991943359 C 1365.522216796875 75.547119140625 1365.520751953125 75.55072784423828 1365.519287109375 75.55436706542969 C 1365.518676757813 75.55602264404297 1365.517944335938 75.557861328125 1365.517333984375 75.55951690673828 C 1365.515747070313 75.56345367431641 1365.51416015625 75.56742095947266 1365.5126953125 75.57135772705078 C 1365.512451171875 75.57197570800781 1365.51220703125 75.57248687744141 1365.511962890625 75.57310485839844 C 1365.466552734375 75.68763732910156 1365.41845703125 75.80072021484375 1365.367309570313 75.91220092773438 L 1364.003662109375 75.28749847412109 C 1364.2216796875 74.81130218505859 1364.369995117188 74.30670166015625 1364.444213867188 73.78749847412109 Z M 1363.15478515625 76.60400390625 L 1364.287353515625 77.58750152587891 C 1364.183837890625 77.70675659179688 1364.076171875 77.82260131835938 1363.96484375 77.93459320068359 C 1363.964599609375 77.93485260009766 1363.96435546875 77.93507385253906 1363.964111328125 77.93533325195313 C 1363.959716796875 77.93983459472656 1363.955078125 77.94446563720703 1363.950561523438 77.94895172119141 C 1363.9501953125 77.94935607910156 1363.94970703125 77.94972991943359 1363.949340820313 77.95013427734375 C 1363.940063476563 77.95941162109375 1363.9306640625 77.96871185302734 1363.92138671875 77.97793579101563 C 1363.920288085938 77.97902679443359 1363.919189453125 77.98017120361328 1363.91796875 77.98126220703125 C 1363.914306640625 77.98494720458984 1363.910766601563 77.98844146728516 1363.906982421875 77.99211883544922 C 1363.906005859375 77.99305725097656 1363.905151367188 77.99398040771484 1363.904174804688 77.99491882324219 C 1363.899780273438 77.99920654296875 1363.895263671875 78.00368499755859 1363.890869140625 78.00796508789063 C 1363.889526367188 78.00924682617188 1363.88818359375 78.01053619384766 1363.886962890625 78.01181030273438 C 1363.8837890625 78.01486206054688 1363.880493164063 78.01802825927734 1363.87744140625 78.02108001708984 C 1363.875610351563 78.02280426025391 1363.873779296875 78.02449798583984 1363.8720703125 78.02622985839844 C 1363.869262695313 78.02896881103516 1363.86669921875 78.03147125244141 1363.86376953125 78.03420257568359 C 1363.862060546875 78.03595733642578 1363.860107421875 78.03772735595703 1363.8583984375 78.03947448730469 C 1363.854248046875 78.04341888427734 1363.850463867188 78.047119140625 1363.846313476563 78.05105590820313 C 1363.843994140625 78.05333709716797 1363.841552734375 78.05564880371094 1363.839111328125 78.05792236328125 C 1363.837280273438 78.05973815917969 1363.83544921875 78.06153869628906 1363.83349609375 78.0633544921875 C 1363.830810546875 78.06593322753906 1363.828125 78.06854248046875 1363.825317382813 78.07111358642578 C 1363.823974609375 78.07247161865234 1363.822265625 78.07407379150391 1363.82080078125 78.07543182373047 C 1363.811279296875 78.08453369140625 1363.801635742188 78.09358215332031 1363.7919921875 78.10262298583984 C 1363.790893554688 78.10367584228516 1363.789672851563 78.10479736328125 1363.78857421875 78.10585021972656 C 1363.785400390625 78.10882568359375 1363.7822265625 78.11180877685547 1363.779052734375 78.11478424072266 C 1363.7783203125 78.11537933349609 1363.777709960938 78.11605072021484 1363.777099609375 78.11664581298828 C 1363.469482421875 78.40390777587891 1363.135986328125 78.66374206542969 1362.780517578125 78.89230346679688 L 1361.96923828125 77.63059997558594 C 1362.411010742188 77.34670257568359 1362.809814453125 77.00129699707031 1363.15478515625 76.60400390625 Z M 1360.54638671875 78.27999877929688 L 1360.96728515625 79.71980285644531 C 1360.501708984375 79.85585021972656 1360.016845703125 79.94475555419922 1359.5166015625 79.98122406005859 C 1359.516357421875 79.98123931884766 1359.516235351563 79.98125457763672 1359.51611328125 79.98126220703125 C 1359.501220703125 79.98234558105469 1359.487060546875 79.98333740234375 1359.47216796875 79.98432922363281 C 1359.471923828125 79.98434448242188 1359.471557617188 79.98436737060547 1359.47119140625 79.98439025878906 C 1359.46435546875 79.98484802246094 1359.457397460938 79.98529815673828 1359.450439453125 79.98574066162109 C 1359.449951171875 79.98577117919922 1359.449462890625 79.98579406738281 1359.448974609375 79.98582458496094 C 1359.434814453125 79.98672485351563 1359.420654296875 79.98757934570313 1359.406494140625 79.98838806152344 C 1359.405517578125 79.98844909667969 1359.404541015625 79.98850250244141 1359.403442382813 79.98856353759766 C 1359.389526367188 79.98935699462891 1359.375732421875 79.99010467529297 1359.361694335938 79.99081420898438 C 1359.360473632813 79.99087524414063 1359.359252929688 79.99093627929688 1359.358032226563 79.99099731445313 C 1359.351806640625 79.99131774902344 1359.345947265625 79.99160766601563 1359.339599609375 79.99190521240234 C 1359.338745117188 79.991943359375 1359.337890625 79.99198913574219 1359.337036132813 79.99202728271484 C 1359.330078125 79.99235534667969 1359.322998046875 79.99268341064453 1359.316040039063 79.99298858642578 C 1359.315307617188 79.99301910400391 1359.314697265625 79.99304962158203 1359.31396484375 79.99308013916016 C 1359.3076171875 79.99336242675781 1359.301391601563 79.99362945556641 1359.295166015625 79.99388885498047 C 1359.2939453125 79.99393463134766 1359.292724609375 79.99398803710938 1359.29150390625 79.99404144287109 C 1359.277465820313 79.99461364746094 1359.263671875 79.99513244628906 1359.249755859375 79.99562835693359 C 1359.24853515625 79.99566650390625 1359.247314453125 79.99571228027344 1359.24609375 79.99575042724609 C 1359.239990234375 79.99596405029297 1359.233642578125 79.99617004394531 1359.2275390625 79.99636840820313 C 1359.226806640625 79.99639129638672 1359.225830078125 79.99642181396484 1359.22509765625 79.99645233154297 C 1359.21826171875 79.99666595458984 1359.211181640625 79.99687194824219 1359.204467773438 79.9970703125 C 1359.203125 79.99710083007813 1359.201904296875 79.99713897705078 1359.20068359375 79.99717712402344 C 1359.195068359375 79.99732971191406 1359.189331054688 79.99748992919922 1359.183715820313 79.99763488769531 C 1359.18212890625 79.99767303466797 1359.180419921875 79.99771881103516 1359.1787109375 79.99775695800781 C 1359.171875 79.99793243408203 1359.165283203125 79.99809265136719 1359.158447265625 79.99823760986328 C 1359.157958984375 79.99825286865234 1359.157470703125 79.99826049804688 1359.156982421875 79.99827575683594 C 1359.150634765625 79.9984130859375 1359.144287109375 79.99854278564453 1359.137939453125 79.99866485595703 C 1359.136474609375 79.99869537353516 1359.134887695313 79.99871826171875 1359.133422851563 79.99874877929688 C 1359.126831054688 79.99887084960938 1359.12060546875 79.99898529052734 1359.114013671875 79.99909210205078 C 1359.113525390625 79.99909210205078 1359.113159179688 79.99909973144531 1359.11279296875 79.99910736083984 C 1359.10595703125 79.99921417236328 1359.099365234375 79.99930572509766 1359.092529296875 79.99939727783203 C 1359.0908203125 79.99942016601563 1359.0888671875 79.99944305419922 1359.087158203125 79.99946594238281 C 1359.081787109375 79.99952697753906 1359.076171875 79.99958801269531 1359.07080078125 79.99964141845703 C 1359.0693359375 79.99965667724609 1359.067993164063 79.99967193603516 1359.066650390625 79.99968719482422 C 1359.06005859375 79.99974822998047 1359.052978515625 79.99980163574219 1359.04638671875 79.99984741210938 C 1359.044921875 79.99985504150391 1359.043701171875 79.99986267089844 1359.042236328125 79.99987030029297 C 1359.036499023438 79.99990081787109 1359.03125 79.99993133544922 1359.025634765625 79.99994659423828 C 1359.02392578125 79.99995422363281 1359.02197265625 79.99996185302734 1359.020263671875 79.99996948242188 C 1359.013427734375 79.99998474121094 1359.0068359375 80 1359 80 C 1359 80 1359 80 1359 80 C 1359 80 1358.99365234375 80 1358.99365234375 80 L 1358.99365234375 78.5 L 1359 78.5 C 1359.526611328125 78.5 1360.046997070313 78.42600250244141 1360.54638671875 78.27999877929688 Z M 1354.99365234375 78.5 L 1356.99365234375 78.5 L 1356.99365234375 80 C 1356.99365234375 80 1354.99365234375 80 1354.99365234375 80 L 1354.99365234375 78.5 Z M 1350.99365234375 78.5 L 1352.99365234375 78.5 L 1352.99365234375 80 C 1352.99365234375 80 1350.99365234375 80 1350.99365234375 80 L 1350.99365234375 78.5 Z M 1346.99365234375 78.5 L 1348.99365234375 78.5 L 1348.99365234375 80 C 1348.99365234375 80 1346.99365234375 80 1346.99365234375 80 L 1346.99365234375 78.5 Z M 1342.99365234375 78.5 L 1344.99365234375 78.5 L 1344.99365234375 80 C 1344.99365234375 80 1342.99365234375 80 1342.99365234375 80 L 1342.99365234375 78.5 Z M 1338.99365234375 78.5 L 1340.99365234375 78.5 L 1340.99365234375 80 C 1340.99365234375 80 1338.99365234375 80 1338.99365234375 80 L 1338.99365234375 78.5 Z M 1334.99365234375 78.5 L 1336.99365234375 78.5 L 1336.99365234375 80 C 1336.99365234375 80 1334.99365234375 80 1334.99365234375 80 L 1334.99365234375 78.5 Z M 1330.99365234375 78.5 L 1332.99365234375 78.5 L 1332.99365234375 80 C 1332.99365234375 80 1330.99365234375 80 1330.99365234375 80 L 1330.99365234375 78.5 Z M 1326.99365234375 78.5 L 1328.99365234375 78.5 L 1328.99365234375 80 C 1328.99365234375 80 1326.99365234375 80 1326.99365234375 80 L 1326.99365234375 78.5 Z M 1322.99365234375 78.5 L 1324.99365234375 78.5 L 1324.99365234375 80 C 1324.99365234375 80 1322.99365234375 80 1322.99365234375 80 L 1322.99365234375 78.5 Z M 1318.99365234375 78.5 L 1320.99365234375 78.5 L 1320.99365234375 80 C 1320.99365234375 80 1318.99365234375 80 1318.99365234375 80 L 1318.99365234375 78.5 Z M 1314.99365234375 78.5 L 1316.99365234375 78.5 L 1316.99365234375 80 C 1316.99365234375 80 1314.99365234375 80 1314.99365234375 80 L 1314.99365234375 78.5 Z M 1310.99365234375 78.5 L 1312.99365234375 78.5 L 1312.99365234375 80 C 1312.99365234375 80 1310.99365234375 80 1310.99365234375 80 L 1310.99365234375 78.5 Z M 1306.99365234375 78.5 L 1308.99365234375 78.5 L 1308.99365234375 80 C 1308.99365234375 80 1306.99365234375 80 1306.99365234375 80 L 1306.99365234375 78.5 Z M 1302.99365234375 78.5 L 1304.99365234375 78.5 L 1304.99365234375 80 C 1304.99365234375 80 1302.99365234375 80 1302.99365234375 80 L 1302.99365234375 78.5 Z M 1298.99365234375 78.5 L 1300.99365234375 78.5 L 1300.99365234375 80 C 1300.99365234375 80 1298.99365234375 80 1298.99365234375 80 L 1298.99365234375 78.5 Z M 1294.99365234375 78.5 L 1296.99365234375 78.5 L 1296.99365234375 80 C 1296.99365234375 80 1294.99365234375 80 1294.99365234375 80 L 1294.99365234375 78.5 Z M 1290.99365234375 78.5 L 1292.99365234375 78.5 L 1292.99365234375 80 C 1292.99365234375 80 1290.99365234375 80 1290.99365234375 80 L 1290.99365234375 78.5 Z M 1286.99365234375 78.5 L 1288.99365234375 78.5 L 1288.99365234375 80 C 1288.99365234375 80 1286.99365234375 80 1286.99365234375 80 L 1286.99365234375 78.5 Z M 1282.99365234375 78.5 L 1284.99365234375 78.5 L 1284.99365234375 80 C 1284.99365234375 80 1282.99365234375 80 1282.99365234375 80 L 1282.99365234375 78.5 Z M 1278.99365234375 78.5 L 1280.99365234375 78.5 L 1280.99365234375 80 C 1280.99365234375 80 1278.99365234375 80 1278.99365234375 80 L 1278.99365234375 78.5 Z M 1274.99365234375 78.5 L 1276.99365234375 78.5 L 1276.99365234375 80 C 1276.99365234375 80 1274.99365234375 80 1274.99365234375 80 L 1274.99365234375 78.5 Z M 1270.99365234375 78.5 L 1272.99365234375 78.5 L 1272.99365234375 80 C 1272.99365234375 80 1270.99365234375 80 1270.99365234375 80 L 1270.99365234375 78.5 Z M 1266.99365234375 78.5 L 1268.99365234375 78.5 L 1268.99365234375 80 C 1268.99365234375 80 1266.99365234375 80 1266.99365234375 80 L 1266.99365234375 78.5 Z M 1262.99365234375 78.5 L 1264.99365234375 78.5 L 1264.99365234375 80 C 1264.99365234375 80 1262.99365234375 80 1262.99365234375 80 L 1262.99365234375 78.5 Z M 1258.99365234375 78.5 L 1260.99365234375 78.5 L 1260.99365234375 80 C 1260.99365234375 80 1258.99365234375 80 1258.99365234375 80 L 1258.99365234375 78.5 Z M 1254.99365234375 78.5 L 1256.99365234375 78.5 L 1256.99365234375 80 C 1256.99365234375 80 1254.99365234375 80 1254.99365234375 80 L 1254.99365234375 78.5 Z M 1250.99365234375 78.5 L 1252.99365234375 78.5 L 1252.99365234375 80 C 1252.99365234375 80 1250.99365234375 80 1250.99365234375 80 L 1250.99365234375 78.5 Z M 1246.99365234375 78.5 L 1248.99365234375 78.5 L 1248.99365234375 80 C 1248.99365234375 80 1246.99365234375 80 1246.99365234375 80 L 1246.99365234375 78.5 Z M 1242.99365234375 78.5 L 1244.99365234375 78.5 L 1244.99365234375 80 C 1244.99365234375 80 1242.99365234375 80 1242.99365234375 80 L 1242.99365234375 78.5 Z M 1238.99365234375 78.5 L 1240.99365234375 78.5 L 1240.99365234375 80 C 1240.99365234375 80 1238.99365234375 80 1238.99365234375 80 L 1238.99365234375 78.5 Z M 1234.99365234375 78.5 L 1236.99365234375 78.5 L 1236.99365234375 80 C 1236.99365234375 80 1234.99365234375 80 1234.99365234375 80 L 1234.99365234375 78.5 Z M 1230.99365234375 78.5 L 1232.99365234375 78.5 L 1232.99365234375 80 C 1232.99365234375 80 1230.99365234375 80 1230.99365234375 80 L 1230.99365234375 78.5 Z M 1226.99365234375 78.5 L 1228.99365234375 78.5 L 1228.99365234375 80 C 1228.99365234375 80 1226.99365234375 80 1226.99365234375 80 L 1226.99365234375 78.5 Z M 1222.99365234375 78.5 L 1224.99365234375 78.5 L 1224.99365234375 80 C 1224.99365234375 80 1222.99365234375 80 1222.99365234375 80 L 1222.99365234375 78.5 Z M 1218.99365234375 78.5 L 1220.99365234375 78.5 L 1220.99365234375 80 C 1220.99365234375 80 1218.99365234375 80 1218.99365234375 80 L 1218.99365234375 78.5 Z M 1214.99365234375 78.5 L 1216.99365234375 78.5 L 1216.99365234375 80 C 1216.99365234375 80 1214.99365234375 80 1214.99365234375 80 L 1214.99365234375 78.5 Z M 1210.99365234375 78.5 L 1212.99365234375 78.5 L 1212.99365234375 80 C 1212.99365234375 80 1210.99365234375 80 1210.99365234375 80 L 1210.99365234375 78.5 Z M 1206.99365234375 78.5 L 1208.99365234375 78.5 L 1208.99365234375 80 C 1208.99365234375 80 1206.99365234375 80 1206.99365234375 80 L 1206.99365234375 78.5 Z M 1202.99365234375 78.5 L 1204.99365234375 78.5 L 1204.99365234375 80 C 1204.99365234375 80 1202.99365234375 80 1202.99365234375 80 L 1202.99365234375 78.5 Z M 1198.99365234375 78.5 L 1200.99365234375 78.5 L 1200.99365234375 80 C 1200.99365234375 80 1198.99365234375 80 1198.99365234375 80 L 1198.99365234375 78.5 Z M 1194.99365234375 78.5 L 1196.99365234375 78.5 L 1196.99365234375 80 C 1196.99365234375 80 1194.99365234375 80 1194.99365234375 80 L 1194.99365234375 78.5 Z M 1190.99365234375 78.5 L 1192.99365234375 78.5 L 1192.99365234375 80 C 1192.99365234375 80 1190.99365234375 80 1190.99365234375 80 L 1190.99365234375 78.5 Z M 1186.99365234375 78.5 L 1188.99365234375 78.5 L 1188.99365234375 80 C 1188.99365234375 80 1186.99365234375 80 1186.99365234375 80 L 1186.99365234375 78.5 Z M 1182.99365234375 78.5 L 1184.99365234375 78.5 L 1184.99365234375 80 C 1184.99365234375 80 1182.99365234375 80 1182.99365234375 80 L 1182.99365234375 78.5 Z M 1178.99365234375 78.5 L 1180.99365234375 78.5 L 1180.99365234375 80 C 1180.99365234375 80 1178.99365234375 80 1178.99365234375 80 L 1178.99365234375 78.5 Z M 1174.99365234375 78.5 L 1176.99365234375 78.5 L 1176.99365234375 80 C 1176.99365234375 80 1174.99365234375 80 1174.99365234375 80 L 1174.99365234375 78.5 Z M 1170.99365234375 78.5 L 1172.99365234375 78.5 L 1172.99365234375 80 C 1172.99365234375 80 1170.99365234375 80 1170.99365234375 80 L 1170.99365234375 78.5 Z M 1166.99365234375 78.5 L 1168.99365234375 78.5 L 1168.99365234375 80 C 1168.99365234375 80 1166.99365234375 80 1166.99365234375 80 L 1166.99365234375 78.5 Z M 1162.99365234375 78.5 L 1164.99365234375 78.5 L 1164.99365234375 80 C 1164.99365234375 80 1162.99365234375 80 1162.99365234375 80 L 1162.99365234375 78.5 Z M 1158.99365234375 78.5 L 1160.99365234375 78.5 L 1160.99365234375 80 C 1160.99365234375 80 1158.99365234375 80 1158.99365234375 80 L 1158.99365234375 78.5 Z M 1154.99365234375 78.5 L 1156.99365234375 78.5 L 1156.99365234375 80 C 1156.99365234375 80 1154.99365234375 80 1154.99365234375 80 L 1154.99365234375 78.5 Z M 1150.99365234375 78.5 L 1152.99365234375 78.5 L 1152.99365234375 80 C 1152.99365234375 80 1150.99365234375 80 1150.99365234375 80 L 1150.99365234375 78.5 Z M 1146.99365234375 78.5 L 1148.99365234375 78.5 L 1148.99365234375 80 C 1148.99365234375 80 1146.99365234375 80 1146.99365234375 80 L 1146.99365234375 78.5 Z M 1142.99365234375 78.5 L 1144.99365234375 78.5 L 1144.99365234375 80 C 1144.99365234375 80 1142.99365234375 80 1142.99365234375 80 L 1142.99365234375 78.5 Z M 1138.99365234375 78.5 L 1140.99365234375 78.5 L 1140.99365234375 80 C 1140.99365234375 80 1138.99365234375 80 1138.99365234375 80 L 1138.99365234375 78.5 Z M 1134.99365234375 78.5 L 1136.99365234375 78.5 L 1136.99365234375 80 C 1136.99365234375 80 1134.99365234375 80 1134.99365234375 80 L 1134.99365234375 78.5 Z M 1130.99365234375 78.5 L 1132.99365234375 78.5 L 1132.99365234375 80 C 1132.99365234375 80 1130.99365234375 80 1130.99365234375 80 L 1130.99365234375 78.5 Z M 1126.99365234375 78.5 L 1128.99365234375 78.5 L 1128.99365234375 80 C 1128.99365234375 80 1126.99365234375 80 1126.99365234375 80 L 1126.99365234375 78.5 Z M 1122.99365234375 78.5 L 1124.99365234375 78.5 L 1124.99365234375 80 C 1124.99365234375 80 1122.99365234375 80 1122.99365234375 80 L 1122.99365234375 78.5 Z M 1118.99365234375 78.5 L 1120.99365234375 78.5 L 1120.99365234375 80 C 1120.99365234375 80 1118.99365234375 80 1118.99365234375 80 L 1118.99365234375 78.5 Z M 1114.99365234375 78.5 L 1116.99365234375 78.5 L 1116.99365234375 80 C 1116.99365234375 80 1114.99365234375 80 1114.99365234375 80 L 1114.99365234375 78.5 Z M 1110.99365234375 78.5 L 1112.99365234375 78.5 L 1112.99365234375 80 C 1112.99365234375 80 1110.99365234375 80 1110.99365234375 80 L 1110.99365234375 78.5 Z M 1106.99365234375 78.5 L 1108.99365234375 78.5 L 1108.99365234375 80 C 1108.99365234375 80 1106.99365234375 80 1106.99365234375 80 L 1106.99365234375 78.5 Z M 1102.99365234375 78.5 L 1104.99365234375 78.5 L 1104.99365234375 80 C 1104.99365234375 80 1102.99365234375 80 1102.99365234375 80 L 1102.99365234375 78.5 Z M 1098.99365234375 78.5 L 1100.99365234375 78.5 L 1100.99365234375 80 C 1100.99365234375 80 1098.99365234375 80 1098.99365234375 80 L 1098.99365234375 78.5 Z M 1094.99365234375 78.5 L 1096.99365234375 78.5 L 1096.99365234375 80 C 1096.99365234375 80 1094.99365234375 80 1094.99365234375 80 L 1094.99365234375 78.5 Z M 1090.99365234375 78.5 L 1092.99365234375 78.5 L 1092.99365234375 80 C 1092.99365234375 80 1090.99365234375 80 1090.99365234375 80 L 1090.99365234375 78.5 Z M 1086.99365234375 78.5 L 1088.99365234375 78.5 L 1088.99365234375 80 C 1088.99365234375 80 1086.99365234375 80 1086.99365234375 80 L 1086.99365234375 78.5 Z M 1082.99365234375 78.5 L 1084.99365234375 78.5 L 1084.99365234375 80 C 1084.99365234375 80 1082.99365234375 80 1082.99365234375 80 L 1082.99365234375 78.5 Z M 1078.99365234375 78.5 L 1080.99365234375 78.5 L 1080.99365234375 80 C 1080.99365234375 80 1078.99365234375 80 1078.99365234375 80 L 1078.99365234375 78.5 Z M 1074.99365234375 78.5 L 1076.99365234375 78.5 L 1076.99365234375 80 C 1076.99365234375 80 1074.99365234375 80 1074.99365234375 80 L 1074.99365234375 78.5 Z M 1070.99365234375 78.5 L 1072.99365234375 78.5 L 1072.99365234375 80 C 1072.99365234375 80 1070.99365234375 80 1070.99365234375 80 L 1070.99365234375 78.5 Z M 1066.99365234375 78.5 L 1068.99365234375 78.5 L 1068.99365234375 80 C 1068.99365234375 80 1066.99365234375 80 1066.99365234375 80 L 1066.99365234375 78.5 Z M 1062.99365234375 78.5 L 1064.99365234375 78.5 L 1064.99365234375 80 C 1064.99365234375 80 1062.99365234375 80 1062.99365234375 80 L 1062.99365234375 78.5 Z M 1058.99365234375 78.5 L 1060.99365234375 78.5 L 1060.99365234375 80 C 1060.99365234375 80 1058.99365234375 80 1058.99365234375 80 L 1058.99365234375 78.5 Z M 1054.99365234375 78.5 L 1056.99365234375 78.5 L 1056.99365234375 80 C 1056.99365234375 80 1054.99365234375 80 1054.99365234375 80 L 1054.99365234375 78.5 Z M 1050.99365234375 78.5 L 1052.99365234375 78.5 L 1052.99365234375 80 C 1052.99365234375 80 1050.99365234375 80 1050.99365234375 80 L 1050.99365234375 78.5 Z M 1046.99365234375 78.5 L 1048.99365234375 78.5 L 1048.99365234375 80 C 1048.99365234375 80 1046.99365234375 80 1046.99365234375 80 L 1046.99365234375 78.5 Z M 1042.99365234375 78.5 L 1044.99365234375 78.5 L 1044.99365234375 80 C 1044.99365234375 80 1042.99365234375 80 1042.99365234375 80 L 1042.99365234375 78.5 Z M 1038.99365234375 78.5 L 1040.99365234375 78.5 L 1040.99365234375 80 C 1040.99365234375 80 1038.99365234375 80 1038.99365234375 80 L 1038.99365234375 78.5 Z M 1034.99365234375 78.5 L 1036.99365234375 78.5 L 1036.99365234375 80 C 1036.99365234375 80 1034.99365234375 80 1034.99365234375 80 L 1034.99365234375 78.5 Z M 1030.99365234375 78.5 L 1032.99365234375 78.5 L 1032.99365234375 80 C 1032.99365234375 80 1030.99365234375 80 1030.99365234375 80 L 1030.99365234375 78.5 Z M 1026.99365234375 78.5 L 1028.99365234375 78.5 L 1028.99365234375 80 C 1028.99365234375 80 1026.99365234375 80 1026.99365234375 80 L 1026.99365234375 78.5 Z M 1022.993713378906 78.5 L 1024.99365234375 78.5 L 1024.99365234375 80 C 1024.99365234375 80 1022.993713378906 80 1022.993713378906 80 L 1022.993713378906 78.5 Z M 1018.993713378906 78.5 L 1020.993713378906 78.5 L 1020.993713378906 80 C 1020.993713378906 80 1018.993713378906 80 1018.993713378906 80 L 1018.993713378906 78.5 Z M 1014.993713378906 78.5 L 1016.993713378906 78.5 L 1016.993713378906 80 C 1016.993713378906 80 1014.993713378906 80 1014.993713378906 80 L 1014.993713378906 78.5 Z M 1010.993713378906 78.5 L 1012.993713378906 78.5 L 1012.993713378906 80 C 1012.993713378906 80 1010.993713378906 80 1010.993713378906 80 L 1010.993713378906 78.5 Z M 1006.993713378906 78.5 L 1008.993713378906 78.5 L 1008.993713378906 80 C 1008.993713378906 80 1006.993713378906 80 1006.993713378906 80 L 1006.993713378906 78.5 Z M 1002.993713378906 78.5 L 1004.993713378906 78.5 L 1004.993713378906 80 C 1004.993713378906 80 1002.993713378906 80 1002.993713378906 80 L 1002.993713378906 78.5 Z M 998.9937133789063 78.5 L 1000.993713378906 78.5 L 1000.993713378906 80 C 1000.993713378906 80 998.9937133789063 80 998.9937133789063 80 L 998.9937133789063 78.5 Z M 994.9937133789063 78.5 L 996.9937133789063 78.5 L 996.9937133789063 80 C 996.9937133789063 80 994.9937133789063 80 994.9937133789063 80 L 994.9937133789063 78.5 Z M 990.9937133789063 78.5 L 992.9937133789063 78.5 L 992.9937133789063 80 C 992.9937133789063 80 990.9937133789063 80 990.9937133789063 80 L 990.9937133789063 78.5 Z M 986.9937133789063 78.5 L 988.9937133789063 78.5 L 988.9937133789063 80 C 988.9937133789063 80 986.9937133789063 80 986.9937133789063 80 L 986.9937133789063 78.5 Z M 982.9937133789063 78.5 L 984.9937133789063 78.5 L 984.9937133789063 80 C 984.9937133789063 80 982.9937133789063 80 982.9937133789063 80 L 982.9937133789063 78.5 Z M 978.9937133789063 78.5 L 980.9937133789063 78.5 L 980.9937133789063 80 C 980.9937133789063 80 978.9937133789063 80 978.9937133789063 80 L 978.9937133789063 78.5 Z M 974.9937133789063 78.5 L 976.9937133789063 78.5 L 976.9937133789063 80 C 976.9937133789063 80 974.9937133789063 80 974.9937133789063 80 L 974.9937133789063 78.5 Z M 970.9937133789063 78.5 L 972.9937133789063 78.5 L 972.9937133789063 80 C 972.9937133789063 80 970.9937133789063 80 970.9937133789063 80 L 970.9937133789063 78.5 Z M 966.9937133789063 78.5 L 968.9937133789063 78.5 L 968.9937133789063 80 C 968.9937133789063 80 966.9937133789063 80 966.9937133789063 80 L 966.9937133789063 78.5 Z M 962.9937133789063 78.5 L 964.9937133789063 78.5 L 964.9937133789063 80 C 964.9937133789063 80 962.9937133789063 80 962.9937133789063 80 L 962.9937133789063 78.5 Z M 958.9937133789063 78.5 L 960.9937133789063 78.5 L 960.9937133789063 80 C 960.9937133789063 80 958.9937133789063 80 958.9937133789063 80 L 958.9937133789063 78.5 Z M 954.9937133789063 78.5 L 956.9937133789063 78.5 L 956.9937133789063 80 C 956.9937133789063 80 954.9937133789063 80 954.9937133789063 80 L 954.9937133789063 78.5 Z M 950.9937133789063 78.5 L 952.9937133789063 78.5 L 952.9937133789063 80 C 952.9937133789063 80 950.9937133789063 80 950.9937133789063 80 L 950.9937133789063 78.5 Z M 946.9937133789063 78.5 L 948.9937133789063 78.5 L 948.9937133789063 80 C 948.9937133789063 80 946.9937133789063 80 946.9937133789063 80 L 946.9937133789063 78.5 Z M 942.9937133789063 78.5 L 944.9937133789063 78.5 L 944.9937133789063 80 C 944.9937133789063 80 942.9937133789063 80 942.9937133789063 80 L 942.9937133789063 78.5 Z M 938.9937133789063 78.5 L 940.9937133789063 78.5 L 940.9937133789063 80 C 940.9937133789063 80 938.9937133789063 80 938.9937133789063 80 L 938.9937133789063 78.5 Z M 934.9937133789063 78.5 L 936.9937133789063 78.5 L 936.9937133789063 80 C 936.9937133789063 80 934.9937133789063 80 934.9937133789063 80 L 934.9937133789063 78.5 Z M 930.9937133789063 78.5 L 932.9937133789063 78.5 L 932.9937133789063 80 C 932.9937133789063 80 930.9937133789063 80 930.9937133789063 80 L 930.9937133789063 78.5 Z M 926.9937133789063 78.5 L 928.9937133789063 78.5 L 928.9937133789063 80 C 928.9937133789063 80 926.9937133789063 80 926.9937133789063 80 L 926.9937133789063 78.5 Z M 922.9937133789063 78.5 L 924.9937133789063 78.5 L 924.9937133789063 80 C 924.9937133789063 80 922.9937133789063 80 922.9937133789063 80 L 922.9937133789063 78.5 Z M 918.9937133789063 78.5 L 920.9937133789063 78.5 L 920.9937133789063 80 C 920.9937133789063 80 918.9937133789063 80 918.9937133789063 80 L 918.9937133789063 78.5 Z M 914.9937133789063 78.5 L 916.9937133789063 78.5 L 916.9937133789063 80 C 916.9937133789063 80 914.9937133789063 80 914.9937133789063 80 L 914.9937133789063 78.5 Z M 910.9937133789063 78.5 L 912.9937133789063 78.5 L 912.9937133789063 80 C 912.9937133789063 80 910.9937133789063 80 910.9937133789063 80 L 910.9937133789063 78.5 Z M 906.99365234375 78.5 L 908.9937133789063 78.5 L 908.9937133789063 80 C 908.9937133789063 80 906.99365234375 80 906.99365234375 80 L 906.99365234375 78.5 Z M 902.99365234375 78.5 L 904.99365234375 78.5 L 904.99365234375 80 C 904.99365234375 80 902.99365234375 80 902.99365234375 80 L 902.99365234375 78.5 Z M 898.99365234375 78.5 L 900.99365234375 78.5 L 900.99365234375 80 C 900.99365234375 80 898.99365234375 80 898.99365234375 80 L 898.99365234375 78.5 Z M 894.99365234375 78.5 L 896.99365234375 78.5 L 896.99365234375 80 C 896.99365234375 80 894.99365234375 80 894.99365234375 80 L 894.99365234375 78.5 Z M 890.99365234375 78.5 L 892.99365234375 78.5 L 892.99365234375 80 C 892.99365234375 80 890.99365234375 80 890.99365234375 80 L 890.99365234375 78.5 Z M 886.99365234375 78.5 L 888.99365234375 78.5 L 888.99365234375 80 C 888.99365234375 80 886.99365234375 80 886.99365234375 80 L 886.99365234375 78.5 Z M 882.99365234375 78.5 L 884.99365234375 78.5 L 884.99365234375 80 C 884.99365234375 80 882.99365234375 80 882.99365234375 80 L 882.99365234375 78.5 Z M 878.99365234375 78.5 L 880.99365234375 78.5 L 880.99365234375 80 C 880.99365234375 80 878.99365234375 80 878.99365234375 80 L 878.99365234375 78.5 Z M 874.99365234375 78.5 L 876.99365234375 78.5 L 876.99365234375 80 C 876.99365234375 80 874.99365234375 80 874.99365234375 80 L 874.99365234375 78.5 Z M 870.99365234375 78.5 L 872.99365234375 78.5 L 872.99365234375 80 C 872.99365234375 80 870.99365234375 80 870.99365234375 80 L 870.99365234375 78.5 Z M 866.99365234375 78.5 L 868.99365234375 78.5 L 868.99365234375 80 C 868.99365234375 80 866.99365234375 80 866.99365234375 80 L 866.99365234375 78.5 Z M 862.99365234375 78.5 L 864.99365234375 78.5 L 864.99365234375 80 C 864.99365234375 80 862.99365234375 80 862.99365234375 80 L 862.99365234375 78.5 Z M 858.99365234375 78.5 L 860.99365234375 78.5 L 860.99365234375 80 C 860.99365234375 80 858.99365234375 80 858.99365234375 80 L 858.99365234375 78.5 Z M 854.99365234375 78.5 L 856.99365234375 78.5 L 856.99365234375 80 C 856.99365234375 80 854.99365234375 80 854.99365234375 80 L 854.99365234375 78.5 Z M 850.99365234375 78.5 L 852.99365234375 78.5 L 852.99365234375 80 C 852.99365234375 80 850.99365234375 80 850.99365234375 80 L 850.99365234375 78.5 Z M 846.99365234375 78.5 L 848.99365234375 78.5 L 848.99365234375 80 C 848.99365234375 80 846.99365234375 80 846.99365234375 80 L 846.99365234375 78.5 Z M 842.99365234375 78.5 L 844.99365234375 78.5 L 844.99365234375 80 C 844.99365234375 80 842.99365234375 80 842.99365234375 80 L 842.99365234375 78.5 Z M 838.99365234375 78.5 L 840.99365234375 78.5 L 840.99365234375 80 C 840.99365234375 80 838.99365234375 80 838.99365234375 80 L 838.99365234375 78.5 Z M 834.99365234375 78.5 L 836.99365234375 78.5 L 836.99365234375 80 C 836.99365234375 80 834.99365234375 80 834.99365234375 80 L 834.99365234375 78.5 Z M 830.99365234375 78.5 L 832.99365234375 78.5 L 832.99365234375 80 C 832.99365234375 80 830.99365234375 80 830.99365234375 80 L 830.99365234375 78.5 Z M 826.99365234375 78.5 L 828.99365234375 78.5 L 828.99365234375 80 C 828.99365234375 80 826.99365234375 80 826.99365234375 80 L 826.99365234375 78.5 Z M 822.99365234375 78.5 L 824.99365234375 78.5 L 824.99365234375 80 C 824.99365234375 80 822.99365234375 80 822.99365234375 80 L 822.99365234375 78.5 Z M 818.99365234375 78.5 L 820.99365234375 78.5 L 820.99365234375 80 C 820.99365234375 80 818.99365234375 80 818.99365234375 80 L 818.99365234375 78.5 Z M 814.99365234375 78.5 L 816.99365234375 78.5 L 816.99365234375 80 C 816.99365234375 80 814.99365234375 80 814.99365234375 80 L 814.99365234375 78.5 Z M 810.99365234375 78.5 L 812.99365234375 78.5 L 812.99365234375 80 C 812.99365234375 80 810.99365234375 80 810.99365234375 80 L 810.99365234375 78.5 Z M 806.99365234375 78.5 L 808.99365234375 78.5 L 808.99365234375 80 C 808.99365234375 80 806.99365234375 80 806.99365234375 80 L 806.99365234375 78.5 Z M 802.99365234375 78.5 L 804.99365234375 78.5 L 804.99365234375 80 C 804.99365234375 80 802.99365234375 80 802.99365234375 80 L 802.99365234375 78.5 Z M 798.99365234375 78.5 L 800.99365234375 78.5 L 800.99365234375 80 C 800.99365234375 80 798.99365234375 80 798.99365234375 80 L 798.99365234375 78.5 Z M 794.99365234375 78.5 L 796.99365234375 78.5 L 796.99365234375 80 C 796.99365234375 80 794.99365234375 80 794.99365234375 80 L 794.99365234375 78.5 Z M 790.99365234375 78.5 L 792.99365234375 78.5 L 792.99365234375 80 C 792.99365234375 80 790.99365234375 80 790.99365234375 80 L 790.99365234375 78.5 Z M 786.99365234375 78.5 L 788.99365234375 78.5 L 788.99365234375 80 C 788.99365234375 80 786.99365234375 80 786.99365234375 80 L 786.99365234375 78.5 Z M 782.99365234375 78.5 L 784.99365234375 78.5 L 784.99365234375 80 C 784.99365234375 80 782.99365234375 80 782.99365234375 80 L 782.99365234375 78.5 Z M 778.99365234375 78.5 L 780.99365234375 78.5 L 780.99365234375 80 C 780.99365234375 80 778.99365234375 80 778.99365234375 80 L 778.99365234375 78.5 Z M 774.99365234375 78.5 L 776.99365234375 78.5 L 776.99365234375 80 C 776.99365234375 80 774.99365234375 80 774.99365234375 80 L 774.99365234375 78.5 Z M 770.99365234375 78.5 L 772.99365234375 78.5 L 772.99365234375 80 C 772.99365234375 80 770.99365234375 80 770.99365234375 80 L 770.99365234375 78.5 Z M 766.99365234375 78.5 L 768.99365234375 78.5 L 768.99365234375 80 C 768.99365234375 80 766.99365234375 80 766.99365234375 80 L 766.99365234375 78.5 Z M 762.99365234375 78.5 L 764.99365234375 78.5 L 764.99365234375 80 C 764.99365234375 80 762.99365234375 80 762.99365234375 80 L 762.99365234375 78.5 Z M 758.99365234375 78.5 L 760.99365234375 78.5 L 760.99365234375 80 C 760.99365234375 80 758.99365234375 80 758.99365234375 80 L 758.99365234375 78.5 Z M 754.99365234375 78.5 L 756.99365234375 78.5 L 756.99365234375 80 C 756.99365234375 80 754.99365234375 80 754.99365234375 80 L 754.99365234375 78.5 Z M 750.99365234375 78.5 L 752.99365234375 78.5 L 752.99365234375 80 C 752.99365234375 80 750.99365234375 80 750.99365234375 80 L 750.99365234375 78.5 Z M 746.99365234375 78.5 L 748.99365234375 78.5 L 748.99365234375 80 C 748.99365234375 80 746.99365234375 80 746.99365234375 80 L 746.99365234375 78.5 Z M 742.99365234375 78.5 L 744.99365234375 78.5 L 744.99365234375 80 C 744.99365234375 80 742.99365234375 80 742.99365234375 80 L 742.99365234375 78.5 Z M 738.99365234375 78.5 L 740.99365234375 78.5 L 740.99365234375 80 C 740.99365234375 80 738.99365234375 80 738.99365234375 80 L 738.99365234375 78.5 Z M 734.99365234375 78.5 L 736.99365234375 78.5 L 736.99365234375 80 C 736.99365234375 80 734.99365234375 80 734.99365234375 80 L 734.99365234375 78.5 Z M 730.99365234375 78.5 L 732.99365234375 78.5 L 732.99365234375 80 C 732.99365234375 80 730.99365234375 80 730.99365234375 80 L 730.99365234375 78.5 Z M 726.99365234375 78.5 L 728.99365234375 78.5 L 728.99365234375 80 C 728.99365234375 80 726.99365234375 80 726.99365234375 80 L 726.99365234375 78.5 Z M 722.99365234375 78.5 L 724.99365234375 78.5 L 724.99365234375 80 C 724.99365234375 80 722.99365234375 80 722.99365234375 80 L 722.99365234375 78.5 Z M 718.99365234375 78.5 L 720.99365234375 78.5 L 720.99365234375 80 C 720.99365234375 80 718.99365234375 80 718.99365234375 80 L 718.99365234375 78.5 Z M 714.99365234375 78.5 L 716.99365234375 78.5 L 716.99365234375 80 C 716.99365234375 80 714.99365234375 80 714.99365234375 80 L 714.99365234375 78.5 Z M 710.99365234375 78.5 L 712.99365234375 78.5 L 712.99365234375 80 C 712.99365234375 80 710.99365234375 80 710.99365234375 80 L 710.99365234375 78.5 Z M 706.99365234375 78.5 L 708.99365234375 78.5 L 708.99365234375 80 C 708.99365234375 80 706.99365234375 80 706.99365234375 80 L 706.99365234375 78.5 Z M 702.99365234375 78.5 L 704.99365234375 78.5 L 704.99365234375 80 C 704.99365234375 80 702.99365234375 80 702.99365234375 80 L 702.99365234375 78.5 Z M 698.99365234375 78.5 L 700.99365234375 78.5 L 700.99365234375 80 C 700.99365234375 80 698.99365234375 80 698.99365234375 80 L 698.99365234375 78.5 Z M 694.99365234375 78.5 L 696.99365234375 78.5 L 696.99365234375 80 C 696.99365234375 80 694.99365234375 80 694.99365234375 80 L 694.99365234375 78.5 Z M 690.99365234375 78.5 L 692.99365234375 78.5 L 692.99365234375 80 C 692.99365234375 80 690.99365234375 80 690.99365234375 80 L 690.99365234375 78.5 Z M 686.99365234375 78.5 L 688.99365234375 78.5 L 688.99365234375 80 C 688.99365234375 80 686.99365234375 80 686.99365234375 80 L 686.99365234375 78.5 Z M 682.99365234375 78.5 L 684.99365234375 78.5 L 684.99365234375 80 C 684.99365234375 80 682.99365234375 80 682.99365234375 80 L 682.99365234375 78.5 Z M 678.99365234375 78.5 L 680.99365234375 78.5 L 680.99365234375 80 C 680.99365234375 80 678.99365234375 80 678.99365234375 80 L 678.99365234375 78.5 Z M 674.99365234375 78.5 L 676.99365234375 78.5 L 676.99365234375 80 C 676.99365234375 80 674.99365234375 80 674.99365234375 80 L 674.99365234375 78.5 Z M 670.99365234375 78.5 L 672.99365234375 78.5 L 672.99365234375 80 C 672.99365234375 80 670.99365234375 80 670.99365234375 80 L 670.99365234375 78.5 Z M 666.99365234375 78.5 L 668.99365234375 78.5 L 668.99365234375 80 C 668.99365234375 80 666.99365234375 80 666.99365234375 80 L 666.99365234375 78.5 Z M 662.99365234375 78.5 L 664.99365234375 78.5 L 664.99365234375 80 C 664.99365234375 80 662.99365234375 80 662.99365234375 80 L 662.99365234375 78.5 Z M 658.99365234375 78.5 L 660.99365234375 78.5 L 660.99365234375 80 C 660.99365234375 80 658.99365234375 80 658.99365234375 80 L 658.99365234375 78.5 Z M 654.99365234375 78.5 L 656.99365234375 78.5 L 656.99365234375 80 C 656.99365234375 80 654.99365234375 80 654.99365234375 80 L 654.99365234375 78.5 Z M 650.99365234375 78.5 L 652.99365234375 78.5 L 652.99365234375 80 C 652.99365234375 80 650.99365234375 80 650.99365234375 80 L 650.99365234375 78.5 Z M 646.99365234375 78.5 L 648.99365234375 78.5 L 648.99365234375 80 C 648.99365234375 80 646.99365234375 80 646.99365234375 80 L 646.99365234375 78.5 Z M 642.99365234375 78.5 L 644.99365234375 78.5 L 644.99365234375 80 C 644.99365234375 80 642.99365234375 80 642.99365234375 80 L 642.99365234375 78.5 Z M 638.99365234375 78.5 L 640.99365234375 78.5 L 640.99365234375 80 C 640.99365234375 80 638.99365234375 80 638.99365234375 80 L 638.99365234375 78.5 Z M 634.99365234375 78.5 L 636.99365234375 78.5 L 636.99365234375 80 C 636.99365234375 80 634.99365234375 80 634.99365234375 80 L 634.99365234375 78.5 Z M 630.99365234375 78.5 L 632.99365234375 78.5 L 632.99365234375 80 C 632.99365234375 80 630.99365234375 80 630.99365234375 80 L 630.99365234375 78.5 Z M 626.99365234375 78.5 L 628.99365234375 78.5 L 628.99365234375 80 C 628.99365234375 80 626.99365234375 80 626.99365234375 80 L 626.99365234375 78.5 Z M 622.99365234375 78.5 L 624.99365234375 78.5 L 624.99365234375 80 C 624.99365234375 80 622.99365234375 80 622.99365234375 80 L 622.99365234375 78.5 Z M 618.99365234375 78.5 L 620.99365234375 78.5 L 620.99365234375 80 C 620.99365234375 80 618.99365234375 80 618.99365234375 80 L 618.99365234375 78.5 Z M 614.99365234375 78.5 L 616.99365234375 78.5 L 616.99365234375 80 C 616.99365234375 80 614.99365234375 80 614.99365234375 80 L 614.99365234375 78.5 Z M 610.99365234375 78.5 L 612.99365234375 78.5 L 612.99365234375 80 C 612.99365234375 80 610.99365234375 80 610.99365234375 80 L 610.99365234375 78.5 Z M 606.99365234375 78.5 L 608.99365234375 78.5 L 608.99365234375 80 C 608.99365234375 80 606.99365234375 80 606.99365234375 80 L 606.99365234375 78.5 Z M 602.99365234375 78.5 L 604.99365234375 78.5 L 604.99365234375 80 C 604.99365234375 80 602.99365234375 80 602.99365234375 80 L 602.99365234375 78.5 Z M 598.99365234375 78.5 L 600.99365234375 78.5 L 600.99365234375 80 C 600.99365234375 80 598.99365234375 80 598.99365234375 80 L 598.99365234375 78.5 Z M 594.99365234375 78.5 L 596.99365234375 78.5 L 596.99365234375 80 C 596.99365234375 80 594.99365234375 80 594.99365234375 80 L 594.99365234375 78.5 Z M 590.99365234375 78.5 L 592.99365234375 78.5 L 592.99365234375 80 C 592.99365234375 80 590.99365234375 80 590.99365234375 80 L 590.99365234375 78.5 Z M 586.99365234375 78.5 L 588.99365234375 78.5 L 588.99365234375 80 C 588.99365234375 80 586.99365234375 80 586.99365234375 80 L 586.99365234375 78.5 Z M 582.99365234375 78.5 L 584.99365234375 78.5 L 584.99365234375 80 C 584.99365234375 80 582.99365234375 80 582.99365234375 80 L 582.99365234375 78.5 Z M 578.99365234375 78.5 L 580.99365234375 78.5 L 580.99365234375 80 C 580.99365234375 80 578.99365234375 80 578.99365234375 80 L 578.99365234375 78.5 Z M 574.99365234375 78.5 L 576.99365234375 78.5 L 576.99365234375 80 C 576.99365234375 80 574.99365234375 80 574.99365234375 80 L 574.99365234375 78.5 Z M 571.444091796875 78.27719879150391 C 571.9449462890625 78.42459869384766 572.4666748046875 78.49949645996094 572.9949951171875 78.5 L 572.99365234375 80 C 572.98095703125 79.99997711181641 572.9681396484375 79.99993896484375 572.9554443359375 79.99986267089844 C 572.9549560546875 79.99985504150391 572.954345703125 79.99985504150391 572.953857421875 79.99984741210938 C 572.93896484375 79.999755859375 572.9244384765625 79.99961853027344 572.90966796875 79.99942779541016 C 572.9095458984375 79.99942779541016 572.909423828125 79.99942779541016 572.9093017578125 79.99942016601563 C 572.254150390625 79.99112701416016 571.6207275390625 79.89277648925781 571.020751953125 79.71624755859375 L 571.444091796875 78.27719879150391 Z M 568.8387451171875 76.59649658203125 C 569.1829833984375 76.99440002441406 569.5811767578125 77.34049987792969 570.0224609375 77.62529754638672 L 569.2088623046875 78.885498046875 C 569.0294189453125 78.76960754394531 568.85546875 78.64572906494141 568.687744140625 78.51436614990234 C 568.6868896484375 78.51369476318359 568.6861572265625 78.51313018798828 568.685302734375 78.51245880126953 C 568.681640625 78.50959777832031 568.6781005859375 78.50679779052734 568.6744384765625 78.50392913818359 C 568.673828125 78.50352478027344 568.6732177734375 78.50300598144531 568.6727294921875 78.50260162353516 C 568.6663818359375 78.49764251708984 568.66015625 78.49269104003906 568.65380859375 78.48770904541016 C 568.6519775390625 78.48621368408203 568.650390625 78.4849853515625 568.6485595703125 78.48348999023438 C 568.6458740234375 78.48133850097656 568.6431884765625 78.47917938232422 568.640380859375 78.47702789306641 C 568.638427734375 78.47538757324219 568.6358642578125 78.47338104248047 568.6337890625 78.47174072265625 C 568.63134765625 78.46978759765625 568.62890625 78.46778869628906 568.62646484375 78.46582794189453 C 568.6231689453125 78.46322631835938 568.6197509765625 78.46048736572266 568.6165771484375 78.4578857421875 C 568.6138916015625 78.45579528808594 568.611328125 78.45375061035156 568.6087646484375 78.45165252685547 C 568.605224609375 78.44876861572266 568.6016845703125 78.44593048095703 568.59814453125 78.44303894042969 C 568.5965576171875 78.44178771972656 568.594970703125 78.44049835205078 568.5933837890625 78.43923950195313 C 568.5897216796875 78.43620300292969 568.5863037109375 78.43349456787109 568.5826416015625 78.43045043945313 C 568.581298828125 78.42935180664063 568.5799560546875 78.42825317382813 568.57861328125 78.42714691162109 C 568.5736083984375 78.42313385009766 568.5684814453125 78.4189453125 568.5635986328125 78.4149169921875 C 568.5635986328125 78.41487121582031 568.5634765625 78.41482543945313 568.5634765625 78.41477203369141 C 568.5584716796875 78.41075134277344 568.5535888671875 78.40669250488281 568.5487060546875 78.40264892578125 C 568.5477294921875 78.40182495117188 568.5467529296875 78.40102386474609 568.5457763671875 78.40019226074219 C 568.2816162109375 78.18209838867188 568.0340576171875 77.94532775878906 567.8045654296875 77.69132232666016 C 567.804443359375 77.69110870361328 567.80419921875 77.69085693359375 567.803955078125 77.69064331054688 C 567.7999267578125 77.68609619140625 567.795654296875 77.68141937255859 567.79150390625 77.67686462402344 C 567.7908935546875 77.67613983154297 567.7901611328125 77.67533111572266 567.78955078125 77.67460632324219 C 567.78515625 77.66972351074219 567.7808837890625 77.66495513916016 567.7764892578125 77.66005706787109 C 567.77587890625 77.65939331054688 567.775390625 77.65877532958984 567.7747802734375 77.65810394287109 C 567.7713623046875 77.65435028076172 567.7679443359375 77.65046691894531 567.7646484375 77.64670562744141 C 567.7625732421875 77.64443206787109 567.760498046875 77.64210510253906 567.758544921875 77.63982391357422 C 567.756591796875 77.6376953125 567.7548828125 77.63567352294922 567.7529296875 77.633544921875 C 567.7506103515625 77.630859375 567.748291015625 77.62819671630859 567.745849609375 77.62551116943359 C 567.7451171875 77.62468719482422 567.744140625 77.62358856201172 567.743408203125 77.62276458740234 C 567.7303466796875 77.60790252685547 567.7174072265625 77.59297943115234 567.704345703125 77.5780029296875 L 568.8387451171875 76.59649658203125 Z M 567.554443359375 73.77770233154297 C 567.627685546875 74.29710388183594 567.7750244140625 74.802001953125 567.9923095703125 75.27850341796875 L 566.62744140625 75.90077972412109 C 566.4686279296875 75.55250549316406 566.3375244140625 75.18881225585938 566.237060546875 74.81276702880859 C 566.2369384765625 74.81245422363281 566.23681640625 74.81214141845703 566.2366943359375 74.81182098388672 C 566.233154296875 74.79854583740234 566.2296142578125 74.78517150878906 566.2261962890625 74.77186584472656 C 566.2259521484375 74.77072143554688 566.2255859375 74.76954650878906 566.225341796875 74.76840209960938 C 566.223876953125 74.76294708251953 566.222412109375 74.75743103027344 566.2210693359375 74.75197601318359 C 566.220703125 74.75074768066406 566.220458984375 74.74953460693359 566.2200927734375 74.74830627441406 C 566.218505859375 74.74197387695313 566.216796875 74.73540496826172 566.2152099609375 74.72906494140625 C 566.2149658203125 74.72819519042969 566.2147216796875 74.72728729248047 566.2144775390625 74.72641754150391 C 566.213134765625 74.72116851806641 566.2117919921875 74.71591186523438 566.2105712890625 74.71065521240234 C 566.2100830078125 74.70867919921875 566.20947265625 74.70668029785156 566.208984375 74.70469665527344 C 566.207763671875 74.69944000244141 566.20654296875 74.69449615478516 566.2052001953125 74.68923950195313 C 566.204833984375 74.68804931640625 566.20458984375 74.68692016601563 566.204345703125 74.68572998046875 C 566.202880859375 74.6798095703125 566.201416015625 74.67401123046875 566.199951171875 74.66808319091797 C 566.1993408203125 74.66550445556641 566.19873046875 74.66292572021484 566.1981201171875 74.66034698486328 C 566.197265625 74.65682983398438 566.1962890625 74.65314483642578 566.195556640625 74.64962768554688 C 566.19482421875 74.64688873291016 566.1942138671875 74.64405822753906 566.1934814453125 74.64131927490234 C 566.1923828125 74.63692474365234 566.1915283203125 74.63308715820313 566.1904296875 74.62869262695313 C 566.189453125 74.62459564208984 566.1884765625 74.62050628662109 566.1875 74.61640167236328 C 566.186767578125 74.61310577392578 566.1859130859375 74.60967254638672 566.1851806640625 74.60636901855469 C 566.1844482421875 74.60314178466797 566.1837158203125 74.59995269775391 566.1829833984375 74.59672546386719 C 566.182373046875 74.59429931640625 566.1817626953125 74.59156799316406 566.18115234375 74.58914947509766 C 566.17822265625 74.57658386230469 566.1754150390625 74.56401062011719 566.1724853515625 74.55142211914063 C 566.172119140625 74.54943084716797 566.171630859375 74.54749298095703 566.171142578125 74.54550933837891 C 566.1702880859375 74.54135131835938 566.1693115234375 74.53727722167969 566.16845703125 74.53311157226563 C 566.168212890625 74.5322265625 566.16796875 74.53115844726563 566.167724609375 74.5302734375 C 566.165771484375 74.52106475830078 566.1636962890625 74.51190185546875 566.1617431640625 74.502685546875 C 566.16162109375 74.50246429443359 566.1614990234375 74.50187683105469 566.1614990234375 74.50165557861328 C 566.1605224609375 74.49716949462891 566.1595458984375 74.49279022216797 566.1585693359375 74.48829650878906 C 566.1583251953125 74.48696899414063 566.157958984375 74.48532104492188 566.1575927734375 74.48398590087891 C 566.154541015625 74.46958923339844 566.1514892578125 74.45526885986328 566.1484375 74.44083404541016 C 566.1484375 74.44061279296875 566.1483154296875 74.44008636474609 566.148193359375 74.43986511230469 C 566.147216796875 74.43487548828125 566.1461181640625 74.42987060546875 566.1451416015625 74.42488098144531 C 566.1451416015625 74.42465972900391 566.14501953125 74.42462921142578 566.14501953125 74.42440795898438 C 566.141845703125 74.40923309326172 566.1387939453125 74.39396667480469 566.1357421875 74.37876129150391 C 566.1357421875 74.3785400390625 566.1356201171875 74.37815093994141 566.1356201171875 74.3779296875 C 566.12841796875 74.34211730957031 566.12158203125 74.30622100830078 566.114990234375 74.27021026611328 C 566.1148681640625 74.26998901367188 566.1148681640625 74.26946258544922 566.11474609375 74.26924133300781 C 566.111083984375 74.24892425537109 566.107421875 74.22862243652344 566.1038818359375 74.20824432373047 C 566.103759765625 74.20756530761719 566.1036376953125 74.20677947998047 566.103515625 74.20610809326172 C 566.1009521484375 74.19138336181641 566.0985107421875 74.17671203613281 566.095947265625 74.16195678710938 C 566.0958251953125 74.16105651855469 566.0958251953125 74.16055297851563 566.0955810546875 74.15965270996094 C 566.0948486328125 74.15496826171875 566.0941162109375 74.15034484863281 566.09326171875 74.14565277099609 C 566.0931396484375 74.14453125 566.0928955078125 74.14349365234375 566.0927734375 74.14237213134766 C 566.0904541015625 74.12857818603516 566.0882568359375 74.11469268798828 566.0860595703125 74.10087585449219 C 566.0858154296875 74.09906768798828 566.08544921875 74.09680938720703 566.085205078125 74.09500122070313 C 566.08447265625 74.09095001220703 566.0838623046875 74.08689117431641 566.083251953125 74.08283996582031 C 566.0830078125 74.08103179931641 566.082763671875 74.07959747314453 566.08251953125 74.07778930664063 C 566.081298828125 74.07046508789063 566.0802001953125 74.06317138671875 566.0791015625 74.05583190917969 C 566.0787353515625 74.05357360839844 566.078369140625 74.05110931396484 566.0780029296875 74.04884338378906 C 566.0775146484375 74.04531860351563 566.0770263671875 74.04182434082031 566.0765380859375 74.03829193115234 C 566.0760498046875 74.03534698486328 566.0755615234375 74.03227233886719 566.0751953125 74.02932739257813 C 566.07470703125 74.02616882324219 566.07421875 74.02301025390625 566.07373046875 74.01985168457031 C 566.0728759765625 74.01395416259766 566.072021484375 74.00830078125 566.0712890625 74.00240325927734 C 566.0709228515625 74.00030517578125 566.0706787109375 73.99822235107422 566.0703125 73.99612426757813 C 566.0699462890625 73.99317169189453 566.069580078125 73.99034881591797 566.069091796875 73.98739624023438 L 567.554443359375 73.77770233154297 Z M 566 69.9906005859375 L 567.5 69.9906005859375 L 567.5 71.9906005859375 L 566 71.9906005859375 L 566 69.9906005859375 Z M 566 65.9906005859375 L 567.5 65.9906005859375 L 567.5 67.9906005859375 L 566 67.9906005859375 L 566 65.9906005859375 Z M 566 61.9906005859375 L 567.5 61.9906005859375 L 567.5 63.9906005859375 L 566 63.9906005859375 L 566 61.9906005859375 Z M 566 57.9906005859375 L 567.5 57.9906005859375 L 567.5 59.9906005859375 L 566 59.9906005859375 L 566 57.9906005859375 Z M 566 53.9906005859375 L 567.5 53.9906005859375 L 567.5 55.9906005859375 L 566 55.9906005859375 L 566 53.9906005859375 Z M 566 49.9906005859375 L 567.5 49.9906005859375 L 567.5 51.9906005859375 L 566 51.9906005859375 L 566 49.9906005859375 Z M 566 45.9906005859375 L 567.5 45.9906005859375 L 567.5 47.9906005859375 L 566 47.9906005859375 L 566 45.9906005859375 Z M 566 41.9906005859375 L 567.5 41.9906005859375 L 567.5 43.9906005859375 L 566 43.9906005859375 L 566 41.9906005859375 Z M 566 37.9906005859375 L 567.5 37.9906005859375 L 567.5 39.9906005859375 L 566 39.9906005859375 L 566 37.9906005859375 Z M 566 33.9906005859375 L 567.5 33.9906005859375 L 567.5 35.9906005859375 L 566 35.9906005859375 L 566 33.9906005859375 Z M 566 29.9906005859375 L 567.5 29.9906005859375 L 567.5 31.9906005859375 L 566 31.9906005859375 L 566 29.9906005859375 Z M 566 25.9906005859375 L 567.5 25.9906005859375 L 567.5 27.9906005859375 L 566 27.9906005859375 L 566 25.9906005859375 Z M 566 21.9906005859375 L 567.5 21.9906005859375 L 567.5 23.9906005859375 L 566 23.9906005859375 L 566 21.9906005859375 Z M 566 17.9906005859375 L 567.5 17.9906005859375 L 567.5 19.9906005859375 L 566 19.9906005859375 L 566 17.9906005859375 Z M 566 13.9906005859375 L 567.5 13.9906005859375 L 567.5 15.9906005859375 L 566 15.9906005859375 L 566 13.9906005859375 Z M 566 9.9906005859375 L 567.5 9.9906005859375 L 567.5 11.9906005859375 L 566 11.9906005859375 L 566 9.9906005859375 Z M 566.07177734375 5.993896484375 L 567.5565185546875 6.207603454589844 C 567.51904296875 6.467903137207031 567.5 6.7344970703125 567.5 7 L 567.5 7.9906005859375 L 566 7.9906005859375 L 566 7 C 566 6.993392944335938 566 6.986442565917969 566 6.979843139648438 C 566 6.977943420410156 566 6.976066589355469 566 6.974174499511719 C 566.0001220703125 6.968986511230469 566.0001220703125 6.963394165039063 566.0001220703125 6.958206176757813 C 566.0001220703125 6.956626892089844 566.0001220703125 6.955001831054688 566.0001220703125 6.953414916992188 C 566.000244140625 6.946823120117188 566.000244140625 6.940139770507813 566.0003662109375 6.933547973632813 C 566.0003662109375 6.931968688964844 566.0003662109375 6.930374145507813 566.0003662109375 6.928794860839844 C 566.0003662109375 6.923614501953125 566.00048828125 6.9185791015625 566.00048828125 6.913406372070313 C 566.0006103515625 6.911285400390625 566.0006103515625 6.909202575683594 566.0006103515625 6.907081604003906 C 566.000732421875 6.900497436523438 566.000732421875 6.89434814453125 566.0008544921875 6.887763977050781 C 566.0008544921875 6.886451721191406 566.0009765625 6.885101318359375 566.0009765625 6.883796691894531 C 566.0010986328125 6.878387451171875 566.0010986328125 6.873100280761719 566.001220703125 6.867698669433594 C 566.001220703125 6.865371704101563 566.0013427734375 6.863029479980469 566.0013427734375 6.860710144042969 C 566.00146484375 6.856010437011719 566.0015869140625 6.851280212402344 566.001708984375 6.846588134765625 C 566.001708984375 6.844551086425781 566.001708984375 6.842536926269531 566.0018310546875 6.840507507324219 C 566.001953125 6.834632873535156 566.0020751953125 6.82861328125 566.002197265625 6.822746276855469 C 566.0023193359375 6.819740295410156 566.0023193359375 6.816780090332031 566.00244140625 6.813774108886719 C 566.0025634765625 6.810028076171875 566.002685546875 6.806221008300781 566.002685546875 6.802467346191406 C 566.0028076171875 6.799552917480469 566.0029296875 6.796684265136719 566.0029296875 6.79376220703125 C 566.003173828125 6.788139343261719 566.0032958984375 6.782707214355469 566.0035400390625 6.777084350585938 C 566.0035400390625 6.773567199707031 566.003662109375 6.770072937011719 566.0037841796875 6.766555786132813 C 566.00390625 6.763519287109375 566.0040283203125 6.760765075683594 566.004150390625 6.757720947265625 C 566.0042724609375 6.754142761230469 566.00439453125 6.750595092773438 566.0045166015625 6.747016906738281 C 566.004638671875 6.744209289550781 566.004638671875 6.741645812988281 566.0047607421875 6.738838195800781 C 566.005126953125 6.731277465820313 566.00537109375 6.723686218261719 566.005615234375 6.716133117675781 C 566.0057373046875 6.714958190917969 566.0057373046875 6.713760375976563 566.005859375 6.712593078613281 C 566.0059814453125 6.707992553710938 566.0062255859375 6.703399658203125 566.00634765625 6.69879150390625 C 566.0064697265625 6.697624206542969 566.0064697265625 6.696418762207031 566.0064697265625 6.69525146484375 C 566.0167236328125 6.458244323730469 566.0386962890625 6.224281311035156 566.07177734375 5.993896484375 Z M 567.7166748046875 2.407798767089844 L 568.848388671875 3.392303466796875 C 568.5030517578125 3.789398193359375 568.217041015625 4.232101440429688 567.9984130859375 4.708099365234375 L 566.63525390625 4.082099914550781 C 566.670166015625 4.006195068359375 566.706298828125 3.931068420410156 566.7437744140625 3.856658935546875 C 566.743896484375 3.85626220703125 566.7442626953125 3.855552673339844 566.7445068359375 3.85516357421875 C 566.7464599609375 3.851325988769531 566.748291015625 3.847564697265625 566.750244140625 3.843727111816406 C 566.7510986328125 3.842155456542969 566.7518310546875 3.840728759765625 566.7525634765625 3.839157104492188 C 566.7545166015625 3.835365295410156 566.7564697265625 3.831588745117188 566.7584228515625 3.827804565429688 C 566.7587890625 3.827018737792969 566.7591552734375 3.826171875 566.7596435546875 3.825386047363281 C 566.7633056640625 3.818069458007813 566.76708984375 3.810783386230469 566.7708740234375 3.803474426269531 C 566.7716064453125 3.801902770996094 566.772705078125 3.799880981445313 566.7734375 3.798316955566406 C 566.775146484375 3.7950439453125 566.77685546875 3.791786193847656 566.778564453125 3.788520812988281 C 566.7796630859375 3.786361694335938 566.7808837890625 3.783958435058594 566.781982421875 3.781806945800781 C 566.7835693359375 3.778755187988281 566.78515625 3.775680541992188 566.7867431640625 3.772636413574219 C 566.7890625 3.768333435058594 566.7911376953125 3.764190673828125 566.79345703125 3.7598876953125 C 566.7947998046875 3.757316589355469 566.796142578125 3.7547607421875 566.7974853515625 3.752189636230469 C 566.7994384765625 3.748481750488281 566.8013916015625 3.744781494140625 566.8033447265625 3.741073608398438 C 566.8045654296875 3.738761901855469 566.8056640625 3.736480712890625 566.806884765625 3.734169006347656 C 566.808837890625 3.730659484863281 566.810791015625 3.726875305175781 566.8126220703125 3.723365783691406 C 566.8135986328125 3.721488952636719 566.814697265625 3.719528198242188 566.815673828125 3.7176513671875 C 566.818603515625 3.712196350097656 566.8214111328125 3.706947326660156 566.8243408203125 3.701507568359375 C 566.824951171875 3.700279235839844 566.82568359375 3.699020385742188 566.8262939453125 3.697792053222656 C 566.8287353515625 3.693321228027344 566.8311767578125 3.688682556152344 566.8336181640625 3.684211730957031 C 566.83447265625 3.682632446289063 566.8353271484375 3.681068420410156 566.836181640625 3.679481506347656 C 566.8385009765625 3.675018310546875 566.8408203125 3.670745849609375 566.84326171875 3.666290283203125 C 566.843994140625 3.664962768554688 566.8447265625 3.663673400878906 566.845458984375 3.662345886230469 C 566.8485107421875 3.656730651855469 566.851806640625 3.650703430175781 566.8548583984375 3.645095825195313 C 566.85498046875 3.644737243652344 566.855224609375 3.644378662109375 566.85546875 3.644020080566406 C 566.8585205078125 3.638412475585938 566.861328125 3.633247375488281 566.8643798828125 3.627647399902344 C 566.8648681640625 3.626716613769531 566.865478515625 3.625801086425781 566.865966796875 3.624870300292969 C 566.87255859375 3.612899780273438 566.8790283203125 3.601310729980469 566.8856201171875 3.589385986328125 C 566.8857421875 3.589279174804688 566.8857421875 3.589096069335938 566.8858642578125 3.5889892578125 C 566.88916015625 3.583030700683594 566.8924560546875 3.577255249023438 566.895751953125 3.571304321289063 C 566.89599609375 3.571022033691406 566.8961181640625 3.570701599121094 566.896240234375 3.570411682128906 C 566.906494140625 3.55218505859375 566.9168701171875 3.534034729003906 566.92724609375 3.515899658203125 C 566.9273681640625 3.515792846679688 566.927490234375 3.515655517578125 566.927490234375 3.515548706054688 C 567.15478515625 3.120277404785156 567.4193115234375 2.749641418457031 567.7166748046875 2.407806396484375 Z M 571.038818359375 0.27850341796875 L 571.458251953125 1.718597412109375 C 570.9559326171875 1.864898681640625 570.47705078125 2.083000183105469 570.0347900390625 2.36669921875 L 569.224853515625 1.104301452636719 C 569.7806396484375 0.7475967407226563 570.3902587890625 0.4673995971679688 571.038818359375 0.27850341796875 Z" stroke="none" fill="#bebebe"/>
  </g>
</svg>
