<svg xmlns="http://www.w3.org/2000/svg" width="26.208" height="16.38" viewBox="0 0 26.208 16.38">
  <path id="Icon_metro-eye" data-name="Icon metro-eye" d="M15.675,7.712a14.677,14.677,0,0,0-13.1,8.19,14.578,14.578,0,0,0,26.208,0,14.677,14.677,0,0,0-13.1-8.19Zm6.461,4.343A12.462,12.462,0,0,1,25.961,15.9a12.462,12.462,0,0,1-3.825,3.847,12.009,12.009,0,0,1-12.922,0A12.462,12.462,0,0,1,5.389,15.9a12.461,12.461,0,0,1,3.825-3.847c.1-.064.2-.126.3-.187a6.552,6.552,0,1,0,12.315,0q.153.091.3.187Zm-6.461,1.39a2.457,2.457,0,1,1-2.457-2.457A2.457,2.457,0,0,1,15.675,13.445Z" transform="translate(-2.571 -7.712)" fill="#1c272b"/>
</svg>
