<svg xmlns="http://www.w3.org/2000/svg" xmlns:xlink="http://www.w3.org/1999/xlink" width="77.868" height="57.216" viewBox="0 0 77.868 57.216">
  <defs>
    <linearGradient id="linear-gradient" x1="0.087" y1="0.5" x2="0.898" y2="0.5" gradientUnits="objectBoundingBox">
      <stop offset="0" stop-color="#033b5c"/>
      <stop offset="0.489" stop-color="#04466d"/>
      <stop offset="1" stop-color="#086094"/>
    </linearGradient>
  </defs>
  <g id="view" transform="translate(-22.364 -84.606)">
    <path id="Path_6149" data-name="Path 6149" d="M36.215,120.7a38.17,38.17,0,0,0,30.642,4.53,17.57,17.57,0,0,1,21.884-16.253c.666-1.047,1.287-2.129,1.847-3.233a38.075,38.075,0,0,0-67.946,0A38.173,38.173,0,0,0,36.215,120.7Zm20.621-30.2A15.247,15.247,0,1,1,41.589,105.74,15.247,15.247,0,0,1,56.836,90.493Z" transform="translate(0 0)" stroke="#fff" stroke-width="0.5" fill="url(#linear-gradient)"/>
    <path id="Path_6150" data-name="Path 6150" d="M353.727,305.757h3.756l-1.878-6.441Z" transform="translate(-276.22 -178.922)" stroke="#fff" stroke-width="0.5" fill="url(#linear-gradient)"/>
    <path id="Path_6151" data-name="Path 6151" d="M424.466,300.778v-5.667c0-1.647-.768-2.482-2.283-2.482h-2.264V303.26h2.264C423.7,303.261,424.466,302.426,424.466,300.778Z" transform="translate(-331.443 -173.343)" stroke="#fff" stroke-width="0.5" fill="url(#linear-gradient)"/>
    <path id="Path_6152" data-name="Path 6152" d="M162.231,157.387a13.259,13.259,0,1,0-13.259-13.259A13.259,13.259,0,0,0,162.231,157.387Zm-7.041-20.492a9.712,9.712,0,0,1,9.985-2.362.994.994,0,0,1,.326,1.7c-.081.068-.156.136-.222.2A3.39,3.39,0,1,0,170,141.3a.994.994,0,0,1,1.657.521,9.765,9.765,0,1,1-16.469-4.931Z" transform="translate(-105.394 -38.389)" stroke="#fff" stroke-width="0.5" fill="url(#linear-gradient)"/>
    <path id="Path_6153" data-name="Path 6153" d="M301.354,254.7a15.577,15.577,0,1,0,15.577-15.577A15.577,15.577,0,0,0,301.354,254.7Zm17.374-7.985c0-.426.447-.759,1.017-.759h3.52c2.939,0,4.557,1.6,4.557,4.517v5.667c0,2.913-1.618,4.517-4.557,4.517h-3.52c-.57,0-1.017-.333-1.017-.759Zm-1.406,12.984c0,.539-.761.958-1.415.958a.741.741,0,0,1-.8-.5l-.8-2.765h-4.786l-.8,2.764a.744.744,0,0,1-.815.5c-.582,0-1.4-.365-1.4-.958a.629.629,0,0,1,.024-.205l3.956-12.883a1.393,1.393,0,0,1,1.412-.774,1.443,1.443,0,0,1,1.431.773l3.938,12.887A.646.646,0,0,1,317.322,259.695Z" transform="translate(-232.525 -128.7)" stroke="#fff" stroke-width="0.5" fill="url(#linear-gradient)"/>
    <path id="Path_6154" data-name="Path 6154" d="M194.5,175.229a7.755,7.755,0,0,0,2.279-5.544,5.384,5.384,0,0,1-6.815-7.675,7.778,7.778,0,1,0,4.537,13.218Z" transform="translate(-132.304 -64.319)" stroke="#fff" stroke-width="0.5" fill="url(#linear-gradient)"/>
  </g>
</svg>
