<svg xmlns="http://www.w3.org/2000/svg" xmlns:xlink="http://www.w3.org/1999/xlink" width="106.094" height="83.457" viewBox="0 0 106.094 83.457">
  <defs>
    <linearGradient id="linear-gradient" x1="0.549" y1="0.096" x2="0.545" y2="0.923" gradientUnits="objectBoundingBox">
      <stop offset="0" stop-color="#fe6d2d"/>
      <stop offset="0.459" stop-color="#f75308"/>
      <stop offset="1" stop-color="#f6250a"/>
    </linearGradient>
  </defs>
  <g id="whistle" transform="translate(-1 -3.375)">
    <g id="Group_38643" data-name="Group 38643" transform="translate(0 3.375)">
      <path id="Path_5718" data-name="Path 5718" d="M15.761,14.549l4.464,5.631L32.338,12.9,26.912,7.741Z" transform="translate(37.094 6.9)" fill="url(#linear-gradient)"/>
      <path id="Path_5719" data-name="Path 5719" d="M106.05,50.774v-.034l-.02.01c-1.68-1.9-28.016-31.725-40.26-41.524C54.033.2,32.6.769,12.6,16.967l-2.763,2.2c-.158.117-.322.208-.473.335C-2.2,28.627-3.19,46.659,7.156,59.768S35.263,76.121,46.826,67c2.364-1.861,4.749-6.013,6.221-8.5l23.9,28.335,28.69-18.948.412-17.013.047-.044C106.084,50.814,106.06,50.788,106.05,50.774ZM99.963,65.52,86.009,74.045V70.057l13.954-8.521Zm-19.411-.329L49.274,27.061c-.084-.107-.151-.221-.238-.332-.215-.272-.449-.51-.671-.771l-.718-.875-.013.023A31.329,31.329,0,0,0,24.9,14.357c14.706-7.817,29.28-8.77,38.124-1.7,11.027,8.82,34.81,35.481,39.09,40.307Z" transform="translate(1 -3.375)" fill="url(#linear-gradient)"/>
    </g>
  </g>
</svg>
